<?xml version="1.0" encoding="UTF-8"?>
<!DOCTYPE svg PUBLIC "-//W3C//DTD SVG 1.1//EN" "http://www.w3.org/Graphics/SVG/1.1/DTD/svg11.dtd">
<svg xmlns="http://www.w3.org/2000/svg" version="1.1" width="186px" height="183px" style="shape-rendering:geometricPrecision; text-rendering:geometricPrecision; image-rendering:optimizeQuality; fill-rule:evenodd; clip-rule:evenodd" xmlns:xlink="http://www.w3.org/1999/xlink">
<g><path style="opacity:1" fill="#fcfcfc" d="M -0.5,-0.5 C 61.5,-0.5 123.5,-0.5 185.5,-0.5C 185.5,60.5 185.5,121.5 185.5,182.5C 123.5,182.5 61.5,182.5 -0.5,182.5C -0.5,121.5 -0.5,60.5 -0.5,-0.5 Z"/></g>
<g><path style="opacity:1" fill="#8b8b8b" d="M 99.5,3.5 C 91.149,3.4815 82.8156,3.81483 74.5,4.5C 79.2449,3.00096 84.2449,2.33429 89.5,2.5C 93.0175,2.5016 96.3509,2.83493 99.5,3.5 Z"/></g>
<g><path style="opacity:1" fill="#040404" d="M 99.5,3.5 C 141.739,9.5371 168.239,33.2038 179,74.5C 183.8,110.445 172.3,139.945 144.5,163C 98.4119,191.379 57.2453,185.546 21,145.5C 3.96219,121.305 -0.871147,94.805 6.5,66C 13.847,43.3171 27.847,25.9837 48.5,14C 52.8166,12.0632 57.1499,10.2299 61.5,8.5C 66.1646,7.9431 70.4979,6.60976 74.5,4.5C 82.8156,3.81483 91.149,3.4815 99.5,3.5 Z"/></g>
<g><path style="opacity:1" fill="#3c3c3c" d="M 74.5,4.5 C 70.4979,6.60976 66.1646,7.9431 61.5,8.5C 65.5021,6.39024 69.8354,5.0569 74.5,4.5 Z"/></g>
<g><path style="opacity:1" fill="#fcfcfc" d="M 149.5,66.5 C 151.409,72.8742 153.076,79.2075 154.5,85.5C 155.268,118.982 139.935,141.315 108.5,152.5C 104.989,152.899 101.656,153.566 98.5,154.5C 92.8333,154.5 87.1667,154.5 81.5,154.5C 79.4855,153.076 77.1522,152.41 74.5,152.5C 48.9115,144.344 33.7448,127.011 29,100.5C 26.772,62.7242 43.9387,38.8909 80.5,29C 103.967,26.4861 123.801,33.6527 140,50.5C 143.945,55.3934 147.112,60.7267 149.5,66.5 Z"/></g>
<g><path style="opacity:1" fill="#1a1a1a" d="M 129.5,54.5 C 104.5,54.5 79.5,54.5 54.5,54.5C 54.5,79.5 54.5,104.5 54.5,129.5C 53.5023,104.339 53.1689,79.0055 53.5,53.5C 79.0055,53.1689 104.339,53.5023 129.5,54.5 Z"/></g>
<g><path style="opacity:1" fill="#000000" d="M 129.5,54.5 C 129.5,79.5 129.5,104.5 129.5,129.5C 104.5,129.5 79.5,129.5 54.5,129.5C 54.5,104.5 54.5,79.5 54.5,54.5C 79.5,54.5 104.5,54.5 129.5,54.5 Z"/></g>
<g><path style="opacity:1" fill="#9d9d9d" d="M 149.5,66.5 C 152.972,72.2655 154.638,78.5989 154.5,85.5C 153.076,79.2075 151.409,72.8742 149.5,66.5 Z"/></g>
<g><path style="opacity:1" fill="#737373" d="M 74.5,152.5 C 77.1522,152.41 79.4855,153.076 81.5,154.5C 78.8478,154.59 76.5145,153.924 74.5,152.5 Z"/></g>
<g><path style="opacity:1" fill="#595959" d="M 108.5,152.5 C 108.082,153.222 107.416,153.722 106.5,154C 103.854,154.497 101.187,154.664 98.5,154.5C 101.656,153.566 104.989,152.899 108.5,152.5 Z"/></g>
</svg>
