<?xml version="1.0" encoding="UTF-8"?>
<!DOCTYPE svg PUBLIC "-//W3C//DTD SVG 1.1//EN" "http://www.w3.org/Graphics/SVG/1.1/DTD/svg11.dtd">
<svg xmlns="http://www.w3.org/2000/svg" version="1.1" width="189px" height="189px" style="shape-rendering:geometricPrecision; text-rendering:geometricPrecision; image-rendering:optimizeQuality; fill-rule:evenodd; clip-rule:evenodd" xmlns:xlink="http://www.w3.org/1999/xlink">
<g><path style="opacity:1" fill="#fcfcfc" d="M -0.5,-0.5 C 62.5,-0.5 125.5,-0.5 188.5,-0.5C 188.5,62.5 188.5,125.5 188.5,188.5C 125.5,188.5 62.5,188.5 -0.5,188.5C -0.5,125.5 -0.5,62.5 -0.5,-0.5 Z"/></g>
<g><path style="opacity:1" fill="#8b8b8b" d="M 100.5,5.5 C 92.149,5.4815 83.8156,5.81483 75.5,6.5C 80.2449,5.00096 85.2449,4.33429 90.5,4.5C 94.0175,4.5016 97.3509,4.83493 100.5,5.5 Z"/></g>
<g><path style="opacity:1" fill="#040404" d="M 100.5,5.5 C 142.739,11.5371 169.239,35.2038 180,76.5C 184.8,112.445 173.3,141.945 145.5,165C 99.4119,193.379 58.2453,187.546 22,147.5C 4.96219,123.305 0.128853,96.805 7.5,68C 14.847,45.3171 28.847,27.9837 49.5,16C 53.8166,14.0632 58.1499,12.2299 62.5,10.5C 67.1646,9.9431 71.4979,8.60976 75.5,6.5C 83.8156,5.81483 92.149,5.4815 100.5,5.5 Z"/></g>
<g><path style="opacity:1" fill="#3c3c3c" d="M 75.5,6.5 C 71.4979,8.60976 67.1646,9.9431 62.5,10.5C 66.5021,8.39024 70.8354,7.0569 75.5,6.5 Z"/></g>
<g><path style="opacity:1" fill="#fbfbfb" d="M 150.5,68.5 C 152.409,74.8742 154.076,81.2075 155.5,87.5C 156.268,120.982 140.935,143.315 109.5,154.5C 105.989,154.899 102.656,155.566 99.5,156.5C 93.8333,156.5 88.1667,156.5 82.5,156.5C 80.4855,155.076 78.1522,154.41 75.5,154.5C 49.9115,146.344 34.7448,129.011 30,102.5C 27.772,64.7242 44.9387,40.8909 81.5,31C 104.967,28.4861 124.801,35.6527 141,52.5C 144.945,57.3934 148.112,62.7267 150.5,68.5 Z"/></g>
<g><path style="opacity:1" fill="#404041" d="M 97.5,56.5 C 92.1301,56.3921 86.7968,56.7255 81.5,57.5C 84.356,55.9942 87.5226,55.3275 91,55.5C 93.3608,55.5039 95.5274,55.8373 97.5,56.5 Z"/></g>
<g><path style="opacity:1" fill="#030303" d="M 97.5,56.5 C 121.193,61.5183 132.026,76.185 130,100.5C 122.739,123.632 107.072,133.632 83,130.5C 62.2489,122.674 52.9155,107.674 55,85.5C 58.9238,71.4122 67.7571,62.0788 81.5,57.5C 86.7968,56.7255 92.1301,56.3921 97.5,56.5 Z"/></g>
<g><path style="opacity:1" fill="#9d9d9d" d="M 150.5,68.5 C 153.972,74.2655 155.638,80.5989 155.5,87.5C 154.076,81.2075 152.409,74.8742 150.5,68.5 Z"/></g>
<g><path style="opacity:1" fill="#737373" d="M 75.5,154.5 C 78.1522,154.41 80.4855,155.076 82.5,156.5C 79.8478,156.59 77.5145,155.924 75.5,154.5 Z"/></g>
<g><path style="opacity:1" fill="#595959" d="M 109.5,154.5 C 109.082,155.222 108.416,155.722 107.5,156C 104.854,156.497 102.187,156.664 99.5,156.5C 102.656,155.566 105.989,154.899 109.5,154.5 Z"/></g>
</svg>
