<?xml version="1.0" encoding="UTF-8"?>
<!DOCTYPE svg PUBLIC "-//W3C//DTD SVG 1.1//EN" "http://www.w3.org/Graphics/SVG/1.1/DTD/svg11.dtd">
<svg xmlns="http://www.w3.org/2000/svg" version="1.1" width="187px" height="189px" style="shape-rendering:geometricPrecision; text-rendering:geometricPrecision; image-rendering:optimizeQuality; fill-rule:evenodd; clip-rule:evenodd" xmlns:xlink="http://www.w3.org/1999/xlink">
<g><path style="opacity:1" fill="#fafafa" d="M -0.5,-0.5 C 61.8333,-0.5 124.167,-0.5 186.5,-0.5C 186.5,62.5 186.5,125.5 186.5,188.5C 124.167,188.5 61.8333,188.5 -0.5,188.5C -0.5,125.5 -0.5,62.5 -0.5,-0.5 Z"/></g>
<g><path style="opacity:1" fill="#040404" d="M 58.5,5.5 C 81.5024,5.33337 104.502,5.50004 127.5,6C 155.261,11.038 172.594,27.2047 179.5,54.5C 180.412,77.4844 180.746,100.484 180.5,123.5C 176.58,155.922 158.58,175.422 126.5,182C 103.833,182.667 81.1667,182.667 58.5,182C 31.6786,176.358 14.1786,160.525 6,134.5C 4.23228,108.123 4.06562,81.7898 5.5,55.5C 6.7682,53.0948 7.43487,50.4282 7.5,47.5C 14.4379,29.5623 26.7712,16.8957 44.5,9.5C 49.4305,8.74111 54.0971,7.40778 58.5,5.5 Z"/></g>
<g><path style="opacity:1" fill="#3e3e3e" d="M 58.5,5.5 C 54.0971,7.40778 49.4305,8.74111 44.5,9.5C 48.7938,7.18371 53.4605,5.85038 58.5,5.5 Z"/></g>
<g><path style="opacity:1" fill="#fcfcfc" d="M 153.5,54.5 C 153.565,57.4282 154.232,60.0948 155.5,62.5C 155.5,83.5 155.5,104.5 155.5,125.5C 154.129,127.936 153.129,130.603 152.5,133.5C 148.444,143.889 141.11,150.889 130.5,154.5C 127.627,154.802 124.961,155.469 122.5,156.5C 100.831,156.667 79.1641,156.5 57.5,156C 41.9701,151.132 32.8034,140.632 30,124.5C 29.3333,103.167 29.3333,81.8333 30,60.5C 33.8333,44.6667 43.6667,34.8333 59.5,31C 81.1667,30.3333 102.833,30.3333 124.5,31C 138.499,33.6452 148.166,41.4786 153.5,54.5 Z"/></g>
<g><path style="opacity:1" fill="#575757" d="M 7.5,47.5 C 7.43487,50.4282 6.7682,53.0948 5.5,55.5C 5.29379,52.5049 5.96046,49.8383 7.5,47.5 Z"/></g>
<g><path style="opacity:1" fill="#404041" d="M 97.5,56.5 C 92.1301,56.3921 86.7968,56.7255 81.5,57.5C 84.356,55.9942 87.5226,55.3275 91,55.5C 93.3608,55.5039 95.5274,55.8373 97.5,56.5 Z"/></g>
<g><path style="opacity:1" fill="#030303" d="M 97.5,56.5 C 121.193,61.5183 132.026,76.185 130,100.5C 122.739,123.632 107.072,133.632 83,130.5C 62.2489,122.674 52.9155,107.674 55,85.5C 58.9238,71.4122 67.7571,62.0788 81.5,57.5C 86.7968,56.7255 92.1301,56.3921 97.5,56.5 Z"/></g>
<g><path style="opacity:1" fill="#868686" d="M 153.5,54.5 C 155.04,56.8383 155.706,59.5049 155.5,62.5C 154.232,60.0948 153.565,57.4282 153.5,54.5 Z"/></g>
<g><path style="opacity:1" fill="#4e4e4e" d="M 179.5,54.5 C 180.309,56.2922 180.809,58.2922 181,60.5C 181.829,81.6707 181.663,102.671 180.5,123.5C 180.746,100.484 180.412,77.4844 179.5,54.5 Z"/></g>
<g><path style="opacity:1" fill="#686868" d="M 155.5,125.5 C 155.655,128.716 154.655,131.383 152.5,133.5C 153.129,130.603 154.129,127.936 155.5,125.5 Z"/></g>
<g><path style="opacity:1" fill="#7c7c7c" d="M 130.5,154.5 C 128.22,156.223 125.553,156.889 122.5,156.5C 124.961,155.469 127.627,154.802 130.5,154.5 Z"/></g>
</svg>
