<?xml version="1.0" encoding="UTF-8"?>
<!DOCTYPE svg PUBLIC "-//W3C//DTD SVG 1.1//EN" "http://www.w3.org/Graphics/SVG/1.1/DTD/svg11.dtd">
<svg xmlns="http://www.w3.org/2000/svg" version="1.1" width="189px" height="185px" style="shape-rendering:geometricPrecision; text-rendering:geometricPrecision; image-rendering:optimizeQuality; fill-rule:evenodd; clip-rule:evenodd" xmlns:xlink="http://www.w3.org/1999/xlink">
<g><path style="opacity:1" fill="#fafafa" d="M -0.5,-0.5 C 62.5,-0.5 125.5,-0.5 188.5,-0.5C 188.5,61.1667 188.5,122.833 188.5,184.5C 125.5,184.5 62.5,184.5 -0.5,184.5C -0.5,122.833 -0.5,61.1667 -0.5,-0.5 Z"/></g>
<g><path style="opacity:1" fill="#040404" d="M 58.5,3.5 C 81.5024,3.33337 104.502,3.50004 127.5,4C 155.261,9.03798 172.594,25.2047 179.5,52.5C 180.412,75.4844 180.746,98.4844 180.5,121.5C 176.58,153.922 158.58,173.422 126.5,180C 103.833,180.667 81.1667,180.667 58.5,180C 31.6786,174.358 14.1786,158.525 6,132.5C 4.23228,106.123 4.06562,79.7898 5.5,53.5C 6.7682,51.0948 7.43487,48.4282 7.5,45.5C 14.4379,27.5623 26.7712,14.8957 44.5,7.5C 49.4305,6.74111 54.0971,5.40778 58.5,3.5 Z"/></g>
<g><path style="opacity:1" fill="#3e3e3e" d="M 58.5,3.5 C 54.0971,5.40778 49.4305,6.74111 44.5,7.5C 48.7938,5.18371 53.4605,3.85038 58.5,3.5 Z"/></g>
<g><path style="opacity:1" fill="#fdfdfd" d="M 153.5,52.5 C 153.565,55.4282 154.232,58.0948 155.5,60.5C 155.5,81.5 155.5,102.5 155.5,123.5C 154.129,125.936 153.129,128.603 152.5,131.5C 148.444,141.889 141.11,148.889 130.5,152.5C 127.627,152.802 124.961,153.469 122.5,154.5C 100.831,154.667 79.1641,154.5 57.5,154C 41.9701,149.132 32.8034,138.632 30,122.5C 29.3333,101.167 29.3333,79.8333 30,58.5C 33.8333,42.6667 43.6667,32.8333 59.5,29C 81.1667,28.3333 102.833,28.3333 124.5,29C 138.499,31.6452 148.166,39.4786 153.5,52.5 Z"/></g>
<g><path style="opacity:1" fill="#575757" d="M 7.5,45.5 C 7.43487,48.4282 6.7682,51.0948 5.5,53.5C 5.29379,50.5049 5.96046,47.8383 7.5,45.5 Z"/></g>
<g><path style="opacity:1" fill="#1a1a1a" d="M 130.5,54.5 C 105.5,54.5 80.5,54.5 55.5,54.5C 55.5,79.5 55.5,104.5 55.5,129.5C 54.5023,104.339 54.1689,79.0055 54.5,53.5C 80.0055,53.1689 105.339,53.5023 130.5,54.5 Z"/></g>
<g><path style="opacity:1" fill="#000000" d="M 130.5,54.5 C 130.5,79.5 130.5,104.5 130.5,129.5C 105.5,129.5 80.5,129.5 55.5,129.5C 55.5,104.5 55.5,79.5 55.5,54.5C 80.5,54.5 105.5,54.5 130.5,54.5 Z"/></g>
<g><path style="opacity:1" fill="#868686" d="M 153.5,52.5 C 155.04,54.8383 155.706,57.5049 155.5,60.5C 154.232,58.0948 153.565,55.4282 153.5,52.5 Z"/></g>
<g><path style="opacity:1" fill="#4e4e4e" d="M 179.5,52.5 C 180.309,54.2922 180.809,56.2922 181,58.5C 181.829,79.6707 181.663,100.671 180.5,121.5C 180.746,98.4844 180.412,75.4844 179.5,52.5 Z"/></g>
<g><path style="opacity:1" fill="#686868" d="M 155.5,123.5 C 155.655,126.716 154.655,129.383 152.5,131.5C 153.129,128.603 154.129,125.936 155.5,123.5 Z"/></g>
<g><path style="opacity:1" fill="#7c7c7c" d="M 130.5,152.5 C 128.22,154.223 125.553,154.889 122.5,154.5C 124.961,153.469 127.627,152.802 130.5,152.5 Z"/></g>
</svg>
