<?xml version="1.0" encoding="UTF-8"?>
<svg version="1.1" xmlns="http://www.w3.org/2000/svg" width="500" height="500">
<path d="M0 0 C165 0 330 0 500 0 C500 165 500 330 500 500 C335 500 170 500 0 500 C0 335 0 170 0 0 Z " fill="#FEFEFE" transform="translate(0,0)"/>
<path d="M0 0 C1.02460252 -0.00538554 2.04920505 -0.01077108 3.10485613 -0.01631981 C6.53093399 -0.03060325 9.9566257 -0.02349451 13.38272095 -0.01637268 C15.84202891 -0.02207605 18.30133423 -0.02904018 20.76063538 -0.03717041 C26.74318435 -0.05325736 32.72558218 -0.05520151 38.70813797 -0.04995751 C43.572512 -0.04591148 48.43685502 -0.04736449 53.30122757 -0.05270576 C53.99429631 -0.05345419 54.68736504 -0.05420261 55.40143586 -0.05497371 C56.80954055 -0.05650523 58.21764523 -0.05804358 59.6257499 -0.05958868 C72.82313386 -0.07330848 86.0204585 -0.06787987 99.2178411 -0.05640347 C111.28114665 -0.04647334 123.34429877 -0.0594088 135.40758066 -0.08333766 C147.80522773 -0.10774375 160.20280339 -0.11733272 172.600474 -0.11068493 C179.55638123 -0.10719583 186.51217051 -0.10940414 193.46805954 -0.12693596 C200.00984247 -0.14322 206.5513804 -0.13845277 213.09317207 -0.11963081 C215.49210746 -0.11594399 217.89106452 -0.11905607 220.28997993 -0.1295166 C223.56890137 -0.14272118 226.84685245 -0.13118251 230.12573242 -0.11352539 C231.07137003 -0.1231304 232.01700764 -0.1327354 232.99130094 -0.14263147 C240.80461672 -0.05627136 246.44766257 2.26778837 252.93984985 6.51268005 C259.53378135 13.4063357 261.4352209 20.73846814 261.31803894 30.05859375 C261.32513333 31.08575955 261.33222772 32.11292535 261.33953708 33.17121738 C261.35703753 36.58824299 261.33905197 40.00411914 261.32095337 43.42112732 C261.32609515 45.88087988 261.33337838 48.34062875 261.34263611 50.80036926 C261.3592068 56.77259362 261.35253925 62.74437284 261.33454788 68.71655888 C261.32048798 73.57229256 261.31663633 78.42793742 261.31999016 83.2836895 C261.3204676 83.97635176 261.32094504 84.66901403 261.32143695 85.38266606 C261.32246334 86.79004616 261.3235187 88.19742624 261.32460272 89.6048063 C261.33315807 102.03208947 261.31653206 114.45921463 261.28677368 126.88645935 C261.25793283 138.93079768 261.25085717 150.97490845 261.26626587 163.01927185 C261.28304534 176.15298798 261.28704496 189.28659623 261.26955551 202.42031521 C261.26771123 203.82203892 261.2658765 205.22376264 261.26405144 206.62548637 C261.26313935 207.31506176 261.26222726 208.00463716 261.26128753 208.71510877 C261.25569345 213.5626196 261.2589787 218.41007757 261.26559639 223.25758553 C261.27415696 229.78712266 261.26111099 236.31638122 261.23374748 242.84588242 C261.22686984 245.23997336 261.22675898 247.6340949 261.23396301 250.02818489 C261.24267376 253.30040323 261.22667285 256.57161559 261.20451355 259.84375 C261.21275432 260.78734125 261.22099508 261.7309325 261.22948557 262.70311743 C261.11775524 271.66449853 258.12344158 279.10030632 251.68984985 285.38768005 C246.47178996 288.63725029 241.49511131 290.50557278 235.32124901 290.52469444 C234.44860291 290.52976899 233.57595681 290.53484353 232.67686689 290.54007185 C231.24547012 290.54081848 231.24547012 290.54081848 229.78515625 290.5415802 C228.76790612 290.54596245 227.75065599 290.55034471 226.70258009 290.55485976 C223.28345851 290.56824702 219.86436271 290.57442648 216.44522095 290.58055115 C213.99783207 290.58845216 211.55044435 290.59672112 209.10305786 290.60533142 C201.75126246 290.62928745 194.39947132 290.64447905 187.04765028 290.65739149 C184.97024313 290.66110512 182.89283665 290.66507821 180.81543016 290.66914415 C167.90748988 290.69438224 154.99954848 290.71642939 142.09158897 290.7288723 C139.10302095 290.73180186 136.11445295 290.73476354 133.12588501 290.73777771 C132.38311643 290.73852376 131.64034784 290.73926981 130.87507112 290.74003847 C118.84780296 290.75268696 106.82068279 290.78590465 94.79348378 290.82757954 C82.43775229 290.87004091 70.08209649 290.89357216 57.72629225 290.89879286 C50.79205044 290.90220221 43.85803994 290.91390085 36.92387009 290.9468956 C30.39853727 290.97789464 23.87353381 290.98328942 17.34811401 290.97151184 C14.9560356 290.97129107 12.56393851 290.97959894 10.17192459 290.99716568 C6.89961517 291.01988485 3.62876323 291.01154814 0.35644531 290.99568176 C-0.58443487 291.00956385 -1.52531505 291.02344594 -2.49470675 291.03774869 C-10.02316012 290.94814943 -16.59100745 288.78588959 -22.23137438 283.63224256 C-28.60554379 276.82387298 -29.754883 270.05054208 -29.70455933 261.04629517 C-29.71065043 260.01831466 -29.71674153 258.99033414 -29.72301722 257.93120271 C-29.73963889 254.49364926 -29.73487245 251.05646655 -29.73007202 247.61888123 C-29.73741284 245.15134293 -29.74599911 242.68380807 -29.7557373 240.21627808 C-29.77565387 234.21334706 -29.78133392 228.21056127 -29.77954942 222.20761009 C-29.77824013 217.32608111 -29.78205444 212.44458218 -29.78947449 207.56305885 C-29.79157376 206.15519232 -29.79367136 204.74732578 -29.79576731 203.33945924 C-29.79681084 202.63864755 -29.79785436 201.93783586 -29.79892951 201.21578745 C-29.81781968 187.97021138 -29.81678556 174.72469072 -29.80996019 161.47910676 C-29.80438668 149.3744163 -29.82520403 137.26993762 -29.85832065 125.16529664 C-29.89209412 112.72357199 -29.90722138 100.28194868 -29.90260363 87.84017736 C-29.90036248 80.86017204 -29.90554972 73.8803624 -29.93049622 66.90039635 C-29.95376277 60.33477576 -29.95088222 53.76952142 -29.9305687 47.20386696 C-29.92715917 44.79728478 -29.93224512 42.39067293 -29.94655228 39.98413086 C-29.96476892 36.69224766 -29.95197592 33.40185482 -29.93161011 30.11001587 C-29.94412796 29.16340015 -29.9566458 28.21678443 -29.96954298 27.24148339 C-29.8698662 19.69810309 -27.72055098 13.11985417 -22.55476522 7.46667355 C-15.75553533 1.10035351 -8.99318316 -0.05688821 0 0 Z " fill="#FEFEFE" transform="translate(135.31015014648438,53.61231994628906)"/>
<path d="M0 0 C1.74596214 1.34193134 1.74596214 1.34193134 3.52059937 2.98982239 C8.722997 7.03790559 13.5268541 6.82437561 19.92041016 6.7253418 C21.09212265 6.73115265 22.26383514 6.7369635 23.47105408 6.74295044 C27.32756583 6.75571423 31.18264947 6.72707511 35.0390625 6.69921875 C37.72613357 6.69922421 40.41313938 6.70912246 43.10018921 6.7191925 C49.44299787 6.73802496 55.78540517 6.72908737 62.12819517 6.70787126 C73.48808703 6.67011166 84.84792319 6.66605546 96.20784414 6.69272357 C100.83111268 6.70209155 105.45385288 6.68475932 110.07705688 6.6615448 C112.49749758 6.66129668 114.91793847 6.66169417 117.33837891 6.6628418 C118.98432793 6.64654976 118.98432793 6.64654976 120.66352844 6.62992859 C126.97611001 6.65398451 131.80752946 7.0198553 136.64453125 11.53515625 C139.89695869 15.78833059 141.12090161 17.84093682 141.19287109 23.14892578 C141.21696548 24.76167892 141.21696548 24.76167892 141.24154663 26.40701294 C141.28601981 31.34132287 141.32708591 36.27549726 141.35009766 41.20996094 C141.36663147 43.80933603 141.39388694 46.40866614 141.43212891 49.0078125 C141.48702676 52.75805223 141.50879571 56.50722447 141.5234375 60.2578125 C141.54610687 61.41330597 141.56877625 62.56879944 141.59213257 63.75930786 C141.57631435 69.83165889 141.05262558 74.24214243 137.75894165 79.40499878 C132.02375867 84.60563966 125.34190851 84.43268707 118.03100586 84.39440918 C116.38785479 84.40354584 116.38785479 84.40354584 114.71150875 84.41286707 C111.04584796 84.4294982 107.38053449 84.42472096 103.71484375 84.41992188 C101.08480468 84.42726201 98.45476883 84.43584808 95.82473755 84.44558716 C89.42578765 84.46661433 83.02692841 84.47118363 76.62794805 84.46939927 C71.42650456 84.46809053 66.2250893 84.47190147 61.02365112 84.47932434 C59.52418105 84.48142357 58.02471098 84.48352117 56.5252409 84.48561716 C55.40569124 84.48718245 55.40569124 84.48718245 54.26352441 84.48877937 C40.15677145 84.50767002 26.05007051 84.50663485 11.94331014 84.49981004 C-0.95878429 84.49423265 -13.86068028 84.51507036 -26.76272833 84.54817051 C-40.0169163 84.58190976 -53.27100919 84.59707574 -66.5252409 84.59245348 C-73.96401371 84.59020938 -81.40260301 84.59544347 -88.84133911 84.62034607 C-95.83460144 84.64355858 -102.82744354 84.64077373 -109.82071304 84.62041855 C-112.38819829 84.61700051 -114.95571116 84.62213149 -117.52315903 84.63640213 C-121.02626045 84.6545311 -124.5279478 84.6418906 -128.03100586 84.62145996 C-129.04861527 84.63397781 -130.06622469 84.64649566 -131.11467075 84.65939283 C-137.71628156 84.57676275 -141.06680989 83.45836235 -146 79 C-149.80702454 72.93260024 -149.45185615 66.721057 -149.43359375 59.71484375 C-149.44145653 57.95316612 -149.44145653 57.95316612 -149.44947815 56.15589905 C-149.45588352 53.68068226 -149.45458069 51.20543497 -149.44604492 48.73022461 C-149.43752039 44.94655242 -149.46634343 41.1643832 -149.49804688 37.38085938 C-149.49965869 34.97135462 -149.49908173 32.56184719 -149.49609375 30.15234375 C-149.50732773 29.02408676 -149.51856171 27.89582977 -149.53013611 26.73338318 C-149.47493902 20.50772678 -149.21333767 16.71101015 -145 12 C-140.9066119 8.39392001 -138.61420768 6.8776264 -133.19950867 6.86196899 C-131.67905441 6.85378899 -131.67905441 6.85378899 -130.12788391 6.84544373 C-129.01149033 6.8444014 -127.89509674 6.84335907 -126.74487305 6.84228516 C-125.57243042 6.83720444 -124.39998779 6.83212372 -123.1920166 6.82688904 C-119.97082847 6.81336121 -116.74965393 6.80398694 -113.52844977 6.79547167 C-110.15816508 6.78476091 -106.78792818 6.76617764 -103.41767883 6.74765015 C-91.93319547 6.68571211 -80.44871668 6.63172625 -68.96411133 6.59863281 C-62.62335626 6.5802813 -56.28274138 6.55133817 -49.94208938 6.5106281 C-46.58676605 6.48956541 -43.23161935 6.47410194 -39.87622643 6.47182083 C-36.13171143 6.46692518 -32.38771966 6.44380042 -28.64331055 6.41650391 C-27.53298965 6.41951004 -26.42266876 6.42251617 -25.27870178 6.4256134 C-18.81518129 6.35546366 -15.03708144 5.82762755 -10.1875 1.3125 C-6.84920477 -0.69047714 -3.71150953 -0.884979 0 0 Z " fill="#020202" transform="translate(254,362)"/>
<path d="M0 0 C1.02460252 -0.00538554 2.04920505 -0.01077108 3.10485613 -0.01631981 C6.53093399 -0.03060325 9.9566257 -0.02349451 13.38272095 -0.01637268 C15.84202891 -0.02207605 18.30133423 -0.02904018 20.76063538 -0.03717041 C26.74318435 -0.05325736 32.72558218 -0.05520151 38.70813797 -0.04995751 C43.572512 -0.04591148 48.43685502 -0.04736449 53.30122757 -0.05270576 C53.99429631 -0.05345419 54.68736504 -0.05420261 55.40143586 -0.05497371 C56.80954055 -0.05650523 58.21764523 -0.05804358 59.6257499 -0.05958868 C72.82313386 -0.07330848 86.0204585 -0.06787987 99.2178411 -0.05640347 C111.28114665 -0.04647334 123.34429877 -0.0594088 135.40758066 -0.08333766 C147.80522773 -0.10774375 160.20280339 -0.11733272 172.600474 -0.11068493 C179.55638123 -0.10719583 186.51217051 -0.10940414 193.46805954 -0.12693596 C200.00984247 -0.14322 206.5513804 -0.13845277 213.09317207 -0.11963081 C215.49210746 -0.11594399 217.89106452 -0.11905607 220.28997993 -0.1295166 C223.56890137 -0.14272118 226.84685245 -0.13118251 230.12573242 -0.11352539 C231.07137003 -0.1231304 232.01700764 -0.1327354 232.99130094 -0.14263147 C240.80461672 -0.05627136 246.44766257 2.26778837 252.93984985 6.51268005 C259.53378135 13.4063357 261.4352209 20.73846814 261.31803894 30.05859375 C261.32513333 31.08575955 261.33222772 32.11292535 261.33953708 33.17121738 C261.35703753 36.58824299 261.33905197 40.00411914 261.32095337 43.42112732 C261.32609515 45.88087988 261.33337838 48.34062875 261.34263611 50.80036926 C261.3592068 56.77259362 261.35253925 62.74437284 261.33454788 68.71655888 C261.32048798 73.57229256 261.31663633 78.42793742 261.31999016 83.2836895 C261.3204676 83.97635176 261.32094504 84.66901403 261.32143695 85.38266606 C261.32246334 86.79004616 261.3235187 88.19742624 261.32460272 89.6048063 C261.33315807 102.03208947 261.31653206 114.45921463 261.28677368 126.88645935 C261.25793283 138.93079768 261.25085717 150.97490845 261.26626587 163.01927185 C261.28304534 176.15298798 261.28704496 189.28659623 261.26955551 202.42031521 C261.26771123 203.82203892 261.2658765 205.22376264 261.26405144 206.62548637 C261.26313935 207.31506176 261.26222726 208.00463716 261.26128753 208.71510877 C261.25569345 213.5626196 261.2589787 218.41007757 261.26559639 223.25758553 C261.27415696 229.78712266 261.26111099 236.31638122 261.23374748 242.84588242 C261.22686984 245.23997336 261.22675898 247.6340949 261.23396301 250.02818489 C261.24267376 253.30040323 261.22667285 256.57161559 261.20451355 259.84375 C261.21275432 260.78734125 261.22099508 261.7309325 261.22948557 262.70311743 C261.11775524 271.66449853 258.12344158 279.10030632 251.68984985 285.38768005 C246.47178996 288.63725029 241.49511131 290.50557278 235.32124901 290.52469444 C234.44860291 290.52976899 233.57595681 290.53484353 232.67686689 290.54007185 C231.24547012 290.54081848 231.24547012 290.54081848 229.78515625 290.5415802 C228.76790612 290.54596245 227.75065599 290.55034471 226.70258009 290.55485976 C223.28345851 290.56824702 219.86436271 290.57442648 216.44522095 290.58055115 C213.99783207 290.58845216 211.55044435 290.59672112 209.10305786 290.60533142 C201.75126246 290.62928745 194.39947132 290.64447905 187.04765028 290.65739149 C184.97024313 290.66110512 182.89283665 290.66507821 180.81543016 290.66914415 C167.90748988 290.69438224 154.99954848 290.71642939 142.09158897 290.7288723 C139.10302095 290.73180186 136.11445295 290.73476354 133.12588501 290.73777771 C132.38311643 290.73852376 131.64034784 290.73926981 130.87507112 290.74003847 C118.84780296 290.75268696 106.82068279 290.78590465 94.79348378 290.82757954 C82.43775229 290.87004091 70.08209649 290.89357216 57.72629225 290.89879286 C50.79205044 290.90220221 43.85803994 290.91390085 36.92387009 290.9468956 C30.39853727 290.97789464 23.87353381 290.98328942 17.34811401 290.97151184 C14.9560356 290.97129107 12.56393851 290.97959894 10.17192459 290.99716568 C6.89961517 291.01988485 3.62876323 291.01154814 0.35644531 290.99568176 C-0.58443487 291.00956385 -1.52531505 291.02344594 -2.49470675 291.03774869 C-10.02316012 290.94814943 -16.59100745 288.78588959 -22.23137438 283.63224256 C-28.60554379 276.82387298 -29.754883 270.05054208 -29.70455933 261.04629517 C-29.71065043 260.01831466 -29.71674153 258.99033414 -29.72301722 257.93120271 C-29.73963889 254.49364926 -29.73487245 251.05646655 -29.73007202 247.61888123 C-29.73741284 245.15134293 -29.74599911 242.68380807 -29.7557373 240.21627808 C-29.77565387 234.21334706 -29.78133392 228.21056127 -29.77954942 222.20761009 C-29.77824013 217.32608111 -29.78205444 212.44458218 -29.78947449 207.56305885 C-29.79157376 206.15519232 -29.79367136 204.74732578 -29.79576731 203.33945924 C-29.79681084 202.63864755 -29.79785436 201.93783586 -29.79892951 201.21578745 C-29.81781968 187.97021138 -29.81678556 174.72469072 -29.80996019 161.47910676 C-29.80438668 149.3744163 -29.82520403 137.26993762 -29.85832065 125.16529664 C-29.89209412 112.72357199 -29.90722138 100.28194868 -29.90260363 87.84017736 C-29.90036248 80.86017204 -29.90554972 73.8803624 -29.93049622 66.90039635 C-29.95376277 60.33477576 -29.95088222 53.76952142 -29.9305687 47.20386696 C-29.92715917 44.79728478 -29.93224512 42.39067293 -29.94655228 39.98413086 C-29.96476892 36.69224766 -29.95197592 33.40185482 -29.93161011 30.11001587 C-29.94412796 29.16340015 -29.9566458 28.21678443 -29.96954298 27.24148339 C-29.8698662 19.69810309 -27.72055098 13.11985417 -22.55476522 7.46667355 C-15.75553533 1.10035351 -8.99318316 -0.05688821 0 0 Z M-9.31015015 22.38768005 C-9.76082614 24.26148237 -9.76082614 24.26148237 -9.68488026 26.45165157 C-9.6920868 27.30721549 -9.69929334 28.16277941 -9.70671827 29.0442695 C-9.69934398 29.98967979 -9.6919697 30.93509008 -9.68437195 31.90914917 C-9.68834635 32.90921165 -9.69232076 33.90927413 -9.6964156 34.93964154 C-9.70608965 38.31235545 -9.69418955 41.68465522 -9.6824646 45.05735779 C-9.68489089 47.46654925 -9.68860863 49.87573971 -9.69352722 52.28492737 C-9.70198128 58.16253597 -9.69640088 64.04003299 -9.68426428 69.91762596 C-9.67066417 76.75806188 -9.6722804 83.59846842 -9.67439761 90.43891443 C-9.67758996 102.64232048 -9.66590621 114.84566824 -9.64633179 127.04905701 C-9.62733076 138.89803341 -9.62024284 150.74694146 -9.62582397 162.59593201 C-9.63187868 175.48852594 -9.63171005 188.38108979 -9.62033814 201.27368122 C-9.61913082 202.64789871 -9.61792483 204.0221162 -9.6167202 205.39633369 C-9.61611666 206.0725286 -9.61551312 206.7487235 -9.61489129 207.44540916 C-9.6110079 212.21648266 -9.61140742 216.98754499 -9.61330605 221.75861931 C-9.615647 228.17797221 -9.6071155 234.59725603 -9.59124565 241.01659012 C-9.58699054 243.37772444 -9.58616043 245.73886768 -9.58893585 248.1000042 C-9.59214069 251.31317641 -9.58311868 254.52608246 -9.57084656 257.73922729 C-9.57462588 258.68240686 -9.57840521 259.62558643 -9.58229905 260.5973472 C-9.57646686 261.45551886 -9.57063467 262.31369053 -9.56462574 263.19786739 C-9.56375896 263.93989593 -9.56289219 264.68192448 -9.56199914 265.44643873 C-9.41380829 267.7121532 -9.41380829 267.7121532 -7.31015015 270.38768005 C-5.43643263 270.83950387 -5.43643263 270.83950387 -3.24617863 270.76520348 C-2.39061471 270.77302672 -1.53505079 270.78084996 -0.6535607 270.78891027 C0.29184959 270.7822181 1.23725988 270.77552594 2.21131897 270.76863098 C3.21138145 270.77331095 4.21144393 270.77799093 5.24181134 270.78281271 C8.61451577 270.79484037 11.98681968 270.7852751 15.35952759 270.77586365 C17.76871988 270.77992592 20.1779103 270.78526585 22.58709717 270.79179382 C28.46469937 270.80408787 34.34219642 270.80224056 40.21979576 270.7935559 C44.99566692 270.78679037 49.77150587 270.78585772 54.54738045 270.78912735 C55.2262068 270.78958705 55.90503316 270.79004675 56.60443001 270.79052038 C57.98331476 270.79147952 59.3621995 270.79245216 60.74108423 270.79343815 C73.68265412 270.80200062 86.62416034 270.79214485 99.56571979 270.77603705 C110.67654571 270.7626361 121.78727759 270.76495844 132.89810181 270.77879333 C145.79070064 270.79483926 158.6832436 270.80117338 171.57585102 270.79195654 C172.9500685 270.79100087 174.324286 270.79005776 175.69850349 270.78912735 C176.71279585 270.78843311 176.71279585 270.78843311 177.74757896 270.78772485 C182.51866262 270.78513176 187.28971092 270.78951286 192.06078911 270.79656601 C198.48016335 270.80584693 204.89940153 270.79926155 211.31875992 270.78188324 C213.67989493 270.77790424 216.04104484 270.77907643 218.402174 270.78567123 C221.61545326 270.79382105 224.82815502 270.78364451 228.04139709 270.76863098 C228.98457666 270.77532315 229.92775623 270.78201531 230.899517 270.78891027 C231.75768866 270.78108703 232.61586033 270.77326379 233.50003719 270.76520348 C234.24206573 270.76471642 234.98409428 270.76422936 235.74860853 270.76372755 C238.29975677 270.26953196 239.17148457 269.47812313 240.68984985 267.38768005 C241.13687632 265.41622339 241.13687632 265.41622339 241.06737328 263.21627808 C241.07519652 262.36220651 241.08301976 261.50813494 241.09108007 260.62818241 C241.0843879 259.68957591 241.07769574 258.75096941 241.07080078 257.78392029 C241.07782074 256.28867026 241.07782074 256.28867026 241.08498251 254.76321316 C241.096993 251.40743322 241.08745154 248.05205711 241.07803345 244.6962738 C241.08209645 242.2967861 241.0874368 239.89730026 241.09396362 237.49781799 C241.10624976 231.64775828 241.10441465 225.79780428 241.0957257 219.94774747 C241.08895715 215.19430674 241.08802883 210.44089838 241.09129715 205.68745422 C241.0919867 204.67358097 241.0919867 204.67358097 241.09269018 203.63922542 C241.09364933 202.26621921 241.09462197 200.893213 241.09560795 199.52020681 C241.10416751 186.638244 241.09431886 173.75634518 241.07820685 160.87439287 C241.06480314 149.81531331 241.06713107 138.75632822 241.08096313 127.69725037 C241.09700898 114.86214294 241.10334349 102.02709164 241.09412634 89.19197559 C241.09317067 87.82395237 241.09222756 86.45592913 241.09129715 85.08790588 C241.09083432 84.41477008 241.0903715 83.74163427 241.08989464 83.04810041 C241.08730176 78.29904647 241.09168216 73.55002805 241.09873581 68.80097961 C241.10801645 62.41196058 241.10143175 56.02307827 241.08405304 49.63407516 C241.08007409 47.28422722 241.08124614 44.9343643 241.08784103 42.58452225 C241.09599096 39.38662222 241.08581423 36.18930247 241.07080078 32.99143982 C241.08083903 31.58353007 241.08083903 31.58353007 241.09108007 30.1471777 C241.08325683 29.29310613 241.07543359 28.43903456 241.06737328 27.55908203 C241.06688622 26.82063333 241.06639916 26.08218462 241.06589735 25.32135868 C240.570816 22.77559457 239.7755448 21.90376855 237.68984985 20.38768005 C235.71831601 19.94177321 235.71831601 19.94177321 233.51844788 20.01294994 C232.66437631 20.0057434 231.81030474 19.99853686 230.93035221 19.99111193 C229.99174571 19.99848622 229.05313921 20.0058605 228.08609009 20.01345825 C227.08925673 20.00948385 226.09242338 20.00550944 225.06538296 20.0014146 C221.70959345 19.99175437 218.3542216 20.00363238 214.9984436 20.0153656 C212.59895673 20.01293887 210.19947086 20.00922071 207.79998779 20.00430298 C201.94992164 19.99585436 196.09996768 20.00142332 190.24991727 20.01356592 C183.4407306 20.02717386 176.63157342 20.02554913 169.82237661 20.02343259 C157.67498559 20.02024128 145.52765318 20.03191855 133.38027954 20.05149841 C121.58664159 20.07050318 109.79307233 20.07758614 97.99942017 20.07200623 C85.16431766 20.06595155 72.32924538 20.06611978 59.49414539 20.07749206 C58.12612216 20.07869938 56.75809892 20.07990536 55.39007568 20.08111 C54.38037198 20.08201531 54.38037198 20.08201531 53.35027021 20.08293891 C48.60122648 20.086822 43.85219397 20.08642292 39.10314941 20.08452415 C32.71415183 20.08218327 26.32522365 20.09071433 19.93624496 20.10658455 C17.58639772 20.1108396 15.23654151 20.1116698 12.88669205 20.10889435 C9.68889959 20.10568947 6.49137457 20.11471158 3.29360962 20.12698364 C2.35500312 20.12320432 1.41639662 20.119425 0.4493475 20.11553115 C-0.40472407 20.12136334 -1.25879564 20.12719553 -2.13874817 20.13320446 C-2.87719687 20.13407124 -3.61564558 20.13493801 -4.37647152 20.13583106 C-6.63562464 20.28501259 -6.63562464 20.28501259 -9.31015015 22.38768005 Z " fill="#000000" transform="translate(135.31015014648438,53.61231994628906)"/>
<path d="M0 0 C3.3 0 6.6 0 10 0 C10 9.57 10 19.14 10 29 C12.97 29 15.94 29 19 29 C19 25.7 19 22.4 19 19 C25.93359375 18.90234375 25.93359375 18.90234375 28 19 C29 20 29 20 29.09765625 22.06640625 C29.06510417 24.37760417 29.03255208 26.68880208 29 29 C31.97 29 34.94 29 38 29 C38 25.7 38 22.4 38 19 C35.03 19 32.06 19 29 19 C29 16.03 29 13.06 29 10 C31.97 10 34.94 10 38 10 C38 6.7 38 3.4 38 0 C41.3 0 44.6 0 48 0 C48 12.54 48 25.08 48 38 C41.73 38 35.46 38 29 38 C29 41.3 29 44.6 29 48 C22.73 48 16.46 48 10 48 C10 50.97 10 53.94 10 57 C6.7 57 3.4 57 0 57 C0 60.3 0 63.6 0 67 C3.3 67 6.6 67 10 67 C10 69.97 10 72.94 10 76 C12.97 76 15.94 76 19 76 C19 69.73 19 63.46 19 57 C22.3 57 25.6 57 29 57 C29 60.3 29 63.6 29 67 C31.97 67 34.94 67 38 67 C38 63.7 38 60.4 38 57 C44.27 57 50.54 57 57 57 C57 50.73 57 44.46 57 38 C66.57 38 76.14 38 86 38 C86 41.3 86 44.6 86 48 C90.455 47.505 90.455 47.505 95 47 C95.33 44.03 95.66 41.06 96 38 C102.27 38 108.54 38 115 38 C115 41.3 115 44.6 115 48 C117.97 48 120.94 48 124 48 C124 54.27 124 60.54 124 67 C121.03 67 118.06 67 115 67 C115 69.97 115 72.94 115 76 C117.97 76 120.94 76 124 76 C124 82.27 124 88.54 124 95 C119.545 95.495 119.545 95.495 115 96 C114.67 98.97 114.34 101.94 114 105 C111.03 105 108.06 105 105 105 C105 92.46 105 79.92 105 67 C101.7 67 98.4 67 95 67 C95 79.54 95 92.08 95 105 C79.49 105 63.98 105 48 105 C48 107.97 48 110.94 48 114 C50.97 114 53.94 114 57 114 C57 117.3 57 120.6 57 124 C54.03 124 51.06 124 48 124 C48 121.03 48 118.06 48 115 C44.7 115 41.4 115 38 115 C38 117.97 38 120.94 38 124 C35.03 124 32.06 124 29 124 C29 121.03 29 118.06 29 115 C26.03 115 23.06 115 20 115 C20 120.94 20 126.88 20 133 C22.64 133 25.28 133 28 133 C29 134 29 134 29.09765625 136.06640625 C29.06510417 138.37760417 29.03255208 140.68880208 29 143 C25.7 143 22.4 143 19 143 C19 140.03 19 137.06 19 134 C17.71222656 134.01160156 16.42445313 134.02320313 15.09765625 134.03515625 C13.41927228 134.0445327 11.74088674 134.05363305 10.0625 134.0625 C9.21236328 134.07087891 8.36222656 134.07925781 7.48632812 134.08789062 C6.67744141 134.09111328 5.86855469 134.09433594 5.03515625 134.09765625 C4.2862915 134.10289307 3.53742676 134.10812988 2.76586914 134.11352539 C1 134 1 134 0 133 C-0.14193337 129.99668982 -0.04236378 127.00782866 0 124 C2.97 124 5.94 124 9 124 C9 120.7 9 117.4 9 114 C12.3 114 15.6 114 19 114 C19 111.03 19 108.06 19 105 C12.73 105 6.46 105 0 105 C0 98.73 0 92.46 0 86 C-9.57 86 -19.14 86 -29 86 C-29 77 -29 77 -28 76 C-26.58429877 75.91348389 -25.164405 75.89295096 -23.74609375 75.90234375 C-22.46508789 75.90717773 -22.46508789 75.90717773 -21.15820312 75.91210938 C-20.26037109 75.92048828 -19.36253906 75.92886719 -18.4375 75.9375 C-17.53580078 75.94201172 -16.63410156 75.94652344 -15.70507812 75.95117188 C-13.47002411 75.96299756 -11.23500398 75.98093362 -9 76 C-9 73.03 -9 70.06 -9 67 C-18.57 67 -28.14 67 -38 67 C-38 69.97 -38 72.94 -38 76 C-44.27 76 -50.54 76 -57 76 C-57 79.3 -57 82.6 -57 86 C-59.97 86 -62.94 86 -66 86 C-66 79.73 -66 73.46 -66 67 C-69.3 67 -72.6 67 -76 67 C-76 57.43 -76 47.86 -76 38 C-69.73 38 -63.46 38 -57 38 C-57 41.3 -57 44.6 -57 48 C-59.97 48 -62.94 48 -66 48 C-66 50.97 -66 53.94 -66 57 C-59.73 57 -53.46 57 -47 57 C-47 50.73 -47 44.46 -47 38 C-44.03 38 -41.06 38 -38 38 C-38 41.3 -38 44.6 -38 48 C-31.73 48 -25.46 48 -19 48 C-19 44.7 -19 41.4 -19 38 C-12.73 38 -6.46 38 0 38 C0 25.46 0 12.92 0 0 Z " fill="#828282" transform="translate(227,137)"/>
<path d="M0 0 C9.57 0 19.14 0 29 0 C29 3.3 29 6.6 29 10 C33.455 9.505 33.455 9.505 38 9 C38.33 6.03 38.66 3.06 39 0 C45.27 0 51.54 0 58 0 C58 3.3 58 6.6 58 10 C60.97 10 63.94 10 67 10 C67 16.27 67 22.54 67 29 C64.03 29 61.06 29 58 29 C58 31.97 58 34.94 58 38 C60.97 38 63.94 38 67 38 C67 44.27 67 50.54 67 57 C62.545 57.495 62.545 57.495 58 58 C57.67 60.97 57.34 63.94 57 67 C54.03 67 51.06 67 48 67 C48 54.46 48 41.92 48 29 C44.7 29 41.4 29 38 29 C38 41.54 38 54.08 38 67 C16.22 67 -5.56 67 -28 67 C-28 63.7 -28 60.4 -28 57 C-25.03 57 -22.06 57 -19 57 C-19 54.03 -19 51.06 -19 48 C-21.97 48 -24.94 48 -28 48 C-28 44.7 -28 41.4 -28 38 C-25.03 38 -22.06 38 -19 38 C-19 31.73 -19 25.46 -19 19 C-12.73 19 -6.46 19 0 19 C0 12.73 0 6.46 0 0 Z " fill="#838383" transform="translate(284,175)"/>
<path d="M0 0 C22.11 0 44.22 0 67 0 C67 22.11 67 44.22 67 67 C44.89 67 22.78 67 0 67 C0 44.89 0 22.78 0 0 Z " fill="#FAFAFA" transform="translate(151,232)"/>
<path d="M0 0 C22.11 0 44.22 0 67 0 C67 22.11 67 44.22 67 67 C44.89 67 22.78 67 0 67 C0 44.89 0 22.78 0 0 Z " fill="#FAFAFA" transform="translate(284,99)"/>
<path d="M0 0 C22.11 0 44.22 0 67 0 C67 22.11 67 44.22 67 67 C44.89 67 22.78 67 0 67 C0 44.89 0 22.78 0 0 Z " fill="#FAFAFA" transform="translate(151,99)"/>
<path d="M0 0 C22.11 0 44.22 0 67 0 C67 22.11 67 44.22 67 67 C44.89 67 22.78 67 0 67 C0 44.89 0 22.78 0 0 Z M9 10 C9 25.51 9 41.02 9 57 C24.84 57 40.68 57 57 57 C57 41.49 57 25.98 57 10 C41.16 10 25.32 10 9 10 Z " fill="#848484" transform="translate(151,232)"/>
<path d="M0 0 C22.11 0 44.22 0 67 0 C67 22.11 67 44.22 67 67 C44.89 67 22.78 67 0 67 C0 44.89 0 22.78 0 0 Z M10 10 C10 25.51 10 41.02 10 57 C25.84 57 41.68 57 58 57 C58 41.49 58 25.98 58 10 C42.16 10 26.32 10 10 10 Z " fill="#848484" transform="translate(284,99)"/>
<path d="M0 0 C22.11 0 44.22 0 67 0 C67 22.11 67 44.22 67 67 C44.89 67 22.78 67 0 67 C0 44.89 0 22.78 0 0 Z M10 9 C10 24.84 10 40.68 10 57 C25.51 57 41.02 57 57 57 C57 41.16 57 25.32 57 9 C41.49 9 25.98 9 10 9 Z " fill="#848484" transform="translate(151,99)"/>
<path d="M0 0 C3.3 0 6.6 0 10 0 C10 9.57 10 19.14 10 29 C12.97 29 15.94 29 19 29 C19 25.7 19 22.4 19 19 C25.93359375 18.90234375 25.93359375 18.90234375 28 19 C29 20 29 20 29.09765625 22.06640625 C29.06510417 24.37760417 29.03255208 26.68880208 29 29 C31.97 29 34.94 29 38 29 C38 25.7 38 22.4 38 19 C35.03 19 32.06 19 29 19 C29 16.03 29 13.06 29 10 C31.97 10 34.94 10 38 10 C38 6.7 38 3.4 38 0 C41.3 0 44.6 0 48 0 C48 12.54 48 25.08 48 38 C41.73 38 35.46 38 29 38 C29 41.3 29 44.6 29 48 C19.43 48 9.86 48 0 48 C0 45.03 0 42.06 0 39 C-5.94 39 -11.88 39 -18 39 C-18 41.64 -18 44.28 -18 47 C-15.03 47 -12.06 47 -9 47 C-9 50.3 -9 53.6 -9 57 C-12.3 57 -15.6 57 -19 57 C-19 50.73 -19 44.46 -19 38 C-12.73 38 -6.46 38 0 38 C0 25.46 0 12.92 0 0 Z " fill="#848484" transform="translate(227,137)"/>
<path d="M0 0 C3.63 0 7.26 0 11 0 C12.50640038 3.60161201 14.00534134 7.20601881 15.5 10.8125 C16.14388672 12.34874023 16.14388672 12.34874023 16.80078125 13.91601562 C17.40986328 15.39038086 17.40986328 15.39038086 18.03125 16.89453125 C18.40830078 17.80050049 18.78535156 18.70646973 19.17382812 19.63989258 C20 22 20 22 20 25 C20.66 25 21.32 25 22 25 C22.12689209 24.27530518 22.25378418 23.55061035 22.38452148 22.80395508 C22.98109622 20.08612055 23.80140772 17.71082227 24.84765625 15.13671875 C25.20537109 14.25048828 25.56308594 13.36425781 25.93164062 12.45117188 C26.30482422 11.53916016 26.67800781 10.62714844 27.0625 9.6875 C27.43955078 8.75615234 27.81660156 7.82480469 28.20507812 6.86523438 C29.13281967 4.57523942 30.06588811 2.28740382 31 0 C34.63 0 38.26 0 42 0 C42 12.21 42 24.42 42 37 C39.03 37 36.06 37 33 37 C32.67 30.73 32.34 24.46 32 18 C29.69 24.27 27.38 30.54 25 37 C22.36 37 19.72 37 17 37 C14.69 30.73 12.38 24.46 10 18 C9.67 24.27 9.34 30.54 9 37 C6.03 37 3.06 37 0 37 C0 24.79 0 12.58 0 0 Z " fill="#F3F3F3" transform="translate(295,390)"/>
<path d="M0 0 C5.94 0 11.88 0 18 0 C18 2.97 18 5.94 18 9 C24.6 9 31.2 9 38 9 C38 12.3 38 15.6 38 19 C40.97 19 43.94 19 47 19 C47 21.97 47 24.94 47 28 C34.46 28 21.92 28 9 28 C9 31.3 9 34.6 9 38 C2.73 38 -3.54 38 -10 38 C-10 34.7 -10 31.4 -10 28 C-7.03 28 -4.06 28 -1 28 C-1 25.03 -1 22.06 -1 19 C2.3 19 5.6 19 9 19 C9 15.7 9 12.4 9 9 C6.03 9 3.06 9 0 9 C0 6.03 0 3.06 0 0 Z " fill="#FCFCFC" transform="translate(266,204)"/>
<path d="M0 0 C9 0 9 0 11.30688477 1.92773438 C12.1159729 3.24741211 12.1159729 3.24741211 12.94140625 4.59375 C13.54404297 5.54121094 14.14667969 6.48867188 14.76757812 7.46484375 C15.35990234 8.46644531 15.95222656 9.46804688 16.5625 10.5 C17.18962891 11.50160156 17.81675781 12.50320313 18.46289062 13.53515625 C20.00404663 16.00571168 21.50593623 18.50068421 23 21 C23.33 14.07 23.66 7.14 24 0 C26.97 0 29.94 0 33 0 C33 12.21 33 24.42 33 37 C24 37 24 37 21.58203125 34.9453125 C20.70611328 33.54925781 20.70611328 33.54925781 19.8125 32.125 C19.16925781 31.13113281 18.52601563 30.13726562 17.86328125 29.11328125 C16.94095703 27.57220703 16.94095703 27.57220703 16 26 C15.09314453 24.53626953 15.09314453 24.53626953 14.16796875 23.04296875 C12.74588366 20.71501213 11.36814966 18.36005816 10 16 C9.67 22.93 9.34 29.86 9 37 C6.03 37 3.06 37 0 37 C0 24.79 0 12.58 0 0 Z " fill="#F6F6F6" transform="translate(245,390)"/>
<path d="M0 0 C9.24 0 18.48 0 28 0 C28 9.24 28 18.48 28 28 C18.76 28 9.52 28 0 28 C0 18.76 0 9.52 0 0 Z " fill="#808080" transform="translate(170,252)"/>
<path d="M0 0 C9.24 0 18.48 0 28 0 C28 9.24 28 18.48 28 28 C18.76 28 9.52 28 0 28 C0 18.76 0 9.52 0 0 Z " fill="#808080" transform="translate(304,118)"/>
<path d="M0 0 C9.24 0 18.48 0 28 0 C28 9.24 28 18.48 28 28 C18.76 28 9.52 28 0 28 C0 18.76 0 9.52 0 0 Z " fill="#808080" transform="translate(170,118)"/>
<path d="M0 0 C2.97 0 5.94 0 9 0 C9 3.3 9 6.6 9 10 C15.27 10 21.54 10 28 10 C28 12.97 28 15.94 28 19 C21.73 19 15.46 19 9 19 C9 21.97 9 24.94 9 28 C6.03 28.33 3.06 28.66 0 29 C-0.33 31.97 -0.66 34.94 -1 38 C-6.94 38 -12.88 38 -19 38 C-19 35.03 -19 32.06 -19 29 C-16.03 29 -13.06 29 -10 29 C-10 22.73 -10 16.46 -10 10 C-5.545 9.505 -5.545 9.505 -1 9 C-0.67 6.03 -0.34 3.06 0 0 Z " fill="#808080" transform="translate(304,261)"/>
<path d="M0 0 C3.3 0 6.6 0 10 0 C13.60587515 9.12137057 17.15607485 18.25608303 20.4375 27.5 C20.69611816 28.2230835 20.95473633 28.94616699 21.22119141 29.69116211 C23 34.75387814 23 34.75387814 23 37 C20.03 37 17.06 37 14 37 C13.34 35.02 12.68 33.04 12 31 C7.05 31 2.1 31 -3 31 C-3.33 32.98 -3.66 34.96 -4 37 C-6.97 37 -9.94 37 -13 37 C-12.34251765 31.91653889 -10.87063628 27.410598 -9.125 22.625 C-8.86847656 21.90828125 -8.61195313 21.1915625 -8.34765625 20.453125 C-7.57380924 18.29879714 -6.78925367 16.14872782 -6 14 C-5.73437256 13.27458008 -5.46874512 12.54916016 -5.19506836 11.80175781 C-3.68687394 7.72423809 -2.02177713 3.85100405 0 0 Z " fill="#F4F4F4" transform="translate(218,390)"/>
<path d="M0 0 C3.51183484 2.47424727 6.42236069 5.30572236 8.75 8.9375 C8.75 9.9275 8.75 10.9175 8.75 11.9375 C5.3861302 12.16860556 2.10710903 12.29870793 -1.25 11.9375 C-3.5 9.9375 -3.5 9.9375 -5.25 7.9375 C-9.24656562 7.1722002 -10.73948071 7.59345439 -14.125 9.875 C-16.61997333 13.47069685 -16.93576604 15.49443797 -16.6640625 19.77734375 C-16.01254389 23.17630404 -14.9505597 24.79090127 -12.25 26.9375 C-8.79271642 27.68761367 -8.79271642 27.68761367 -5.25 26.9375 C-4.46625 26.2775 -3.6825 25.6175 -2.875 24.9375 C0.88480097 22.07288974 4.18182901 22.57921208 8.75 22.9375 C8.2438686 27.36614971 6.90110054 29.78639946 3.75 32.9375 C-1.99221401 36.33595319 -7.65889975 36.92237705 -14.25 35.9375 C-18.92378727 34.25493658 -22.19422559 31.64056078 -24.75 27.375 C-26.99990147 22.08170503 -27.02885203 16.57225599 -26.25 10.9375 C-23.93026575 6.03036985 -20.53223069 3.1263952 -16.25 -0.0625 C-10.88620867 -1.85043044 -5.36227662 -1.75305197 0 0 Z " fill="#F5F5F5" transform="translate(192.25,391.0625)"/>
<path d="M0 0 C3.91075925 1.98968453 5.57689098 3.36533646 8 7 C8 8.32 8 9.64 8 11 C4.7 11 1.4 11 -2 11 C-2 10.01 -2 9.02 -2 8 C-3.98 8 -5.96 8 -8 8 C-7.95711504 10.43633288 -7.95711504 10.43633288 -7 13 C-4.38291226 14.52098217 -4.38291226 14.52098217 -1.1875 15.5 C3.67675422 17.15894175 6.16626455 18.64506689 9 23 C9.67907735 26.98957946 9.17886254 28.66782671 7.25 32.25 C4.42010586 35.7087595 2.63107749 36.80463417 -1.8046875 37.3359375 C-6.60116969 37.39696145 -10.17463271 37.35576176 -14.625 35.4375 C-17.52486881 32.46131885 -18.22332873 30.03869062 -19 26 C-15.7 26 -12.4 26 -9 26 C-8.67 27.32 -8.34 28.64 -8 30 C-6.02 29.67 -4.04 29.34 -2 29 C-2.08512977 26.54319987 -2.08512977 26.54319987 -3 24 C-5.36193265 22.73632351 -5.36193265 22.73632351 -8.25 22.0625 C-13.67898923 20.29754901 -16.15798847 18.99802028 -19 14 C-19.625 10.4375 -19.625 10.4375 -19 7 C-13.39149646 0.17884705 -8.50226374 -1.00812556 0 0 Z " fill="#F3F3F3" transform="translate(153,390)"/>
<path d="M0 0 C3.609375 -0.020625 7.21875 -0.04125 10.9375 -0.0625 C12.07695068 -0.071604 13.21640137 -0.08070801 14.39038086 -0.09008789 C15.28120361 -0.09258545 16.17202637 -0.09508301 17.08984375 -0.09765625 C18.46450806 -0.10551147 18.46450806 -0.10551147 19.86694336 -0.11352539 C22 0 22 0 23 1 C23 3.31 23 5.62 23 8 C18.38 8 13.76 8 9 8 C9 10.31 9 12.62 9 15 C12.96 15 16.92 15 21 15 C21 17.31 21 19.62 21 22 C17.04 22 13.08 22 9 22 C9 24.64 9 27.28 9 30 C13.29 30 17.58 30 22 30 C22 32.31 22 34.62 22 37 C14.74 37 7.48 37 0 37 C0 24.79 0 12.58 0 0 Z " fill="#F5F5F5" transform="translate(343,390)"/>
<path d="M0 0 C2.97 0 5.94 0 9 0 C9 12.54 9 25.08 9 38 C6.03 38 3.06 38 0 38 C-0.33 35.03 -0.66 32.06 -1 29 C-3.97 28.67 -6.94 28.34 -10 28 C-10 21.73 -10 15.46 -10 9 C-6.7 9 -3.4 9 0 9 C0 6.03 0 3.06 0 0 Z " fill="#828282" transform="translate(237,99)"/>
<path d="M0 0 C2.97 0 5.94 0 9 0 C9 3.3 9 6.6 9 10 C12.3 10 15.6 10 19 10 C19 15.94 19 21.88 19 28 C16.03 28.33 13.06 28.66 10 29 C9.67 31.97 9.34 34.94 9 38 C6.03 38 3.06 38 0 38 C0 25.46 0 12.92 0 0 Z " fill="#808080" transform="translate(332,204)"/>
<path d="M0 0 C3.3 0 6.6 0 10 0 C10 2.97 10 5.94 10 9 C11.28777344 8.98839844 12.57554687 8.97679687 13.90234375 8.96484375 C15.58072772 8.9554673 17.25911326 8.94636695 18.9375 8.9375 C20.21270508 8.92493164 20.21270508 8.92493164 21.51367188 8.91210938 C22.32255859 8.90888672 23.13144531 8.90566406 23.96484375 8.90234375 C24.7137085 8.89710693 25.46257324 8.89187012 26.23413086 8.88647461 C28 9 28 9 29 10 C29 12.97 29 15.94 29 19 C19.43 19 9.86 19 0 19 C0 12.73 0 6.46 0 0 Z " fill="#868686" transform="translate(227,280)"/>
<path d="M0 0 C2.97 0 5.94 0 9 0 C9 2.97 9 5.94 9 9 C12.3 9 15.6 9 19 9 C19 15.27 19 21.54 19 28 C16.03 28 13.06 28 10 28 C9.67 25.03 9.34 22.06 9 19 C6.03 18.67 3.06 18.34 0 18 C0 12.06 0 6.12 0 0 Z " fill="#808080" transform="translate(332,252)"/>
<path d="M0 0 C1.16781006 0.00523682 2.33562012 0.01047363 3.53881836 0.01586914 C4.79887695 0.0190918 6.05893555 0.02231445 7.35717773 0.02563477 C8.6976732 0.03399136 10.03816799 0.04245632 11.37866211 0.05102539 C12.72306153 0.05603879 14.06746271 0.06060197 15.41186523 0.06469727 C18.71334151 0.07653051 22.01473014 0.09301568 25.31616211 0.11352539 C25.31616211 3.41352539 25.31616211 6.71352539 25.31616211 10.11352539 C15.74616211 10.11352539 6.17616211 10.11352539 -3.68383789 10.11352539 C-3.68383789 0.15582504 -3.68383789 0.15582504 0 0 Z " fill="#F7F7F7" transform="translate(287.683837890625,193.886474609375)"/>
<path d="M0 0 C6.27 0 12.54 0 19 0 C19 6.27 19 12.54 19 19 C16.03 19 13.06 19 10 19 C10 16.03 10 13.06 10 10 C6.7 10 3.4 10 0 10 C0 6.7 0 3.4 0 0 Z " fill="#858585" transform="translate(265,270)"/>
<path d="M0 0 C6.27 0 12.54 0 19 0 C19 3.3 19 6.6 19 10 C15.7 10 12.4 10 9 10 C9 12.97 9 15.94 9 19 C6.03 19 3.06 19 0 19 C0 12.73 0 6.46 0 0 Z " fill="#838383" transform="translate(256,99)"/>
<path d="M0 0 C0.33 0 0.66 0 1 0 C1 2.97 1 5.94 1 9 C3.97 9 6.94 9 10 9 C10 12.3 10 15.6 10 19 C3.73 19 -2.54 19 -9 19 C-9 15.7 -9 12.4 -9 9 C-6.03 9 -3.06 9 0 9 C0 6.03 0 3.06 0 0 Z " fill="#F5F5F5" transform="translate(265,204)"/>
<path d="M0 0 C6.27 0 12.54 0 19 0 C19 0.33 19 0.66 19 1 C16.36 1 13.72 1 11 1 C11 6.94 11 12.88 11 19 C13.64 19 16.28 19 19 19 C20 20 20 20 20.09765625 22.06640625 C20.06510417 24.37760417 20.03255208 26.68880208 20 29 C16.7 29 13.4 29 10 29 C10 26.03 10 23.06 10 20 C4.06 20 -1.88 20 -8 20 C-8 19.67 -8 19.34 -8 19 C-2.06 19 3.88 19 10 19 C10 13.06 10 7.12 10 1 C7.03 1 4.06 1 1 1 C1 3.97 1 6.94 1 10 C0.67 10 0.34 10 0 10 C0 6.7 0 3.4 0 0 Z " fill="#C6C6C6" transform="translate(236,251)"/>
<path d="M0 0 C5.94 0 11.88 0 18 0 C18 2.64 18 5.28 18 8 C12.06 8 6.12 8 0 8 C0 5.36 0 2.72 0 0 Z " fill="#808080" transform="translate(266,195)"/>
<path d="M0 0 C3.3 0 6.6 0 10 0 C10 0.33 10 0.66 10 1 C7.03 1 4.06 1 1 1 C1 3.97 1 6.94 1 10 C3.97 10 6.94 10 10 10 C10 13.3 10 16.6 10 20 C7.03 20 4.06 20 1 20 C0.11744572 13.2705236 -0.08592955 6.78843417 0 0 Z " fill="#F1F1F1" transform="translate(255,146)"/>
<path d="M0 0 C3.46679688 0.04882812 3.46679688 0.04882812 6.93359375 0.09765625 C6.93359375 3.39765625 6.93359375 6.69765625 6.93359375 10.09765625 C3.63359375 10.09765625 0.33359375 10.09765625 -3.06640625 10.09765625 C-3.1640625 3.1640625 -3.1640625 3.1640625 -3.06640625 1.09765625 C-2.06640625 0.09765625 -2.06640625 0.09765625 0 0 Z " fill="#8B8B8B" transform="translate(268.06640625,212.90234375)"/>
<path d="M0 0 C3.46679688 0.04882812 3.46679688 0.04882812 6.93359375 0.09765625 C6.93359375 3.39765625 6.93359375 6.69765625 6.93359375 10.09765625 C3.63359375 10.09765625 0.33359375 10.09765625 -3.06640625 10.09765625 C-3.1640625 3.1640625 -3.1640625 3.1640625 -3.06640625 1.09765625 C-2.06640625 0.09765625 -2.06640625 0.09765625 0 0 Z " fill="#F2F2F2" transform="translate(230.06640625,174.90234375)"/>
<path d="M0 0 C2.97 0 5.94 0 9 0 C9 3.3 9 6.6 9 10 C6.03 10 3.06 10 0 10 C0 6.7 0 3.4 0 0 Z " fill="#F8F8F8" transform="translate(332,194)"/>
<path d="M0 0 C3.3 0 6.6 0 10 0 C10 2.97 10 5.94 10 9 C6.7 9 3.4 9 0 9 C0 6.03 0 3.06 0 0 Z " fill="#F8F8F8" transform="translate(208,185)"/>
<path d="M0 0 C3.3 0 6.6 0 10 0 C10 2.97 10 5.94 10 9 C6.7 9 3.4 9 0 9 C0 6.03 0 3.06 0 0 Z " fill="#868686" transform="translate(265,118)"/>
<path d="M0 0 C2.97 0 5.94 0 9 0 C9 2.97 9 5.94 9 9 C6.03 9 3.06 9 0 9 C0 6.03 0 3.06 0 0 Z " fill="#808080" transform="translate(332,290)"/>
<path d="M0 0 C2.97 0 5.94 0 9 0 C9 2.97 9 5.94 9 9 C6.03 9 3.06 9 0 9 C0 6.03 0 3.06 0 0 Z " fill="#808080" transform="translate(313,290)"/>
<path d="M0 0 C2.97 0 5.94 0 9 0 C9 2.97 9 5.94 9 9 C6.03 9 3.06 9 0 9 C0 6.03 0 3.06 0 0 Z " fill="#838383" transform="translate(247,271)"/>
<path d="M0 0 C2.97 0 5.94 0 9 0 C9 2.97 9 5.94 9 9 C6.03 9 3.06 9 0 9 C0 6.03 0 3.06 0 0 Z " fill="#808080" transform="translate(342,242)"/>
<path d="M0 0 C2.97 0 5.94 0 9 0 C9 2.97 9 5.94 9 9 C6.03 9 3.06 9 0 9 C0 6.03 0 3.06 0 0 Z " fill="#808080" transform="translate(256,128)"/>
<path d="M0 0 C2 1 2 1 2.8515625 2.9609375 C3.10679687 3.75757813 3.36203125 4.55421875 3.625 5.375 C3.88539063 6.16648437 4.14578125 6.95796875 4.4140625 7.7734375 C5 10 5 10 5 13 C2.36 13 -0.28 13 -3 13 C-2.45144652 8.428721 -1.58255197 4.32564205 0 0 Z " fill="#1C1C1C" transform="translate(222,401)"/>
<path d="M0 0 C0.33 0 0.66 0 1 0 C1 2.64 1 5.28 1 8 C3.97 8 6.94 8 10 8 C10 8.33 10 8.66 10 9 C7.03 9 4.06 9 1 9 C1 11.97 1 14.94 1 18 C3.97 18 6.94 18 10 18 C10 18.33 10 18.66 10 19 C7.03 19 4.06 19 1 19 C1 21.97 1 24.94 1 28 C0.67 28 0.34 28 0 28 C0 25.03 0 22.06 0 19 C-2.97 19 -5.94 19 -9 19 C-9 18.67 -9 18.34 -9 18 C-6.03 18 -3.06 18 0 18 C0 12.06 0 6.12 0 0 Z " fill="#C4C4C4" transform="translate(341,233)"/>
</svg>
