<?xml version="1.0" encoding="UTF-8"?>
<svg version="1.1" xmlns="http://www.w3.org/2000/svg" width="500" height="500">
<path d="M0 0 C165 0 330 0 500 0 C500 165 500 330 500 500 C335 500 170 500 0 500 C0 335 0 170 0 0 Z " fill="#FDFDFD" transform="translate(0,0)"/>
<path d="M0 0 C87.78 0 175.56 0 266 0 C267.98 4.455 267.98 4.455 270 9 C274.04730172 14.17155219 276.24231847 14.46586943 283 17 C283 128.87 283 240.74 283 356 C280.36 356.99 277.72 357.98 275 359 C268.75804516 362.54656525 269.07555576 365.3111106 266 373 C178.22 373 90.44 373 0 373 C-1.98 368.05 -1.98 368.05 -4 363 C-7.95081274 358.71995287 -11.11858865 358.20552926 -17 356 C-17 244.13 -17 132.26 -17 17 C-14.03 15.68 -11.06 14.36 -8 13 C-2.82844781 8.95269828 -2.53413057 6.75768153 0 0 Z " fill="#FBFBFB" transform="translate(117,64)"/>
<path d="M0 0 C87.78 0 175.56 0 266 0 C267.98 4.455 267.98 4.455 270 9 C274.04730172 14.17155219 276.24231847 14.46586943 283 17 C283 128.87 283 240.74 283 356 C280.36 356.99 277.72 357.98 275 359 C268.75804516 362.54656525 269.07555576 365.3111106 266 373 C178.22 373 90.44 373 0 373 C-1.98 368.05 -1.98 368.05 -4 363 C-7.95081274 358.71995287 -11.11858865 358.20552926 -17 356 C-17 244.13 -17 132.26 -17 17 C-14.03 15.68 -11.06 14.36 -8 13 C-2.82844781 8.95269828 -2.53413057 6.75768153 0 0 Z M10 27 C10 108.18 10 189.36 10 273 C70.6065625 273.0309375 70.6065625 273.0309375 132.4375 273.0625 C145.21911865 273.071604 158.0007373 273.08070801 171.16967773 273.09008789 C182.57660662 273.09343128 182.57660662 273.09343128 193.98353577 273.09544373 C199.08432884 273.09637949 204.18511405 273.10006122 209.28590393 273.10557556 C215.77880545 273.11258457 222.27169481 273.11449769 228.76460087 273.11307228 C231.15591107 273.11337064 233.54722176 273.11537413 235.9385289 273.11921513 C239.15190483 273.12413952 242.36522091 273.12300826 245.57859802 273.12025452 C246.52869782 273.12316718 247.47879763 273.12607985 248.45768833 273.12908077 C252.55240756 273.53844666 252.55240756 273.53844666 256 272 C256.09807044 268.85236256 256.12990527 265.72663477 256.12025452 262.57859802 C256.12111053 261.57970047 256.12196655 260.58080292 256.12284851 259.55163574 C256.12451445 256.16648622 256.11896272 252.78138529 256.11352539 249.39624023 C256.11321932 246.94310285 256.1133521 244.48996538 256.11389065 242.03682804 C256.11409423 236.11241763 256.10979405 230.18802628 256.10338932 224.26362065 C256.09620593 217.41471876 256.09539548 210.56582451 256.09460449 203.71691895 C256.08934829 185.6237769 256.07538726 167.53063822 256.0625 149.4375 C256.041875 109.033125 256.02125 68.62875 256 27 C174.82 27 93.64 27 10 27 Z " fill="#000000" transform="translate(117,64)"/>
<path d="M0 0 C3.3 0 6.6 0 10 0 C10 9.57 10 19.14 10 29 C12.97 29 15.94 29 19 29 C19 25.7 19 22.4 19 19 C25.93359375 18.90234375 25.93359375 18.90234375 28 19 C29 20 29 20 29.09765625 22.06640625 C29.06510417 24.37760417 29.03255208 26.68880208 29 29 C31.97 29 34.94 29 38 29 C38 25.7 38 22.4 38 19 C35.03 19 32.06 19 29 19 C29 16.03 29 13.06 29 10 C31.97 10 34.94 10 38 10 C38 6.7 38 3.4 38 0 C41.3 0 44.6 0 48 0 C48 12.54 48 25.08 48 38 C41.73 38 35.46 38 29 38 C29 41.3 29 44.6 29 48 C22.73 48 16.46 48 10 48 C10 50.97 10 53.94 10 57 C6.7 57 3.4 57 0 57 C0 60.3 0 63.6 0 67 C3.3 67 6.6 67 10 67 C10 69.97 10 72.94 10 76 C12.97 76 15.94 76 19 76 C19 69.73 19 63.46 19 57 C22.3 57 25.6 57 29 57 C29 60.3 29 63.6 29 67 C31.97 67 34.94 67 38 67 C38 63.7 38 60.4 38 57 C44.27 57 50.54 57 57 57 C57 50.73 57 44.46 57 38 C66.57 38 76.14 38 86 38 C86 41.3 86 44.6 86 48 C90.455 47.505 90.455 47.505 95 47 C95.33 44.03 95.66 41.06 96 38 C102.27 38 108.54 38 115 38 C115 41.3 115 44.6 115 48 C117.97 48 120.94 48 124 48 C124 54.27 124 60.54 124 67 C121.03 67 118.06 67 115 67 C115 69.97 115 72.94 115 76 C117.97 76 120.94 76 124 76 C124 82.27 124 88.54 124 95 C119.545 95.495 119.545 95.495 115 96 C114.67 98.97 114.34 101.94 114 105 C111.03 105 108.06 105 105 105 C105 92.46 105 79.92 105 67 C101.7 67 98.4 67 95 67 C95 79.54 95 92.08 95 105 C79.49 105 63.98 105 48 105 C48 107.97 48 110.94 48 114 C50.97 114 53.94 114 57 114 C57 117.3 57 120.6 57 124 C54.03 124 51.06 124 48 124 C48 121.03 48 118.06 48 115 C44.7 115 41.4 115 38 115 C38 117.97 38 120.94 38 124 C35.03 124 32.06 124 29 124 C29 121.03 29 118.06 29 115 C26.03 115 23.06 115 20 115 C20 120.94 20 126.88 20 133 C22.64 133 25.28 133 28 133 C29 134 29 134 29.09765625 136.06640625 C29.06510417 138.37760417 29.03255208 140.68880208 29 143 C25.7 143 22.4 143 19 143 C19 140.03 19 137.06 19 134 C17.71222656 134.01160156 16.42445313 134.02320313 15.09765625 134.03515625 C13.41927228 134.0445327 11.74088674 134.05363305 10.0625 134.0625 C9.21236328 134.07087891 8.36222656 134.07925781 7.48632812 134.08789062 C6.67744141 134.09111328 5.86855469 134.09433594 5.03515625 134.09765625 C4.2862915 134.10289307 3.53742676 134.10812988 2.76586914 134.11352539 C1 134 1 134 0 133 C-0.14193337 129.99668982 -0.04236378 127.00782866 0 124 C2.97 124 5.94 124 9 124 C9 120.7 9 117.4 9 114 C12.3 114 15.6 114 19 114 C19 111.03 19 108.06 19 105 C12.73 105 6.46 105 0 105 C0 98.73 0 92.46 0 86 C-9.57 86 -19.14 86 -29 86 C-29 77 -29 77 -28 76 C-26.58429877 75.91348389 -25.164405 75.89295096 -23.74609375 75.90234375 C-22.46508789 75.90717773 -22.46508789 75.90717773 -21.15820312 75.91210938 C-20.26037109 75.92048828 -19.36253906 75.92886719 -18.4375 75.9375 C-17.53580078 75.94201172 -16.63410156 75.94652344 -15.70507812 75.95117188 C-13.47002411 75.96299756 -11.23500398 75.98093362 -9 76 C-9 73.03 -9 70.06 -9 67 C-18.57 67 -28.14 67 -38 67 C-38 69.97 -38 72.94 -38 76 C-44.27 76 -50.54 76 -57 76 C-57 79.3 -57 82.6 -57 86 C-59.97 86 -62.94 86 -66 86 C-66 79.73 -66 73.46 -66 67 C-69.3 67 -72.6 67 -76 67 C-76 57.43 -76 47.86 -76 38 C-69.73 38 -63.46 38 -57 38 C-57 41.3 -57 44.6 -57 48 C-59.97 48 -62.94 48 -66 48 C-66 50.97 -66 53.94 -66 57 C-59.73 57 -53.46 57 -47 57 C-47 50.73 -47 44.46 -47 38 C-44.03 38 -41.06 38 -38 38 C-38 41.3 -38 44.6 -38 48 C-31.73 48 -25.46 48 -19 48 C-19 44.7 -19 41.4 -19 38 C-12.73 38 -6.46 38 0 38 C0 25.46 0 12.92 0 0 Z " fill="#828282" transform="translate(226,152)"/>
<path d="M0 0 C9.57 0 19.14 0 29 0 C29 3.3 29 6.6 29 10 C33.455 9.505 33.455 9.505 38 9 C38.33 6.03 38.66 3.06 39 0 C45.27 0 51.54 0 58 0 C58 3.3 58 6.6 58 10 C60.97 10 63.94 10 67 10 C67 16.27 67 22.54 67 29 C64.03 29 61.06 29 58 29 C58 31.97 58 34.94 58 38 C60.97 38 63.94 38 67 38 C67 44.27 67 50.54 67 57 C62.545 57.495 62.545 57.495 58 58 C57.67 60.97 57.34 63.94 57 67 C54.03 67 51.06 67 48 67 C48 54.46 48 41.92 48 29 C44.7 29 41.4 29 38 29 C38 41.54 38 54.08 38 67 C16.22 67 -5.56 67 -28 67 C-28 63.7 -28 60.4 -28 57 C-25.03 57 -22.06 57 -19 57 C-19 54.03 -19 51.06 -19 48 C-21.97 48 -24.94 48 -28 48 C-28 44.7 -28 41.4 -28 38 C-25.03 38 -22.06 38 -19 38 C-19 31.73 -19 25.46 -19 19 C-12.73 19 -6.46 19 0 19 C0 12.73 0 6.46 0 0 Z " fill="#838383" transform="translate(283,190)"/>
<path d="M0 0 C22.11 0 44.22 0 67 0 C67 22.11 67 44.22 67 67 C44.89 67 22.78 67 0 67 C0 44.89 0 22.78 0 0 Z " fill="#FAFAFA" transform="translate(150,247)"/>
<path d="M0 0 C22.11 0 44.22 0 67 0 C67 22.11 67 44.22 67 67 C44.89 67 22.78 67 0 67 C0 44.89 0 22.78 0 0 Z " fill="#FAFAFA" transform="translate(283,114)"/>
<path d="M0 0 C22.11 0 44.22 0 67 0 C67 22.11 67 44.22 67 67 C44.89 67 22.78 67 0 67 C0 44.89 0 22.78 0 0 Z " fill="#FAFAFA" transform="translate(150,114)"/>
<path d="M0 0 C22.11 0 44.22 0 67 0 C67 22.11 67 44.22 67 67 C44.89 67 22.78 67 0 67 C0 44.89 0 22.78 0 0 Z M9 10 C9 25.51 9 41.02 9 57 C24.84 57 40.68 57 57 57 C57 41.49 57 25.98 57 10 C41.16 10 25.32 10 9 10 Z " fill="#848484" transform="translate(150,247)"/>
<path d="M0 0 C22.11 0 44.22 0 67 0 C67 22.11 67 44.22 67 67 C44.89 67 22.78 67 0 67 C0 44.89 0 22.78 0 0 Z M10 10 C10 25.51 10 41.02 10 57 C25.84 57 41.68 57 58 57 C58 41.49 58 25.98 58 10 C42.16 10 26.32 10 10 10 Z " fill="#848484" transform="translate(283,114)"/>
<path d="M0 0 C22.11 0 44.22 0 67 0 C67 22.11 67 44.22 67 67 C44.89 67 22.78 67 0 67 C0 44.89 0 22.78 0 0 Z M10 9 C10 24.84 10 40.68 10 57 C25.51 57 41.02 57 57 57 C57 41.16 57 25.32 57 9 C41.49 9 25.98 9 10 9 Z " fill="#848484" transform="translate(150,114)"/>
<path d="M0 0 C3.3 0 6.6 0 10 0 C10 9.57 10 19.14 10 29 C12.97 29 15.94 29 19 29 C19 25.7 19 22.4 19 19 C25.93359375 18.90234375 25.93359375 18.90234375 28 19 C29 20 29 20 29.09765625 22.06640625 C29.06510417 24.37760417 29.03255208 26.68880208 29 29 C31.97 29 34.94 29 38 29 C38 25.7 38 22.4 38 19 C35.03 19 32.06 19 29 19 C29 16.03 29 13.06 29 10 C31.97 10 34.94 10 38 10 C38 6.7 38 3.4 38 0 C41.3 0 44.6 0 48 0 C48 12.54 48 25.08 48 38 C41.73 38 35.46 38 29 38 C29 41.3 29 44.6 29 48 C19.43 48 9.86 48 0 48 C0 45.03 0 42.06 0 39 C-5.94 39 -11.88 39 -18 39 C-18 41.64 -18 44.28 -18 47 C-15.03 47 -12.06 47 -9 47 C-9 50.3 -9 53.6 -9 57 C-12.3 57 -15.6 57 -19 57 C-19 50.73 -19 44.46 -19 38 C-12.73 38 -6.46 38 0 38 C0 25.46 0 12.92 0 0 Z " fill="#848484" transform="translate(226,152)"/>
<path d="M0 0 C3.63 0 7.26 0 11 0 C12.50640038 3.60161201 14.00534134 7.20601881 15.5 10.8125 C16.14388672 12.34874023 16.14388672 12.34874023 16.80078125 13.91601562 C17.40986328 15.39038086 17.40986328 15.39038086 18.03125 16.89453125 C18.40830078 17.80050049 18.78535156 18.70646973 19.17382812 19.63989258 C20 22 20 22 20 25 C20.66 25 21.32 25 22 25 C22.12689209 24.27530518 22.25378418 23.55061035 22.38452148 22.80395508 C22.98109622 20.08612055 23.80140772 17.71082227 24.84765625 15.13671875 C25.20537109 14.25048828 25.56308594 13.36425781 25.93164062 12.45117188 C26.30482422 11.53916016 26.67800781 10.62714844 27.0625 9.6875 C27.43955078 8.75615234 27.81660156 7.82480469 28.20507812 6.86523438 C29.13281967 4.57523942 30.06588811 2.28740382 31 0 C34.63 0 38.26 0 42 0 C42 12.21 42 24.42 42 37 C39.03 37 36.06 37 33 37 C32.67 30.73 32.34 24.46 32 18 C29.69 24.27 27.38 30.54 25 37 C22.36 37 19.72 37 17 37 C14.69 30.73 12.38 24.46 10 18 C9.67 24.27 9.34 30.54 9 37 C6.03 37 3.06 37 0 37 C0 24.79 0 12.58 0 0 Z " fill="#F3F3F3" transform="translate(295,368)"/>
<path d="M0 0 C5.94 0 11.88 0 18 0 C18 2.97 18 5.94 18 9 C24.6 9 31.2 9 38 9 C38 12.3 38 15.6 38 19 C40.97 19 43.94 19 47 19 C47 21.97 47 24.94 47 28 C34.46 28 21.92 28 9 28 C9 31.3 9 34.6 9 38 C2.73 38 -3.54 38 -10 38 C-10 34.7 -10 31.4 -10 28 C-7.03 28 -4.06 28 -1 28 C-1 25.03 -1 22.06 -1 19 C2.3 19 5.6 19 9 19 C9 15.7 9 12.4 9 9 C6.03 9 3.06 9 0 9 C0 6.03 0 3.06 0 0 Z " fill="#FCFCFC" transform="translate(265,219)"/>
<path d="M0 0 C9 0 9 0 11.30688477 1.92773438 C12.1159729 3.24741211 12.1159729 3.24741211 12.94140625 4.59375 C13.54404297 5.54121094 14.14667969 6.48867188 14.76757812 7.46484375 C15.35990234 8.46644531 15.95222656 9.46804688 16.5625 10.5 C17.18962891 11.50160156 17.81675781 12.50320313 18.46289062 13.53515625 C20.00404663 16.00571168 21.50593623 18.50068421 23 21 C23.33 14.07 23.66 7.14 24 0 C26.97 0 29.94 0 33 0 C33 12.21 33 24.42 33 37 C24 37 24 37 21.58203125 34.9453125 C20.70611328 33.54925781 20.70611328 33.54925781 19.8125 32.125 C19.16925781 31.13113281 18.52601563 30.13726562 17.86328125 29.11328125 C16.94095703 27.57220703 16.94095703 27.57220703 16 26 C15.09314453 24.53626953 15.09314453 24.53626953 14.16796875 23.04296875 C12.74588366 20.71501213 11.36814966 18.36005816 10 16 C9.67 22.93 9.34 29.86 9 37 C6.03 37 3.06 37 0 37 C0 24.79 0 12.58 0 0 Z " fill="#F6F6F6" transform="translate(245,368)"/>
<path d="M0 0 C9.24 0 18.48 0 28 0 C28 9.24 28 18.48 28 28 C18.76 28 9.52 28 0 28 C0 18.76 0 9.52 0 0 Z " fill="#808080" transform="translate(169,267)"/>
<path d="M0 0 C9.24 0 18.48 0 28 0 C28 9.24 28 18.48 28 28 C18.76 28 9.52 28 0 28 C0 18.76 0 9.52 0 0 Z " fill="#808080" transform="translate(303,133)"/>
<path d="M0 0 C9.24 0 18.48 0 28 0 C28 9.24 28 18.48 28 28 C18.76 28 9.52 28 0 28 C0 18.76 0 9.52 0 0 Z " fill="#808080" transform="translate(169,133)"/>
<path d="M0 0 C2.97 0 5.94 0 9 0 C9 3.3 9 6.6 9 10 C15.27 10 21.54 10 28 10 C28 12.97 28 15.94 28 19 C21.73 19 15.46 19 9 19 C9 21.97 9 24.94 9 28 C6.03 28.33 3.06 28.66 0 29 C-0.33 31.97 -0.66 34.94 -1 38 C-6.94 38 -12.88 38 -19 38 C-19 35.03 -19 32.06 -19 29 C-16.03 29 -13.06 29 -10 29 C-10 22.73 -10 16.46 -10 10 C-5.545 9.505 -5.545 9.505 -1 9 C-0.67 6.03 -0.34 3.06 0 0 Z " fill="#808080" transform="translate(303,276)"/>
<path d="M0 0 C3.3 0 6.6 0 10 0 C13.60587515 9.12137057 17.15607485 18.25608303 20.4375 27.5 C20.69611816 28.2230835 20.95473633 28.94616699 21.22119141 29.69116211 C23 34.75387814 23 34.75387814 23 37 C20.03 37 17.06 37 14 37 C13.34 35.02 12.68 33.04 12 31 C7.05 31 2.1 31 -3 31 C-3.33 32.98 -3.66 34.96 -4 37 C-6.97 37 -9.94 37 -13 37 C-12.34251765 31.91653889 -10.87063628 27.410598 -9.125 22.625 C-8.86847656 21.90828125 -8.61195313 21.1915625 -8.34765625 20.453125 C-7.57380924 18.29879714 -6.78925367 16.14872782 -6 14 C-5.73437256 13.27458008 -5.46874512 12.54916016 -5.19506836 11.80175781 C-3.68687394 7.72423809 -2.02177713 3.85100405 0 0 Z " fill="#F4F4F4" transform="translate(218,368)"/>
<path d="M0 0 C3.51183484 2.47424727 6.42236069 5.30572236 8.75 8.9375 C8.75 9.9275 8.75 10.9175 8.75 11.9375 C5.3861302 12.16860556 2.10710903 12.29870793 -1.25 11.9375 C-3.5 9.9375 -3.5 9.9375 -5.25 7.9375 C-9.24656562 7.1722002 -10.73948071 7.59345439 -14.125 9.875 C-16.61997333 13.47069685 -16.93576604 15.49443797 -16.6640625 19.77734375 C-16.01254389 23.17630404 -14.9505597 24.79090127 -12.25 26.9375 C-8.79271642 27.68761367 -8.79271642 27.68761367 -5.25 26.9375 C-4.46625 26.2775 -3.6825 25.6175 -2.875 24.9375 C0.88480097 22.07288974 4.18182901 22.57921208 8.75 22.9375 C8.2438686 27.36614971 6.90110054 29.78639946 3.75 32.9375 C-1.99221401 36.33595319 -7.65889975 36.92237705 -14.25 35.9375 C-18.92378727 34.25493658 -22.19422559 31.64056078 -24.75 27.375 C-26.99990147 22.08170503 -27.02885203 16.57225599 -26.25 10.9375 C-23.93026575 6.03036985 -20.53223069 3.1263952 -16.25 -0.0625 C-10.88620867 -1.85043044 -5.36227662 -1.75305197 0 0 Z " fill="#F5F5F5" transform="translate(192.25,369.0625)"/>
<path d="M0 0 C3.91075925 1.98968453 5.57689098 3.36533646 8 7 C8 8.32 8 9.64 8 11 C4.7 11 1.4 11 -2 11 C-2 10.01 -2 9.02 -2 8 C-3.98 8 -5.96 8 -8 8 C-7.95711504 10.43633288 -7.95711504 10.43633288 -7 13 C-4.38291226 14.52098217 -4.38291226 14.52098217 -1.1875 15.5 C3.67675422 17.15894175 6.16626455 18.64506689 9 23 C9.67907735 26.98957946 9.17886254 28.66782671 7.25 32.25 C4.42010586 35.7087595 2.63107749 36.80463417 -1.8046875 37.3359375 C-6.60116969 37.39696145 -10.17463271 37.35576176 -14.625 35.4375 C-17.52486881 32.46131885 -18.22332873 30.03869062 -19 26 C-15.7 26 -12.4 26 -9 26 C-8.67 27.32 -8.34 28.64 -8 30 C-6.02 29.67 -4.04 29.34 -2 29 C-2.08512977 26.54319987 -2.08512977 26.54319987 -3 24 C-5.36193265 22.73632351 -5.36193265 22.73632351 -8.25 22.0625 C-13.67898923 20.29754901 -16.15798847 18.99802028 -19 14 C-19.625 10.4375 -19.625 10.4375 -19 7 C-13.39149646 0.17884705 -8.50226374 -1.00812556 0 0 Z " fill="#F3F3F3" transform="translate(153,368)"/>
<path d="M0 0 C3.609375 -0.020625 7.21875 -0.04125 10.9375 -0.0625 C12.07695068 -0.071604 13.21640137 -0.08070801 14.39038086 -0.09008789 C15.28120361 -0.09258545 16.17202637 -0.09508301 17.08984375 -0.09765625 C18.46450806 -0.10551147 18.46450806 -0.10551147 19.86694336 -0.11352539 C22 0 22 0 23 1 C23 3.31 23 5.62 23 8 C18.38 8 13.76 8 9 8 C9 10.31 9 12.62 9 15 C12.96 15 16.92 15 21 15 C21 17.31 21 19.62 21 22 C17.04 22 13.08 22 9 22 C9 24.64 9 27.28 9 30 C13.29 30 17.58 30 22 30 C22 32.31 22 34.62 22 37 C14.74 37 7.48 37 0 37 C0 24.79 0 12.58 0 0 Z " fill="#F5F5F5" transform="translate(343,368)"/>
<path d="M0 0 C2.97 0 5.94 0 9 0 C9 12.54 9 25.08 9 38 C6.03 38 3.06 38 0 38 C-0.33 35.03 -0.66 32.06 -1 29 C-3.97 28.67 -6.94 28.34 -10 28 C-10 21.73 -10 15.46 -10 9 C-6.7 9 -3.4 9 0 9 C0 6.03 0 3.06 0 0 Z " fill="#828282" transform="translate(236,114)"/>
<path d="M0 0 C2.97 0 5.94 0 9 0 C9 3.3 9 6.6 9 10 C12.3 10 15.6 10 19 10 C19 15.94 19 21.88 19 28 C16.03 28.33 13.06 28.66 10 29 C9.67 31.97 9.34 34.94 9 38 C6.03 38 3.06 38 0 38 C0 25.46 0 12.92 0 0 Z " fill="#808080" transform="translate(331,219)"/>
<path d="M0 0 C3.3 0 6.6 0 10 0 C10 2.97 10 5.94 10 9 C11.28777344 8.98839844 12.57554687 8.97679687 13.90234375 8.96484375 C15.58072772 8.9554673 17.25911326 8.94636695 18.9375 8.9375 C20.21270508 8.92493164 20.21270508 8.92493164 21.51367188 8.91210938 C22.32255859 8.90888672 23.13144531 8.90566406 23.96484375 8.90234375 C24.7137085 8.89710693 25.46257324 8.89187012 26.23413086 8.88647461 C28 9 28 9 29 10 C29 12.97 29 15.94 29 19 C19.43 19 9.86 19 0 19 C0 12.73 0 6.46 0 0 Z " fill="#868686" transform="translate(226,295)"/>
<path d="M0 0 C2.97 0 5.94 0 9 0 C9 2.97 9 5.94 9 9 C12.3 9 15.6 9 19 9 C19 15.27 19 21.54 19 28 C16.03 28 13.06 28 10 28 C9.67 25.03 9.34 22.06 9 19 C6.03 18.67 3.06 18.34 0 18 C0 12.06 0 6.12 0 0 Z " fill="#808080" transform="translate(331,267)"/>
<path d="M0 0 C1.16781006 0.00523682 2.33562012 0.01047363 3.53881836 0.01586914 C4.79887695 0.0190918 6.05893555 0.02231445 7.35717773 0.02563477 C8.6976732 0.03399136 10.03816799 0.04245632 11.37866211 0.05102539 C12.72306153 0.05603879 14.06746271 0.06060197 15.41186523 0.06469727 C18.71334151 0.07653051 22.01473014 0.09301568 25.31616211 0.11352539 C25.31616211 3.41352539 25.31616211 6.71352539 25.31616211 10.11352539 C15.74616211 10.11352539 6.17616211 10.11352539 -3.68383789 10.11352539 C-3.68383789 0.15582504 -3.68383789 0.15582504 0 0 Z " fill="#F7F7F7" transform="translate(286.683837890625,208.886474609375)"/>
<path d="M0 0 C6.27 0 12.54 0 19 0 C19 6.27 19 12.54 19 19 C16.03 19 13.06 19 10 19 C10 16.03 10 13.06 10 10 C6.7 10 3.4 10 0 10 C0 6.7 0 3.4 0 0 Z " fill="#858585" transform="translate(264,285)"/>
<path d="M0 0 C6.27 0 12.54 0 19 0 C19 3.3 19 6.6 19 10 C15.7 10 12.4 10 9 10 C9 12.97 9 15.94 9 19 C6.03 19 3.06 19 0 19 C0 12.73 0 6.46 0 0 Z " fill="#838383" transform="translate(255,114)"/>
<path d="M0 0 C0.33 0 0.66 0 1 0 C1 2.97 1 5.94 1 9 C3.97 9 6.94 9 10 9 C10 12.3 10 15.6 10 19 C3.73 19 -2.54 19 -9 19 C-9 15.7 -9 12.4 -9 9 C-6.03 9 -3.06 9 0 9 C0 6.03 0 3.06 0 0 Z " fill="#F5F5F5" transform="translate(264,219)"/>
<path d="M0 0 C6.27 0 12.54 0 19 0 C19 0.33 19 0.66 19 1 C16.36 1 13.72 1 11 1 C11 6.94 11 12.88 11 19 C13.64 19 16.28 19 19 19 C20 20 20 20 20.09765625 22.06640625 C20.06510417 24.37760417 20.03255208 26.68880208 20 29 C16.7 29 13.4 29 10 29 C10 26.03 10 23.06 10 20 C4.06 20 -1.88 20 -8 20 C-8 19.67 -8 19.34 -8 19 C-2.06 19 3.88 19 10 19 C10 13.06 10 7.12 10 1 C7.03 1 4.06 1 1 1 C1 3.97 1 6.94 1 10 C0.67 10 0.34 10 0 10 C0 6.7 0 3.4 0 0 Z " fill="#C6C6C6" transform="translate(235,266)"/>
<path d="M0 0 C5.94 0 11.88 0 18 0 C18 2.64 18 5.28 18 8 C12.06 8 6.12 8 0 8 C0 5.36 0 2.72 0 0 Z " fill="#808080" transform="translate(265,210)"/>
<path d="M0 0 C3.3 0 6.6 0 10 0 C10 0.33 10 0.66 10 1 C7.03 1 4.06 1 1 1 C1 3.97 1 6.94 1 10 C3.97 10 6.94 10 10 10 C10 13.3 10 16.6 10 20 C7.03 20 4.06 20 1 20 C0.11744572 13.2705236 -0.08592955 6.78843417 0 0 Z " fill="#F1F1F1" transform="translate(254,161)"/>
<path d="M0 0 C3.46679688 0.04882812 3.46679688 0.04882812 6.93359375 0.09765625 C6.93359375 3.39765625 6.93359375 6.69765625 6.93359375 10.09765625 C3.63359375 10.09765625 0.33359375 10.09765625 -3.06640625 10.09765625 C-3.1640625 3.1640625 -3.1640625 3.1640625 -3.06640625 1.09765625 C-2.06640625 0.09765625 -2.06640625 0.09765625 0 0 Z " fill="#8B8B8B" transform="translate(267.06640625,227.90234375)"/>
<path d="M0 0 C3.46679688 0.04882812 3.46679688 0.04882812 6.93359375 0.09765625 C6.93359375 3.39765625 6.93359375 6.69765625 6.93359375 10.09765625 C3.63359375 10.09765625 0.33359375 10.09765625 -3.06640625 10.09765625 C-3.1640625 3.1640625 -3.1640625 3.1640625 -3.06640625 1.09765625 C-2.06640625 0.09765625 -2.06640625 0.09765625 0 0 Z " fill="#F2F2F2" transform="translate(229.06640625,189.90234375)"/>
<path d="M0 0 C2.97 0 5.94 0 9 0 C9 3.3 9 6.6 9 10 C6.03 10 3.06 10 0 10 C0 6.7 0 3.4 0 0 Z " fill="#F8F8F8" transform="translate(331,209)"/>
<path d="M0 0 C3.3 0 6.6 0 10 0 C10 2.97 10 5.94 10 9 C6.7 9 3.4 9 0 9 C0 6.03 0 3.06 0 0 Z " fill="#F8F8F8" transform="translate(207,200)"/>
<path d="M0 0 C3.3 0 6.6 0 10 0 C10 2.97 10 5.94 10 9 C6.7 9 3.4 9 0 9 C0 6.03 0 3.06 0 0 Z " fill="#868686" transform="translate(264,133)"/>
<path d="M0 0 C2.97 0 5.94 0 9 0 C9 2.97 9 5.94 9 9 C6.03 9 3.06 9 0 9 C0 6.03 0 3.06 0 0 Z " fill="#808080" transform="translate(331,305)"/>
<path d="M0 0 C2.97 0 5.94 0 9 0 C9 2.97 9 5.94 9 9 C6.03 9 3.06 9 0 9 C0 6.03 0 3.06 0 0 Z " fill="#808080" transform="translate(312,305)"/>
<path d="M0 0 C2.97 0 5.94 0 9 0 C9 2.97 9 5.94 9 9 C6.03 9 3.06 9 0 9 C0 6.03 0 3.06 0 0 Z " fill="#838383" transform="translate(246,286)"/>
<path d="M0 0 C2.97 0 5.94 0 9 0 C9 2.97 9 5.94 9 9 C6.03 9 3.06 9 0 9 C0 6.03 0 3.06 0 0 Z " fill="#808080" transform="translate(341,257)"/>
<path d="M0 0 C2.97 0 5.94 0 9 0 C9 2.97 9 5.94 9 9 C6.03 9 3.06 9 0 9 C0 6.03 0 3.06 0 0 Z " fill="#808080" transform="translate(255,143)"/>
<path d="M0 0 C2 1 2 1 2.8515625 2.9609375 C3.10679687 3.75757813 3.36203125 4.55421875 3.625 5.375 C3.88539063 6.16648437 4.14578125 6.95796875 4.4140625 7.7734375 C5 10 5 10 5 13 C2.36 13 -0.28 13 -3 13 C-2.45144652 8.428721 -1.58255197 4.32564205 0 0 Z " fill="#1C1C1C" transform="translate(222,379)"/>
<path d="M0 0 C0.33 0 0.66 0 1 0 C1 2.64 1 5.28 1 8 C3.97 8 6.94 8 10 8 C10 8.33 10 8.66 10 9 C7.03 9 4.06 9 1 9 C1 11.97 1 14.94 1 18 C3.97 18 6.94 18 10 18 C10 18.33 10 18.66 10 19 C7.03 19 4.06 19 1 19 C1 21.97 1 24.94 1 28 C0.67 28 0.34 28 0 28 C0 25.03 0 22.06 0 19 C-2.97 19 -5.94 19 -9 19 C-9 18.67 -9 18.34 -9 18 C-6.03 18 -3.06 18 0 18 C0 12.06 0 6.12 0 0 Z " fill="#C4C4C4" transform="translate(340,248)"/>
</svg>
