<?xml version="1.0" encoding="UTF-8"?>
<svg version="1.1" xmlns="http://www.w3.org/2000/svg" width="500" height="500">
<path d="M0 0 C165 0 330 0 500 0 C500 165 500 330 500 500 C335 500 170 500 0 500 C0 335 0 170 0 0 Z " fill="#FDFDFD" transform="translate(0,0)"/>
<path d="M0 0 C1.07345629 -0.00453111 2.14691259 -0.00906223 3.25289786 -0.01373065 C6.85017105 -0.02639177 10.44729317 -0.02475315 14.04458618 -0.02310181 C16.62359309 -0.02908593 19.2025982 -0.03589121 21.78160095 -0.04345703 C28.06002348 -0.06005183 34.33840845 -0.06556587 40.61685108 -0.06668179 C45.72105012 -0.06763289 50.82523679 -0.07174631 55.92943192 -0.07808304 C70.40723397 -0.09569056 84.8850064 -0.10492256 99.36281924 -0.10342209 C100.14290487 -0.10334218 100.9229905 -0.10326227 101.72671509 -0.10317993 C102.89827538 -0.10305729 102.89827538 -0.10305729 104.09350355 -0.10293217 C116.75246077 -0.1021192 129.41129902 -0.12126097 142.07022183 -0.14945666 C155.0746416 -0.17819293 168.07900336 -0.19199658 181.08345568 -0.19026911 C188.38196566 -0.18960551 195.68035089 -0.19508472 202.97883224 -0.21662521 C209.84234903 -0.23675255 216.70559827 -0.23615575 223.56912804 -0.22159195 C226.08781633 -0.2194985 228.60652098 -0.22423649 231.1251812 -0.23631287 C234.56431504 -0.25173446 238.00253638 -0.24247644 241.44165039 -0.22705078 C242.43757434 -0.23733791 243.43349829 -0.24762503 244.45960176 -0.25822389 C252.28107559 -0.18073388 258.53774442 1.88118092 264.16030884 7.51742554 C264.70300415 8.03820679 265.24569946 8.55898804 265.80484009 9.09555054 C270.98162347 16.38236461 270.77920752 23.94521836 270.74221802 32.55184937 C270.74711218 33.89774235 270.75330441 35.24363113 270.76067591 36.58951283 C270.77703159 40.27296984 270.77476651 43.95621221 270.76930094 47.63969278 C270.76662539 51.61795566 270.78117219 55.596162 270.793396 59.57440186 C270.81442856 67.36187508 270.81899215 75.14927383 270.81720811 82.93677211 C270.81589963 89.26661377 270.81970898 95.59643223 270.82713318 101.92626953 C270.8292324 103.75068442 270.83133 105.57509931 270.833426 107.3995142 C270.83499129 108.76165694 270.83499129 108.76165694 270.8365882 110.15131772 C270.85548108 127.31689448 270.85444301 144.48242848 270.84761888 161.64801133 C270.84204146 177.34935803 270.86287898 193.05054166 270.89597934 208.75185025 C270.92971475 224.87969319 270.94488504 241.00745799 270.94026232 257.13533688 C270.93801782 266.18769701 270.94325825 275.23990635 270.96815491 284.29223633 C270.98916584 291.99718955 270.99276191 299.70190923 270.97385532 307.40687203 C270.96469695 311.3370923 270.96355721 315.2668771 270.98421097 319.19706345 C271.00292061 322.79712632 270.99841879 326.39639709 270.97566515 329.9964298 C270.96950111 331.91085095 270.98787156 333.82530294 271.00720167 335.73963642 C270.91834386 344.36986316 269.04978706 349.17313748 263.32046509 355.50961304 C262.69011353 356.04844116 262.05976196 356.58726929 261.41030884 357.14242554 C260.7825354 357.69672241 260.15476196 358.25101929 259.50796509 358.82211304 C253.60408353 362.77226887 247.49316151 362.55801823 240.65765381 362.5415802 C239.58011396 362.54681688 238.50257412 362.55205356 237.39238155 362.55744892 C233.78129503 362.57245217 230.17035017 362.57315415 226.55923462 362.57382202 C223.97037517 362.58144319 221.38151799 362.58987061 218.79266357 362.5990448 C211.75964875 362.62186254 204.72666416 362.62981158 197.69361734 362.63487124 C193.30040826 362.63813131 188.9072079 362.64465557 184.51400375 362.65187263 C172.344519 362.67143253 160.17504234 362.68784092 148.00554085 362.69074917 C147.2273147 362.69093674 146.44908855 362.69112431 145.64727979 362.69131756 C144.06972114 362.69168381 142.49216249 362.6920475 140.91460384 362.69240867 C140.13153122 362.69259148 139.34845859 362.6927743 138.54165649 362.69296265 C137.75762569 362.6931432 136.97359488 362.69332374 136.16580556 362.69350976 C123.45832449 362.69705234 110.75101277 362.7240826 98.04359044 362.76146054 C84.98944953 362.79955043 71.93539266 362.81890668 58.88119495 362.81920868 C51.55470566 362.81979301 44.22841856 362.82826973 36.90198135 362.85720634 C30.01216004 362.88429407 23.12274531 362.88561933 16.23289108 362.8695507 C13.70452248 362.8677324 11.1761311 362.87446106 8.64781189 362.89036942 C5.19537549 362.91076785 1.74434921 362.90031285 -1.70806885 362.88215637 C-2.70788375 362.89535634 -3.70769865 362.90855631 -4.73781097 362.92215627 C-12.52884289 362.82860951 -17.18035457 360.40659486 -22.89437866 355.24008179 C-23.43320679 354.60973022 -23.97203491 353.97937866 -24.52719116 353.32992554 C-25.08148804 352.7021521 -25.63578491 352.07437866 -26.20687866 351.42758179 C-29.12997032 347.05874479 -29.90198105 342.6397426 -29.91225338 337.46022224 C-29.91931897 336.31762259 -29.92638456 335.17502293 -29.93366426 333.99779904 C-29.93124918 332.7522839 -29.92883409 331.50676876 -29.92634583 330.22351074 C-29.93080059 328.87934601 -29.93611542 327.53518389 -29.94221455 326.19102561 C-29.95637601 322.50309323 -29.9580582 318.81524521 -29.95761764 315.12728953 C-29.95926745 311.14763701 -29.97233686 307.16801908 -29.98381042 303.18838501 C-30.00664496 294.49013394 -30.01457906 285.79190729 -30.01963687 277.09363031 C-30.02289505 271.66186186 -30.02941817 266.23010048 -30.03663826 260.79833603 C-30.05620052 245.75681601 -30.07260747 230.71530256 -30.07551479 215.673769 C-30.07570236 214.71155095 -30.07588993 213.7493329 -30.07608319 212.75795674 C-30.07644943 210.80735644 -30.07681313 208.85675614 -30.0771743 206.90615584 C-30.07735711 205.93788949 -30.07753992 204.96962314 -30.07772827 203.97201538 C-30.07790882 203.00256646 -30.07808937 202.03311753 -30.07827539 201.03429137 C-30.08181832 185.31989006 -30.10884978 169.60562566 -30.14622616 153.89127184 C-30.1843001 137.75445884 -30.20367219 121.6177138 -30.20397431 105.48085487 C-30.20455901 96.42174984 -30.21305942 87.36280825 -30.24197197 78.30374527 C-30.2664734 70.59143376 -30.27377701 62.87934533 -30.25872444 55.16700543 C-30.25155096 51.2327417 -30.2524315 47.29891858 -30.27513504 43.36470413 C-30.29573273 39.76087219 -30.29311837 36.1578194 -30.2722602 32.55399583 C-30.26711573 30.63748225 -30.28653875 28.72095094 -30.3069219 26.80453885 C-30.22273374 18.16788202 -28.35814396 13.36610936 -22.62484741 7.02523804 C-21.99449585 6.48640991 -21.36414429 5.94758179 -20.71469116 5.39242554 C-20.08691772 4.83812866 -19.45914429 4.28383179 -18.81234741 3.71273804 C-12.9171337 -0.23161834 -6.82509365 -0.02113056 0 0 Z " fill="#FEFEFE" transform="translate(129.65219116210938,62.732574462890625)"/>
<path d="M0 0 C1.07345629 -0.00453111 2.14691259 -0.00906223 3.25289786 -0.01373065 C6.85017105 -0.02639177 10.44729317 -0.02475315 14.04458618 -0.02310181 C16.62359309 -0.02908593 19.2025982 -0.03589121 21.78160095 -0.04345703 C28.06002348 -0.06005183 34.33840845 -0.06556587 40.61685108 -0.06668179 C45.72105012 -0.06763289 50.82523679 -0.07174631 55.92943192 -0.07808304 C70.40723397 -0.09569056 84.8850064 -0.10492256 99.36281924 -0.10342209 C100.14290487 -0.10334218 100.9229905 -0.10326227 101.72671509 -0.10317993 C102.89827538 -0.10305729 102.89827538 -0.10305729 104.09350355 -0.10293217 C116.75246077 -0.1021192 129.41129902 -0.12126097 142.07022183 -0.14945666 C155.0746416 -0.17819293 168.07900336 -0.19199658 181.08345568 -0.19026911 C188.38196566 -0.18960551 195.68035089 -0.19508472 202.97883224 -0.21662521 C209.84234903 -0.23675255 216.70559827 -0.23615575 223.56912804 -0.22159195 C226.08781633 -0.2194985 228.60652098 -0.22423649 231.1251812 -0.23631287 C234.56431504 -0.25173446 238.00253638 -0.24247644 241.44165039 -0.22705078 C242.43757434 -0.23733791 243.43349829 -0.24762503 244.45960176 -0.25822389 C252.28107559 -0.18073388 258.53774442 1.88118092 264.16030884 7.51742554 C264.70300415 8.03820679 265.24569946 8.55898804 265.80484009 9.09555054 C270.98162347 16.38236461 270.77920752 23.94521836 270.74221802 32.55184937 C270.74711218 33.89774235 270.75330441 35.24363113 270.76067591 36.58951283 C270.77703159 40.27296984 270.77476651 43.95621221 270.76930094 47.63969278 C270.76662539 51.61795566 270.78117219 55.596162 270.793396 59.57440186 C270.81442856 67.36187508 270.81899215 75.14927383 270.81720811 82.93677211 C270.81589963 89.26661377 270.81970898 95.59643223 270.82713318 101.92626953 C270.8292324 103.75068442 270.83133 105.57509931 270.833426 107.3995142 C270.83499129 108.76165694 270.83499129 108.76165694 270.8365882 110.15131772 C270.85548108 127.31689448 270.85444301 144.48242848 270.84761888 161.64801133 C270.84204146 177.34935803 270.86287898 193.05054166 270.89597934 208.75185025 C270.92971475 224.87969319 270.94488504 241.00745799 270.94026232 257.13533688 C270.93801782 266.18769701 270.94325825 275.23990635 270.96815491 284.29223633 C270.98916584 291.99718955 270.99276191 299.70190923 270.97385532 307.40687203 C270.96469695 311.3370923 270.96355721 315.2668771 270.98421097 319.19706345 C271.00292061 322.79712632 270.99841879 326.39639709 270.97566515 329.9964298 C270.96950111 331.91085095 270.98787156 333.82530294 271.00720167 335.73963642 C270.91834386 344.36986316 269.04978706 349.17313748 263.32046509 355.50961304 C262.69011353 356.04844116 262.05976196 356.58726929 261.41030884 357.14242554 C260.7825354 357.69672241 260.15476196 358.25101929 259.50796509 358.82211304 C253.60408353 362.77226887 247.49316151 362.55801823 240.65765381 362.5415802 C239.58011396 362.54681688 238.50257412 362.55205356 237.39238155 362.55744892 C233.78129503 362.57245217 230.17035017 362.57315415 226.55923462 362.57382202 C223.97037517 362.58144319 221.38151799 362.58987061 218.79266357 362.5990448 C211.75964875 362.62186254 204.72666416 362.62981158 197.69361734 362.63487124 C193.30040826 362.63813131 188.9072079 362.64465557 184.51400375 362.65187263 C172.344519 362.67143253 160.17504234 362.68784092 148.00554085 362.69074917 C147.2273147 362.69093674 146.44908855 362.69112431 145.64727979 362.69131756 C144.06972114 362.69168381 142.49216249 362.6920475 140.91460384 362.69240867 C140.13153122 362.69259148 139.34845859 362.6927743 138.54165649 362.69296265 C137.75762569 362.6931432 136.97359488 362.69332374 136.16580556 362.69350976 C123.45832449 362.69705234 110.75101277 362.7240826 98.04359044 362.76146054 C84.98944953 362.79955043 71.93539266 362.81890668 58.88119495 362.81920868 C51.55470566 362.81979301 44.22841856 362.82826973 36.90198135 362.85720634 C30.01216004 362.88429407 23.12274531 362.88561933 16.23289108 362.8695507 C13.70452248 362.8677324 11.1761311 362.87446106 8.64781189 362.89036942 C5.19537549 362.91076785 1.74434921 362.90031285 -1.70806885 362.88215637 C-2.70788375 362.89535634 -3.70769865 362.90855631 -4.73781097 362.92215627 C-12.52884289 362.82860951 -17.18035457 360.40659486 -22.89437866 355.24008179 C-23.43320679 354.60973022 -23.97203491 353.97937866 -24.52719116 353.32992554 C-25.08148804 352.7021521 -25.63578491 352.07437866 -26.20687866 351.42758179 C-29.12997032 347.05874479 -29.90198105 342.6397426 -29.91225338 337.46022224 C-29.91931897 336.31762259 -29.92638456 335.17502293 -29.93366426 333.99779904 C-29.93124918 332.7522839 -29.92883409 331.50676876 -29.92634583 330.22351074 C-29.93080059 328.87934601 -29.93611542 327.53518389 -29.94221455 326.19102561 C-29.95637601 322.50309323 -29.9580582 318.81524521 -29.95761764 315.12728953 C-29.95926745 311.14763701 -29.97233686 307.16801908 -29.98381042 303.18838501 C-30.00664496 294.49013394 -30.01457906 285.79190729 -30.01963687 277.09363031 C-30.02289505 271.66186186 -30.02941817 266.23010048 -30.03663826 260.79833603 C-30.05620052 245.75681601 -30.07260747 230.71530256 -30.07551479 215.673769 C-30.07570236 214.71155095 -30.07588993 213.7493329 -30.07608319 212.75795674 C-30.07644943 210.80735644 -30.07681313 208.85675614 -30.0771743 206.90615584 C-30.07735711 205.93788949 -30.07753992 204.96962314 -30.07772827 203.97201538 C-30.07790882 203.00256646 -30.07808937 202.03311753 -30.07827539 201.03429137 C-30.08181832 185.31989006 -30.10884978 169.60562566 -30.14622616 153.89127184 C-30.1843001 137.75445884 -30.20367219 121.6177138 -30.20397431 105.48085487 C-30.20455901 96.42174984 -30.21305942 87.36280825 -30.24197197 78.30374527 C-30.2664734 70.59143376 -30.27377701 62.87934533 -30.25872444 55.16700543 C-30.25155096 51.2327417 -30.2524315 47.29891858 -30.27513504 43.36470413 C-30.29573273 39.76087219 -30.29311837 36.1578194 -30.2722602 32.55399583 C-30.26711573 30.63748225 -30.28653875 28.72095094 -30.3069219 26.80453885 C-30.22273374 18.16788202 -28.35814396 13.36610936 -22.62484741 7.02523804 C-21.99449585 6.48640991 -21.36414429 5.94758179 -20.71469116 5.39242554 C-20.08691772 4.83812866 -19.45914429 4.28383179 -18.81234741 3.71273804 C-12.9171337 -0.23161834 -6.82509365 -0.02113056 0 0 Z M-3.99544525 30.90539551 C-6.21849556 35.41662553 -6.20868331 39.09547783 -6.16012573 44.05990601 C-6.16636569 45.04085173 -6.17260566 46.02179745 -6.17903471 47.0324688 C-6.19497903 50.31676197 -6.18235441 53.60031446 -6.16976929 56.88461304 C-6.17518974 59.2402693 -6.18231197 61.59592216 -6.19100952 63.9515686 C-6.20925469 70.34819083 -6.20217021 76.74455517 -6.18949318 83.14118195 C-6.17878991 89.15464905 -6.18733769 95.16811174 -6.19320196 101.18158031 C-6.20460396 113.81759071 -6.19150007 126.45348499 -6.17000049 139.08947635 C-6.15212981 149.92814777 -6.15523403 160.76664783 -6.17367554 171.60531616 C-6.19508902 184.19657525 -6.20350536 196.78773259 -6.19122648 209.37900734 C-6.18490462 216.04251462 -6.18416651 222.70591923 -6.19737244 229.36941528 C-6.20891999 235.63379426 -6.20092472 241.89784934 -6.17779541 248.1621933 C-6.17250254 250.4624045 -6.17403192 252.76264292 -6.18284607 255.06284332 C-6.19376181 258.20057961 -6.18008498 261.33727525 -6.16012573 264.47494507 C-6.16904862 265.38720289 -6.17797151 266.29946072 -6.18716478 267.23936272 C-6.11949259 272.71659945 -5.42609132 276.00586724 -1.65219116 280.26742554 C2.74477831 284.0305332 7.23709963 283.6924322 12.74755859 283.65510559 C13.69835946 283.66049113 14.64916032 283.66587667 15.62877333 283.6714254 C18.81698817 283.68574085 22.00478992 283.67859228 25.19302368 283.67147827 C27.47794428 283.67717998 29.76286203 283.68414347 32.04777527 283.692276 C38.25646982 283.71024527 44.46502333 283.7090318 50.6737361 283.70333362 C55.85524696 283.70024695 61.03673053 283.70632846 66.21823752 283.71237236 C79.14093746 283.72723259 92.06354895 283.7235937 104.98624738 283.71150906 C116.20392069 283.70157901 127.42142901 283.71451304 138.63907687 283.73844325 C150.16202819 283.76283918 161.68488392 283.77204113 173.2078625 283.76579052 C179.67525168 283.7624173 186.14250457 283.76486033 192.60987473 283.78204155 C198.69202096 283.79749351 204.77385194 283.7935742 210.85598564 283.7747364 C213.0880534 283.7710456 215.32014443 283.77417323 217.55219078 283.78462219 C220.59985568 283.79779981 223.64647206 283.78631247 226.6940918 283.76863098 C227.57688226 283.77823599 228.45967273 283.78784099 229.36921442 283.79773706 C235.17219527 283.72849308 238.68027239 282.8143389 243.34780884 279.26742554 C246.94945995 274.29709031 246.77453309 269.41410532 246.73548889 263.51290894 C246.74087443 262.53604677 246.74625997 261.5591846 246.7518087 260.55272055 C246.76610597 257.28236353 246.75898007 254.01241025 246.75186157 250.74203491 C246.75756415 248.39623184 246.76452797 246.05043154 246.7726593 243.70463562 C246.79061686 237.33491654 246.78941754 230.96533502 246.78371692 224.59559822 C246.78023866 218.60731602 246.78818497 212.61905088 246.79507757 206.63077396 C246.80879933 194.04772253 246.80336693 181.4647333 246.79189236 168.88168329 C246.78195753 157.37240595 246.79490545 145.86328931 246.81882655 134.35403675 C246.84321317 122.53161135 246.85282668 110.70926082 246.84617382 98.88681078 C246.84268098 92.25124586 246.84525266 85.61578878 246.86242485 78.98023987 C246.87786374 72.74213875 246.87397211 66.50434517 246.85511971 60.26625633 C246.85142557 57.97571561 246.85456615 55.68515225 246.86500549 53.39463234 C246.87816005 50.27004527 246.86671633 47.14648468 246.84901428 44.02194214 C246.85861929 43.11357526 246.8682243 42.20520839 246.87812036 41.26931524 C246.81393971 35.77104166 246.00224909 32.63741882 242.34780884 28.26742554 C238.63257575 24.90049555 235.20354979 24.14589397 230.28038216 24.13320446 C229.07221468 24.12651769 229.07221468 24.12651769 227.83963978 24.11969584 C226.52087875 24.11997239 226.52087875 24.11997239 225.17547607 24.12025452 C224.23707473 24.11657783 223.29867338 24.11290114 222.33183563 24.10911304 C219.17976519 24.09807848 216.02772773 24.09423278 212.87564087 24.09042358 C210.61880387 24.08415891 208.3619679 24.07751211 206.10513306 24.07051086 C199.96880271 24.05310511 193.83248014 24.04255087 187.69613123 24.03430533 C183.86410925 24.02915569 180.0320897 24.02308004 176.20006943 24.0167942 C165.58849183 23.99992825 154.97691637 23.98529201 144.36532784 23.97804546 C141.61323165 23.97613563 138.86113546 23.97421528 136.10903931 23.97225952 C135.08303101 23.97153391 135.08303101 23.97153391 134.03629528 23.97079364 C122.95045849 23.96248939 111.86472945 23.93714351 100.77893974 23.90467884 C89.39503291 23.871613 78.01120018 23.85393011 66.62723815 23.85040122 C60.23641692 23.8480474 53.84576619 23.83904323 47.45499039 23.81394005 C41.44511464 23.79071375 35.43552234 23.78640427 29.4256134 23.79670143 C27.21891718 23.79719818 25.01220724 23.79083711 22.80555344 23.77714539 C19.7947298 23.75950777 16.78493244 23.76649285 13.77410889 23.77967834 C12.89939631 23.7687091 12.02468373 23.75773985 11.1234647 23.74643821 C4.27679903 23.8189106 0.63547108 25.69203932 -3.99544525 30.90539551 Z " fill="#020202" transform="translate(129.65219116210938,62.732574462890625)"/>
<path d="M0 0 C3.3 0 6.6 0 10 0 C10 9.57 10 19.14 10 29 C12.97 29 15.94 29 19 29 C19 25.7 19 22.4 19 19 C25.93359375 18.90234375 25.93359375 18.90234375 28 19 C29 20 29 20 29.09765625 22.06640625 C29.06510417 24.37760417 29.03255208 26.68880208 29 29 C31.97 29 34.94 29 38 29 C38 25.7 38 22.4 38 19 C35.03 19 32.06 19 29 19 C29 16.03 29 13.06 29 10 C31.97 10 34.94 10 38 10 C38 6.7 38 3.4 38 0 C41.3 0 44.6 0 48 0 C48 12.54 48 25.08 48 38 C41.73 38 35.46 38 29 38 C29 41.3 29 44.6 29 48 C22.73 48 16.46 48 10 48 C10 50.97 10 53.94 10 57 C6.7 57 3.4 57 0 57 C0 60.3 0 63.6 0 67 C3.3 67 6.6 67 10 67 C10 69.97 10 72.94 10 76 C12.97 76 15.94 76 19 76 C19 69.73 19 63.46 19 57 C22.3 57 25.6 57 29 57 C29 60.3 29 63.6 29 67 C31.97 67 34.94 67 38 67 C38 63.7 38 60.4 38 57 C44.27 57 50.54 57 57 57 C57 50.73 57 44.46 57 38 C66.57 38 76.14 38 86 38 C86 41.3 86 44.6 86 48 C90.455 47.505 90.455 47.505 95 47 C95.33 44.03 95.66 41.06 96 38 C102.27 38 108.54 38 115 38 C115 41.3 115 44.6 115 48 C117.97 48 120.94 48 124 48 C124 54.27 124 60.54 124 67 C121.03 67 118.06 67 115 67 C115 69.97 115 72.94 115 76 C117.97 76 120.94 76 124 76 C124 82.27 124 88.54 124 95 C119.545 95.495 119.545 95.495 115 96 C114.67 98.97 114.34 101.94 114 105 C111.03 105 108.06 105 105 105 C105 92.46 105 79.92 105 67 C101.7 67 98.4 67 95 67 C95 79.54 95 92.08 95 105 C79.49 105 63.98 105 48 105 C48 107.97 48 110.94 48 114 C50.97 114 53.94 114 57 114 C57 117.3 57 120.6 57 124 C54.03 124 51.06 124 48 124 C48 121.03 48 118.06 48 115 C44.7 115 41.4 115 38 115 C38 117.97 38 120.94 38 124 C35.03 124 32.06 124 29 124 C29 121.03 29 118.06 29 115 C26.03 115 23.06 115 20 115 C20 120.94 20 126.88 20 133 C22.64 133 25.28 133 28 133 C29 134 29 134 29.09765625 136.06640625 C29.06510417 138.37760417 29.03255208 140.68880208 29 143 C25.7 143 22.4 143 19 143 C19 140.03 19 137.06 19 134 C17.71222656 134.01160156 16.42445313 134.02320313 15.09765625 134.03515625 C13.41927228 134.0445327 11.74088674 134.05363305 10.0625 134.0625 C9.21236328 134.07087891 8.36222656 134.07925781 7.48632812 134.08789062 C6.67744141 134.09111328 5.86855469 134.09433594 5.03515625 134.09765625 C4.2862915 134.10289307 3.53742676 134.10812988 2.76586914 134.11352539 C1 134 1 134 0 133 C-0.14193337 129.99668982 -0.04236378 127.00782866 0 124 C2.97 124 5.94 124 9 124 C9 120.7 9 117.4 9 114 C12.3 114 15.6 114 19 114 C19 111.03 19 108.06 19 105 C12.73 105 6.46 105 0 105 C0 98.73 0 92.46 0 86 C-9.57 86 -19.14 86 -29 86 C-29 77 -29 77 -28 76 C-26.58429877 75.91348389 -25.164405 75.89295096 -23.74609375 75.90234375 C-22.46508789 75.90717773 -22.46508789 75.90717773 -21.15820312 75.91210938 C-20.26037109 75.92048828 -19.36253906 75.92886719 -18.4375 75.9375 C-17.53580078 75.94201172 -16.63410156 75.94652344 -15.70507812 75.95117188 C-13.47002411 75.96299756 -11.23500398 75.98093362 -9 76 C-9 73.03 -9 70.06 -9 67 C-18.57 67 -28.14 67 -38 67 C-38 69.97 -38 72.94 -38 76 C-44.27 76 -50.54 76 -57 76 C-57 79.3 -57 82.6 -57 86 C-59.97 86 -62.94 86 -66 86 C-66 79.73 -66 73.46 -66 67 C-69.3 67 -72.6 67 -76 67 C-76 57.43 -76 47.86 -76 38 C-69.73 38 -63.46 38 -57 38 C-57 41.3 -57 44.6 -57 48 C-59.97 48 -62.94 48 -66 48 C-66 50.97 -66 53.94 -66 57 C-59.73 57 -53.46 57 -47 57 C-47 50.73 -47 44.46 -47 38 C-44.03 38 -41.06 38 -38 38 C-38 41.3 -38 44.6 -38 48 C-31.73 48 -25.46 48 -19 48 C-19 44.7 -19 41.4 -19 38 C-12.73 38 -6.46 38 0 38 C0 25.46 0 12.92 0 0 Z " fill="#828282" transform="translate(226,156)"/>
<path d="M0 0 C9.57 0 19.14 0 29 0 C29 3.3 29 6.6 29 10 C33.455 9.505 33.455 9.505 38 9 C38.33 6.03 38.66 3.06 39 0 C45.27 0 51.54 0 58 0 C58 3.3 58 6.6 58 10 C60.97 10 63.94 10 67 10 C67 16.27 67 22.54 67 29 C64.03 29 61.06 29 58 29 C58 31.97 58 34.94 58 38 C60.97 38 63.94 38 67 38 C67 44.27 67 50.54 67 57 C62.545 57.495 62.545 57.495 58 58 C57.67 60.97 57.34 63.94 57 67 C54.03 67 51.06 67 48 67 C48 54.46 48 41.92 48 29 C44.7 29 41.4 29 38 29 C38 41.54 38 54.08 38 67 C16.22 67 -5.56 67 -28 67 C-28 63.7 -28 60.4 -28 57 C-25.03 57 -22.06 57 -19 57 C-19 54.03 -19 51.06 -19 48 C-21.97 48 -24.94 48 -28 48 C-28 44.7 -28 41.4 -28 38 C-25.03 38 -22.06 38 -19 38 C-19 31.73 -19 25.46 -19 19 C-12.73 19 -6.46 19 0 19 C0 12.73 0 6.46 0 0 Z " fill="#838383" transform="translate(283,194)"/>
<path d="M0 0 C22.11 0 44.22 0 67 0 C67 22.11 67 44.22 67 67 C44.89 67 22.78 67 0 67 C0 44.89 0 22.78 0 0 Z " fill="#FAFAFA" transform="translate(150,251)"/>
<path d="M0 0 C22.11 0 44.22 0 67 0 C67 22.11 67 44.22 67 67 C44.89 67 22.78 67 0 67 C0 44.89 0 22.78 0 0 Z " fill="#FAFAFA" transform="translate(283,118)"/>
<path d="M0 0 C22.11 0 44.22 0 67 0 C67 22.11 67 44.22 67 67 C44.89 67 22.78 67 0 67 C0 44.89 0 22.78 0 0 Z " fill="#FAFAFA" transform="translate(150,118)"/>
<path d="M0 0 C22.11 0 44.22 0 67 0 C67 22.11 67 44.22 67 67 C44.89 67 22.78 67 0 67 C0 44.89 0 22.78 0 0 Z M9 10 C9 25.51 9 41.02 9 57 C24.84 57 40.68 57 57 57 C57 41.49 57 25.98 57 10 C41.16 10 25.32 10 9 10 Z " fill="#848484" transform="translate(150,251)"/>
<path d="M0 0 C22.11 0 44.22 0 67 0 C67 22.11 67 44.22 67 67 C44.89 67 22.78 67 0 67 C0 44.89 0 22.78 0 0 Z M10 10 C10 25.51 10 41.02 10 57 C25.84 57 41.68 57 58 57 C58 41.49 58 25.98 58 10 C42.16 10 26.32 10 10 10 Z " fill="#848484" transform="translate(283,118)"/>
<path d="M0 0 C22.11 0 44.22 0 67 0 C67 22.11 67 44.22 67 67 C44.89 67 22.78 67 0 67 C0 44.89 0 22.78 0 0 Z M10 9 C10 24.84 10 40.68 10 57 C25.51 57 41.02 57 57 57 C57 41.16 57 25.32 57 9 C41.49 9 25.98 9 10 9 Z " fill="#848484" transform="translate(150,118)"/>
<path d="M0 0 C3.3 0 6.6 0 10 0 C10 9.57 10 19.14 10 29 C12.97 29 15.94 29 19 29 C19 25.7 19 22.4 19 19 C25.93359375 18.90234375 25.93359375 18.90234375 28 19 C29 20 29 20 29.09765625 22.06640625 C29.06510417 24.37760417 29.03255208 26.68880208 29 29 C31.97 29 34.94 29 38 29 C38 25.7 38 22.4 38 19 C35.03 19 32.06 19 29 19 C29 16.03 29 13.06 29 10 C31.97 10 34.94 10 38 10 C38 6.7 38 3.4 38 0 C41.3 0 44.6 0 48 0 C48 12.54 48 25.08 48 38 C41.73 38 35.46 38 29 38 C29 41.3 29 44.6 29 48 C19.43 48 9.86 48 0 48 C0 45.03 0 42.06 0 39 C-5.94 39 -11.88 39 -18 39 C-18 41.64 -18 44.28 -18 47 C-15.03 47 -12.06 47 -9 47 C-9 50.3 -9 53.6 -9 57 C-12.3 57 -15.6 57 -19 57 C-19 50.73 -19 44.46 -19 38 C-12.73 38 -6.46 38 0 38 C0 25.46 0 12.92 0 0 Z " fill="#848484" transform="translate(226,156)"/>
<path d="M0 0 C3.63 0 7.26 0 11 0 C12.50640038 3.60161201 14.00534134 7.20601881 15.5 10.8125 C16.14388672 12.34874023 16.14388672 12.34874023 16.80078125 13.91601562 C17.40986328 15.39038086 17.40986328 15.39038086 18.03125 16.89453125 C18.40830078 17.80050049 18.78535156 18.70646973 19.17382812 19.63989258 C20 22 20 22 20 25 C20.66 25 21.32 25 22 25 C22.12689209 24.27530518 22.25378418 23.55061035 22.38452148 22.80395508 C22.98109622 20.08612055 23.80140772 17.71082227 24.84765625 15.13671875 C25.20537109 14.25048828 25.56308594 13.36425781 25.93164062 12.45117188 C26.30482422 11.53916016 26.67800781 10.62714844 27.0625 9.6875 C27.43955078 8.75615234 27.81660156 7.82480469 28.20507812 6.86523438 C29.13281967 4.57523942 30.06588811 2.28740382 31 0 C34.63 0 38.26 0 42 0 C42 12.21 42 24.42 42 37 C39.03 37 36.06 37 33 37 C32.67 30.73 32.34 24.46 32 18 C29.69 24.27 27.38 30.54 25 37 C22.36 37 19.72 37 17 37 C14.69 30.73 12.38 24.46 10 18 C9.67 24.27 9.34 30.54 9 37 C6.03 37 3.06 37 0 37 C0 24.79 0 12.58 0 0 Z " fill="#F3F3F3" transform="translate(295,368)"/>
<path d="M0 0 C5.94 0 11.88 0 18 0 C18 2.97 18 5.94 18 9 C24.6 9 31.2 9 38 9 C38 12.3 38 15.6 38 19 C40.97 19 43.94 19 47 19 C47 21.97 47 24.94 47 28 C34.46 28 21.92 28 9 28 C9 31.3 9 34.6 9 38 C2.73 38 -3.54 38 -10 38 C-10 34.7 -10 31.4 -10 28 C-7.03 28 -4.06 28 -1 28 C-1 25.03 -1 22.06 -1 19 C2.3 19 5.6 19 9 19 C9 15.7 9 12.4 9 9 C6.03 9 3.06 9 0 9 C0 6.03 0 3.06 0 0 Z " fill="#FCFCFC" transform="translate(265,223)"/>
<path d="M0 0 C9 0 9 0 11.30688477 1.92773438 C12.1159729 3.24741211 12.1159729 3.24741211 12.94140625 4.59375 C13.54404297 5.54121094 14.14667969 6.48867188 14.76757812 7.46484375 C15.35990234 8.46644531 15.95222656 9.46804688 16.5625 10.5 C17.18962891 11.50160156 17.81675781 12.50320313 18.46289062 13.53515625 C20.00404663 16.00571168 21.50593623 18.50068421 23 21 C23.33 14.07 23.66 7.14 24 0 C26.97 0 29.94 0 33 0 C33 12.21 33 24.42 33 37 C24 37 24 37 21.58203125 34.9453125 C20.70611328 33.54925781 20.70611328 33.54925781 19.8125 32.125 C19.16925781 31.13113281 18.52601563 30.13726562 17.86328125 29.11328125 C16.94095703 27.57220703 16.94095703 27.57220703 16 26 C15.09314453 24.53626953 15.09314453 24.53626953 14.16796875 23.04296875 C12.74588366 20.71501213 11.36814966 18.36005816 10 16 C9.67 22.93 9.34 29.86 9 37 C6.03 37 3.06 37 0 37 C0 24.79 0 12.58 0 0 Z " fill="#F6F6F6" transform="translate(245,368)"/>
<path d="M0 0 C9.24 0 18.48 0 28 0 C28 9.24 28 18.48 28 28 C18.76 28 9.52 28 0 28 C0 18.76 0 9.52 0 0 Z " fill="#808080" transform="translate(169,271)"/>
<path d="M0 0 C9.24 0 18.48 0 28 0 C28 9.24 28 18.48 28 28 C18.76 28 9.52 28 0 28 C0 18.76 0 9.52 0 0 Z " fill="#808080" transform="translate(303,137)"/>
<path d="M0 0 C9.24 0 18.48 0 28 0 C28 9.24 28 18.48 28 28 C18.76 28 9.52 28 0 28 C0 18.76 0 9.52 0 0 Z " fill="#808080" transform="translate(169,137)"/>
<path d="M0 0 C2.97 0 5.94 0 9 0 C9 3.3 9 6.6 9 10 C15.27 10 21.54 10 28 10 C28 12.97 28 15.94 28 19 C21.73 19 15.46 19 9 19 C9 21.97 9 24.94 9 28 C6.03 28.33 3.06 28.66 0 29 C-0.33 31.97 -0.66 34.94 -1 38 C-6.94 38 -12.88 38 -19 38 C-19 35.03 -19 32.06 -19 29 C-16.03 29 -13.06 29 -10 29 C-10 22.73 -10 16.46 -10 10 C-5.545 9.505 -5.545 9.505 -1 9 C-0.67 6.03 -0.34 3.06 0 0 Z " fill="#808080" transform="translate(303,280)"/>
<path d="M0 0 C3.3 0 6.6 0 10 0 C13.60587515 9.12137057 17.15607485 18.25608303 20.4375 27.5 C20.69611816 28.2230835 20.95473633 28.94616699 21.22119141 29.69116211 C23 34.75387814 23 34.75387814 23 37 C20.03 37 17.06 37 14 37 C13.34 35.02 12.68 33.04 12 31 C7.05 31 2.1 31 -3 31 C-3.33 32.98 -3.66 34.96 -4 37 C-6.97 37 -9.94 37 -13 37 C-12.34251765 31.91653889 -10.87063628 27.410598 -9.125 22.625 C-8.86847656 21.90828125 -8.61195313 21.1915625 -8.34765625 20.453125 C-7.57380924 18.29879714 -6.78925367 16.14872782 -6 14 C-5.73437256 13.27458008 -5.46874512 12.54916016 -5.19506836 11.80175781 C-3.68687394 7.72423809 -2.02177713 3.85100405 0 0 Z " fill="#F4F4F4" transform="translate(218,368)"/>
<path d="M0 0 C3.51183484 2.47424727 6.42236069 5.30572236 8.75 8.9375 C8.75 9.9275 8.75 10.9175 8.75 11.9375 C5.3861302 12.16860556 2.10710903 12.29870793 -1.25 11.9375 C-3.5 9.9375 -3.5 9.9375 -5.25 7.9375 C-9.24656562 7.1722002 -10.73948071 7.59345439 -14.125 9.875 C-16.61997333 13.47069685 -16.93576604 15.49443797 -16.6640625 19.77734375 C-16.01254389 23.17630404 -14.9505597 24.79090127 -12.25 26.9375 C-8.79271642 27.68761367 -8.79271642 27.68761367 -5.25 26.9375 C-4.46625 26.2775 -3.6825 25.6175 -2.875 24.9375 C0.88480097 22.07288974 4.18182901 22.57921208 8.75 22.9375 C8.2438686 27.36614971 6.90110054 29.78639946 3.75 32.9375 C-1.99221401 36.33595319 -7.65889975 36.92237705 -14.25 35.9375 C-18.92378727 34.25493658 -22.19422559 31.64056078 -24.75 27.375 C-26.99990147 22.08170503 -27.02885203 16.57225599 -26.25 10.9375 C-23.93026575 6.03036985 -20.53223069 3.1263952 -16.25 -0.0625 C-10.88620867 -1.85043044 -5.36227662 -1.75305197 0 0 Z " fill="#F5F5F5" transform="translate(192.25,369.0625)"/>
<path d="M0 0 C3.91075925 1.98968453 5.57689098 3.36533646 8 7 C8 8.32 8 9.64 8 11 C4.7 11 1.4 11 -2 11 C-2 10.01 -2 9.02 -2 8 C-3.98 8 -5.96 8 -8 8 C-7.95711504 10.43633288 -7.95711504 10.43633288 -7 13 C-4.38291226 14.52098217 -4.38291226 14.52098217 -1.1875 15.5 C3.67675422 17.15894175 6.16626455 18.64506689 9 23 C9.67907735 26.98957946 9.17886254 28.66782671 7.25 32.25 C4.42010586 35.7087595 2.63107749 36.80463417 -1.8046875 37.3359375 C-6.60116969 37.39696145 -10.17463271 37.35576176 -14.625 35.4375 C-17.52486881 32.46131885 -18.22332873 30.03869062 -19 26 C-15.7 26 -12.4 26 -9 26 C-8.67 27.32 -8.34 28.64 -8 30 C-6.02 29.67 -4.04 29.34 -2 29 C-2.08512977 26.54319987 -2.08512977 26.54319987 -3 24 C-5.36193265 22.73632351 -5.36193265 22.73632351 -8.25 22.0625 C-13.67898923 20.29754901 -16.15798847 18.99802028 -19 14 C-19.625 10.4375 -19.625 10.4375 -19 7 C-13.39149646 0.17884705 -8.50226374 -1.00812556 0 0 Z " fill="#F3F3F3" transform="translate(153,368)"/>
<path d="M0 0 C3.609375 -0.020625 7.21875 -0.04125 10.9375 -0.0625 C12.07695068 -0.071604 13.21640137 -0.08070801 14.39038086 -0.09008789 C15.28120361 -0.09258545 16.17202637 -0.09508301 17.08984375 -0.09765625 C18.46450806 -0.10551147 18.46450806 -0.10551147 19.86694336 -0.11352539 C22 0 22 0 23 1 C23 3.31 23 5.62 23 8 C18.38 8 13.76 8 9 8 C9 10.31 9 12.62 9 15 C12.96 15 16.92 15 21 15 C21 17.31 21 19.62 21 22 C17.04 22 13.08 22 9 22 C9 24.64 9 27.28 9 30 C13.29 30 17.58 30 22 30 C22 32.31 22 34.62 22 37 C14.74 37 7.48 37 0 37 C0 24.79 0 12.58 0 0 Z " fill="#F5F5F5" transform="translate(343,368)"/>
<path d="M0 0 C2.97 0 5.94 0 9 0 C9 12.54 9 25.08 9 38 C6.03 38 3.06 38 0 38 C-0.33 35.03 -0.66 32.06 -1 29 C-3.97 28.67 -6.94 28.34 -10 28 C-10 21.73 -10 15.46 -10 9 C-6.7 9 -3.4 9 0 9 C0 6.03 0 3.06 0 0 Z " fill="#828282" transform="translate(236,118)"/>
<path d="M0 0 C2.97 0 5.94 0 9 0 C9 3.3 9 6.6 9 10 C12.3 10 15.6 10 19 10 C19 15.94 19 21.88 19 28 C16.03 28.33 13.06 28.66 10 29 C9.67 31.97 9.34 34.94 9 38 C6.03 38 3.06 38 0 38 C0 25.46 0 12.92 0 0 Z " fill="#808080" transform="translate(331,223)"/>
<path d="M0 0 C3.3 0 6.6 0 10 0 C10 2.97 10 5.94 10 9 C11.28777344 8.98839844 12.57554687 8.97679687 13.90234375 8.96484375 C15.58072772 8.9554673 17.25911326 8.94636695 18.9375 8.9375 C20.21270508 8.92493164 20.21270508 8.92493164 21.51367188 8.91210938 C22.32255859 8.90888672 23.13144531 8.90566406 23.96484375 8.90234375 C24.7137085 8.89710693 25.46257324 8.89187012 26.23413086 8.88647461 C28 9 28 9 29 10 C29 12.97 29 15.94 29 19 C19.43 19 9.86 19 0 19 C0 12.73 0 6.46 0 0 Z " fill="#868686" transform="translate(226,299)"/>
<path d="M0 0 C2.97 0 5.94 0 9 0 C9 2.97 9 5.94 9 9 C12.3 9 15.6 9 19 9 C19 15.27 19 21.54 19 28 C16.03 28 13.06 28 10 28 C9.67 25.03 9.34 22.06 9 19 C6.03 18.67 3.06 18.34 0 18 C0 12.06 0 6.12 0 0 Z " fill="#808080" transform="translate(331,271)"/>
<path d="M0 0 C1.16781006 0.00523682 2.33562012 0.01047363 3.53881836 0.01586914 C4.79887695 0.0190918 6.05893555 0.02231445 7.35717773 0.02563477 C8.6976732 0.03399136 10.03816799 0.04245632 11.37866211 0.05102539 C12.72306153 0.05603879 14.06746271 0.06060197 15.41186523 0.06469727 C18.71334151 0.07653051 22.01473014 0.09301568 25.31616211 0.11352539 C25.31616211 3.41352539 25.31616211 6.71352539 25.31616211 10.11352539 C15.74616211 10.11352539 6.17616211 10.11352539 -3.68383789 10.11352539 C-3.68383789 0.15582504 -3.68383789 0.15582504 0 0 Z " fill="#F7F7F7" transform="translate(286.683837890625,212.886474609375)"/>
<path d="M0 0 C6.27 0 12.54 0 19 0 C19 6.27 19 12.54 19 19 C16.03 19 13.06 19 10 19 C10 16.03 10 13.06 10 10 C6.7 10 3.4 10 0 10 C0 6.7 0 3.4 0 0 Z " fill="#858585" transform="translate(264,289)"/>
<path d="M0 0 C6.27 0 12.54 0 19 0 C19 3.3 19 6.6 19 10 C15.7 10 12.4 10 9 10 C9 12.97 9 15.94 9 19 C6.03 19 3.06 19 0 19 C0 12.73 0 6.46 0 0 Z " fill="#838383" transform="translate(255,118)"/>
<path d="M0 0 C0.33 0 0.66 0 1 0 C1 2.97 1 5.94 1 9 C3.97 9 6.94 9 10 9 C10 12.3 10 15.6 10 19 C3.73 19 -2.54 19 -9 19 C-9 15.7 -9 12.4 -9 9 C-6.03 9 -3.06 9 0 9 C0 6.03 0 3.06 0 0 Z " fill="#F5F5F5" transform="translate(264,223)"/>
<path d="M0 0 C6.27 0 12.54 0 19 0 C19 0.33 19 0.66 19 1 C16.36 1 13.72 1 11 1 C11 6.94 11 12.88 11 19 C13.64 19 16.28 19 19 19 C20 20 20 20 20.09765625 22.06640625 C20.06510417 24.37760417 20.03255208 26.68880208 20 29 C16.7 29 13.4 29 10 29 C10 26.03 10 23.06 10 20 C4.06 20 -1.88 20 -8 20 C-8 19.67 -8 19.34 -8 19 C-2.06 19 3.88 19 10 19 C10 13.06 10 7.12 10 1 C7.03 1 4.06 1 1 1 C1 3.97 1 6.94 1 10 C0.67 10 0.34 10 0 10 C0 6.7 0 3.4 0 0 Z " fill="#C6C6C6" transform="translate(235,270)"/>
<path d="M0 0 C5.94 0 11.88 0 18 0 C18 2.64 18 5.28 18 8 C12.06 8 6.12 8 0 8 C0 5.36 0 2.72 0 0 Z " fill="#808080" transform="translate(265,214)"/>
<path d="M0 0 C3.3 0 6.6 0 10 0 C10 0.33 10 0.66 10 1 C7.03 1 4.06 1 1 1 C1 3.97 1 6.94 1 10 C3.97 10 6.94 10 10 10 C10 13.3 10 16.6 10 20 C7.03 20 4.06 20 1 20 C0.11744572 13.2705236 -0.08592955 6.78843417 0 0 Z " fill="#F1F1F1" transform="translate(254,165)"/>
<path d="M0 0 C3.46679688 0.04882812 3.46679688 0.04882812 6.93359375 0.09765625 C6.93359375 3.39765625 6.93359375 6.69765625 6.93359375 10.09765625 C3.63359375 10.09765625 0.33359375 10.09765625 -3.06640625 10.09765625 C-3.1640625 3.1640625 -3.1640625 3.1640625 -3.06640625 1.09765625 C-2.06640625 0.09765625 -2.06640625 0.09765625 0 0 Z " fill="#8B8B8B" transform="translate(267.06640625,231.90234375)"/>
<path d="M0 0 C3.46679688 0.04882812 3.46679688 0.04882812 6.93359375 0.09765625 C6.93359375 3.39765625 6.93359375 6.69765625 6.93359375 10.09765625 C3.63359375 10.09765625 0.33359375 10.09765625 -3.06640625 10.09765625 C-3.1640625 3.1640625 -3.1640625 3.1640625 -3.06640625 1.09765625 C-2.06640625 0.09765625 -2.06640625 0.09765625 0 0 Z " fill="#F2F2F2" transform="translate(229.06640625,193.90234375)"/>
<path d="M0 0 C2.97 0 5.94 0 9 0 C9 3.3 9 6.6 9 10 C6.03 10 3.06 10 0 10 C0 6.7 0 3.4 0 0 Z " fill="#F8F8F8" transform="translate(331,213)"/>
<path d="M0 0 C3.3 0 6.6 0 10 0 C10 2.97 10 5.94 10 9 C6.7 9 3.4 9 0 9 C0 6.03 0 3.06 0 0 Z " fill="#F8F8F8" transform="translate(207,204)"/>
<path d="M0 0 C3.3 0 6.6 0 10 0 C10 2.97 10 5.94 10 9 C6.7 9 3.4 9 0 9 C0 6.03 0 3.06 0 0 Z " fill="#868686" transform="translate(264,137)"/>
<path d="M0 0 C2.97 0 5.94 0 9 0 C9 2.97 9 5.94 9 9 C6.03 9 3.06 9 0 9 C0 6.03 0 3.06 0 0 Z " fill="#808080" transform="translate(331,309)"/>
<path d="M0 0 C2.97 0 5.94 0 9 0 C9 2.97 9 5.94 9 9 C6.03 9 3.06 9 0 9 C0 6.03 0 3.06 0 0 Z " fill="#808080" transform="translate(312,309)"/>
<path d="M0 0 C2.97 0 5.94 0 9 0 C9 2.97 9 5.94 9 9 C6.03 9 3.06 9 0 9 C0 6.03 0 3.06 0 0 Z " fill="#838383" transform="translate(246,290)"/>
<path d="M0 0 C2.97 0 5.94 0 9 0 C9 2.97 9 5.94 9 9 C6.03 9 3.06 9 0 9 C0 6.03 0 3.06 0 0 Z " fill="#808080" transform="translate(341,261)"/>
<path d="M0 0 C2.97 0 5.94 0 9 0 C9 2.97 9 5.94 9 9 C6.03 9 3.06 9 0 9 C0 6.03 0 3.06 0 0 Z " fill="#808080" transform="translate(255,147)"/>
<path d="M0 0 C2 1 2 1 2.8515625 2.9609375 C3.10679687 3.75757813 3.36203125 4.55421875 3.625 5.375 C3.88539063 6.16648437 4.14578125 6.95796875 4.4140625 7.7734375 C5 10 5 10 5 13 C2.36 13 -0.28 13 -3 13 C-2.45144652 8.428721 -1.58255197 4.32564205 0 0 Z " fill="#1C1C1C" transform="translate(222,379)"/>
<path d="M0 0 C0.33 0 0.66 0 1 0 C1 2.64 1 5.28 1 8 C3.97 8 6.94 8 10 8 C10 8.33 10 8.66 10 9 C7.03 9 4.06 9 1 9 C1 11.97 1 14.94 1 18 C3.97 18 6.94 18 10 18 C10 18.33 10 18.66 10 19 C7.03 19 4.06 19 1 19 C1 21.97 1 24.94 1 28 C0.67 28 0.34 28 0 28 C0 25.03 0 22.06 0 19 C-2.97 19 -5.94 19 -9 19 C-9 18.67 -9 18.34 -9 18 C-6.03 18 -3.06 18 0 18 C0 12.06 0 6.12 0 0 Z " fill="#C4C4C4" transform="translate(340,252)"/>
</svg>
