<?xml version="1.0" encoding="UTF-8"?>
<svg version="1.1" xmlns="http://www.w3.org/2000/svg" width="500" height="500">
<path d="M0 0 C165 0 330 0 500 0 C500 165 500 330 500 500 C335 500 170 500 0 500 C0 335 0 170 0 0 Z " fill="#FEFEFE" transform="translate(0,0)"/>
<path d="M0 0 C1.74596214 1.34193134 1.74596214 1.34193134 3.52059937 2.98982239 C8.722997 7.03790559 13.5268541 6.82437561 19.92041016 6.7253418 C21.09212265 6.73115265 22.26383514 6.7369635 23.47105408 6.74295044 C27.32756583 6.75571423 31.18264947 6.72707511 35.0390625 6.69921875 C37.72613357 6.69922421 40.41313938 6.70912246 43.10018921 6.7191925 C49.44299787 6.73802496 55.78540517 6.72908737 62.12819517 6.70787126 C73.48808703 6.67011166 84.84792319 6.66605546 96.20784414 6.69272357 C100.83111268 6.70209155 105.45385288 6.68475932 110.07705688 6.6615448 C112.49749758 6.66129668 114.91793847 6.66169417 117.33837891 6.6628418 C118.98432793 6.64654976 118.98432793 6.64654976 120.66352844 6.62992859 C126.97611001 6.65398451 131.80752946 7.0198553 136.64453125 11.53515625 C139.89695869 15.78833059 141.12090161 17.84093682 141.19287109 23.14892578 C141.21696548 24.76167892 141.21696548 24.76167892 141.24154663 26.40701294 C141.28601981 31.34132287 141.32708591 36.27549726 141.35009766 41.20996094 C141.36663147 43.80933603 141.39388694 46.40866614 141.43212891 49.0078125 C141.48702676 52.75805223 141.50879571 56.50722447 141.5234375 60.2578125 C141.54610687 61.41330597 141.56877625 62.56879944 141.59213257 63.75930786 C141.57631435 69.83165889 141.05262558 74.24214243 137.75894165 79.40499878 C132.02375867 84.60563966 125.34190851 84.43268707 118.03100586 84.39440918 C116.38785479 84.40354584 116.38785479 84.40354584 114.71150875 84.41286707 C111.04584796 84.4294982 107.38053449 84.42472096 103.71484375 84.41992188 C101.08480468 84.42726201 98.45476883 84.43584808 95.82473755 84.44558716 C89.42578765 84.46661433 83.02692841 84.47118363 76.62794805 84.46939927 C71.42650456 84.46809053 66.2250893 84.47190147 61.02365112 84.47932434 C59.52418105 84.48142357 58.02471098 84.48352117 56.5252409 84.48561716 C55.40569124 84.48718245 55.40569124 84.48718245 54.26352441 84.48877937 C40.15677145 84.50767002 26.05007051 84.50663485 11.94331014 84.49981004 C-0.95878429 84.49423265 -13.86068028 84.51507036 -26.76272833 84.54817051 C-40.0169163 84.58190976 -53.27100919 84.59707574 -66.5252409 84.59245348 C-73.96401371 84.59020938 -81.40260301 84.59544347 -88.84133911 84.62034607 C-95.83460144 84.64355858 -102.82744354 84.64077373 -109.82071304 84.62041855 C-112.38819829 84.61700051 -114.95571116 84.62213149 -117.52315903 84.63640213 C-121.02626045 84.6545311 -124.5279478 84.6418906 -128.03100586 84.62145996 C-129.04861527 84.63397781 -130.06622469 84.64649566 -131.11467075 84.65939283 C-137.71628156 84.57676275 -141.06680989 83.45836235 -146 79 C-149.80702454 72.93260024 -149.45185615 66.721057 -149.43359375 59.71484375 C-149.44145653 57.95316612 -149.44145653 57.95316612 -149.44947815 56.15589905 C-149.45588352 53.68068226 -149.45458069 51.20543497 -149.44604492 48.73022461 C-149.43752039 44.94655242 -149.46634343 41.1643832 -149.49804688 37.38085938 C-149.49965869 34.97135462 -149.49908173 32.56184719 -149.49609375 30.15234375 C-149.50732773 29.02408676 -149.51856171 27.89582977 -149.53013611 26.73338318 C-149.47493902 20.50772678 -149.21333767 16.71101015 -145 12 C-140.9066119 8.39392001 -138.61420768 6.8776264 -133.19950867 6.86196899 C-131.67905441 6.85378899 -131.67905441 6.85378899 -130.12788391 6.84544373 C-129.01149033 6.8444014 -127.89509674 6.84335907 -126.74487305 6.84228516 C-125.57243042 6.83720444 -124.39998779 6.83212372 -123.1920166 6.82688904 C-119.97082847 6.81336121 -116.74965393 6.80398694 -113.52844977 6.79547167 C-110.15816508 6.78476091 -106.78792818 6.76617764 -103.41767883 6.74765015 C-91.93319547 6.68571211 -80.44871668 6.63172625 -68.96411133 6.59863281 C-62.62335626 6.5802813 -56.28274138 6.55133817 -49.94208938 6.5106281 C-46.58676605 6.48956541 -43.23161935 6.47410194 -39.87622643 6.47182083 C-36.13171143 6.46692518 -32.38771966 6.44380042 -28.64331055 6.41650391 C-27.53298965 6.41951004 -26.42266876 6.42251617 -25.27870178 6.4256134 C-18.81518129 6.35546366 -15.03708144 5.82762755 -10.1875 1.3125 C-6.84920477 -0.69047714 -3.71150953 -0.884979 0 0 Z " fill="#020202" transform="translate(254,347)"/>
<path d="M0 0 C7.92 0 15.84 0 24 0 C24 3.96 24 7.92 24 12 C19.71 12 15.42 12 11 12 C11 15.96 11 19.92 11 24 C19.25 24 27.5 24 36 24 C36 16.08 36 8.16 36 0 C39.96 0 43.92 0 48 0 C48 3.96 48 7.92 48 12 C55.59 12 63.18 12 71 12 C71 8.04 71 4.08 71 0 C78.92 0 86.84 0 95 0 C95 4.29 95 8.58 95 13 C98.96 13 102.92 13 107 13 C107 16.63 107 20.26 107 24 C103.04 24 99.08 24 95 24 C95 27.96 95 31.92 95 36 C98.96 36 102.92 36 107 36 C107 39.96 107 43.92 107 48 C110.96 48 114.92 48 119 48 C119 40.08 119 32.16 119 24 C122.96 24 126.92 24 131 24 C131 27.96 131 31.92 131 36 C134.63 36 138.26 36 142 36 C142 39.63 142 43.26 142 47 C138.37 47 134.74 47 131 47 C131 51.29 131 55.58 131 60 C134.63 60 138.26 60 142 60 C142 63.63 142 67.26 142 71 C138.37 71 134.74 71 131 71 C131 74.96 131 78.92 131 83 C138.92 83 146.84 83 155 83 C155 79.04 155 75.08 155 71 C170.51 71 186.02 71 202 71 C202 67.37 202 63.74 202 60 C198.37 60 194.74 60 191 60 C191 55.71 191 51.42 191 47 C183.41 47 175.82 47 168 47 C168 43.7 168 40.4 168 37 C179.22 36.67 190.44 36.34 202 36 C202.33 32.04 202.66 28.08 203 24 C191.12 24 179.24 24 167 24 C167 16.41 167 8.82 167 1 C178.55 1 190.1 1 202 1 C202 4.96 202 8.92 202 13 C205.96 12.67 209.92 12.34 214 12 C214.33 8.04 214.66 4.08 215 0 C222.92 0 230.84 0 239 0 C239 3.96 239 7.92 239 12 C242.63 12 246.26 12 250 12 C250 19.92 250 27.84 250 36 C246.37 36 242.74 36 239 36 C239 39.63 239 43.26 239 47 C242.63 47 246.26 47 250 47 C250 55.25 250 63.5 250 72 C246.37 72 242.74 72 239 72 C239 75.63 239 79.26 239 83 C242.63 83 246.26 83 250 83 C250 87.29 250 91.58 250 96 C246.37 96 242.74 96 239 96 C239 99.63 239 103.26 239 107 C242.63 107 246.26 107 250 107 C250 114.92 250 122.84 250 131 C246.04 131 242.08 131 238 131 C238 127.37 238 123.74 238 120 C234.04 120 230.08 120 226 120 C226 123.63 226 127.26 226 131 C218.08 131 210.16 131 202 131 C202 134.63 202 138.26 202 142 C198.04 142 194.08 142 190 142 C190 146.29 190 150.58 190 155 C182.08 155 174.16 155 166 155 C166 151.37 166 147.74 166 144 C162.37 144 158.74 144 155 144 C155 139.71 155 135.42 155 131 C151.04 131 147.08 131 143 131 C143 127.37 143 123.74 143 120 C150.92 120 158.84 120 167 120 C167 127.59 167 135.18 167 143 C170.63 143 174.26 143 178 143 C178 135.08 178 127.16 178 119 C182.29 119 186.58 119 191 119 C191 115.37 191 111.74 191 108 C194.63 108 198.26 108 202 108 C202 111.63 202 115.26 202 119 C209.92 119 217.84 119 226 119 C226 111.08 226 103.16 226 95 C229.63 95 233.26 95 237 95 C237 91.37 237 87.74 237 84 C233.37 84 229.74 84 226 84 C226 68.16 226 52.32 226 36 C222.37 36 218.74 36 215 36 C215.00523682 37.41853271 215.01047363 38.83706543 215.01586914 40.29858398 C215.03391309 45.54092787 215.04542978 50.783269 215.05493164 56.02563477 C215.05997325 58.29842591 215.06680637 60.5712138 215.07543945 62.84399414 C215.08751261 66.10303551 215.09322987 69.36203417 215.09765625 72.62109375 C215.10281754 73.64400009 215.10797882 74.66690643 215.11329651 75.72080994 C215.11337204 76.66170975 215.11344757 77.60260956 215.11352539 78.57202148 C215.115746 79.40475082 215.11796661 80.23748016 215.12025452 81.09544373 C215 83 215 83 214 84 C212.15881971 84.09381302 210.31402359 84.11743954 208.47045898 84.11352539 C207.28931015 84.11344986 206.10816132 84.11337433 204.89122009 84.11329651 C203.6058284 84.10813522 202.32043671 84.10297394 200.99609375 84.09765625 C199.68794205 84.0962413 198.37979034 84.09482635 197.03199768 84.09336853 C193.54837141 84.0895441 190.06478661 84.07971446 186.58117676 84.06866455 C183.02873292 84.05844882 179.47628241 84.05387056 175.92382812 84.04882812 C168.94919996 84.03809212 161.97460624 84.02049593 155 84 C155 87.63 155 91.26 155 95 C158.63 95 162.26 95 166 95 C166 98.96 166 102.92 166 107 C162.37 107 158.74 107 155 107 C155 103.37 155 99.74 155 96 C151.04 96 147.08 96 143 96 C143 99.96 143 103.92 143 108 C139.04 108 135.08 108 131 108 C131 104.04 131 100.08 131 96 C127.37 96 123.74 96 120 96 C120 103.59 120 111.18 120 119 C123.3 119 126.6 119 130 119 C131 120 131 120 131.09765625 122.50390625 C131.06510417 125.3359375 131.03255208 128.16796875 131 131 C127.04 131 123.08 131 119 131 C119 127.37 119 123.74 119 120 C111.08 120 103.16 120 95 120 C95 115.71 95 111.42 95 107 C98.96 107 102.92 107 107 107 C107 103.04 107 99.08 107 95 C110.96 95 114.92 95 119 95 C119 91.37 119 87.74 119 84 C111.08 84 103.16 84 95 84 C95 76.08 95 68.16 95 60 C83.12 60 71.24 60 59 60 C59 56.04 59 52.08 59 48 C67.25 48 75.5 48 84 48 C84 44.04 84 40.08 84 36 C72.12 36 60.24 36 48 36 C48 39.96 48 43.92 48 48 C40.08 48 32.16 48 24 48 C24 51.96 24 55.92 24 60 C19.71 60 15.42 60 11 60 C11 52.08 11 44.16 11 36 C7.37 36 3.74 36 0 36 C0 24.12 0 12.24 0 0 Z " fill="#838383" transform="translate(125,161)"/>
<path d="M0 0 C27.72 0 55.44 0 84 0 C84 27.72 84 55.44 84 84 C56.28 84 28.56 84 0 84 C0 56.28 0 28.56 0 0 Z " fill="#FBFBFB" transform="translate(125,232)"/>
<path d="M0 0 C27.72 0 55.44 0 84 0 C84 27.72 84 55.44 84 84 C56.28 84 28.56 84 0 84 C0 56.28 0 28.56 0 0 Z " fill="#F8F8F8" transform="translate(291,66)"/>
<path d="M0 0 C27.72 0 55.44 0 84 0 C84.020625 13.674375 84.04125 27.34875 84.0625 41.4375 C84.071604 45.76157959 84.08070801 50.08565918 84.09008789 54.54077148 C84.09460449 59.80480957 84.09460449 59.80480957 84.09544373 62.26600647 C84.09698333 63.99179848 84.1005086 65.71758938 84.10557556 67.44337463 C84.1128526 70.05138021 84.11390743 72.65931983 84.11352539 75.26733398 C84.1171235 76.04130996 84.12072161 76.81528593 84.12442875 77.61271572 C84.11402634 82.88597366 84.11402634 82.88597366 83 84 C80.41357081 84.09507964 77.85405064 84.12555068 75.26733398 84.11352539 C74.44450204 84.11364593 73.62167009 84.11376646 72.77390385 84.11389065 C70.09794009 84.11314145 67.42204512 84.10551294 64.74609375 84.09765625 C63.09899936 84.09618685 61.45190452 84.09516613 59.80480957 84.09460449 C53.68236595 84.08935137 47.55993231 84.07539029 41.4375 84.0625 C27.763125 84.041875 14.08875 84.02125 0 84 C0 56.28 0 28.56 0 0 Z " fill="#F6F6F6" transform="translate(125,66)"/>
<path d="M0 0 C3.96 0 7.92 0 12 0 C12 15.84 12 31.68 12 48 C8.37 48 4.74 48 1 48 C1 59.55 1 71.1 1 83 C4.63 83 8.26 83 12 83 C12 79.04 12 75.08 12 71 C15.63 71 19.26 71 23 71 C23 67.04 23 63.08 23 59 C26.96 59 30.92 59 35 59 C35 55.37 35 51.74 35 48 C32.3084375 48.0309375 32.3084375 48.0309375 29.5625 48.0625 C27.70833878 48.0838122 25.85287502 48.07226502 24 48 C23 47 23 47 22.90234375 44.27734375 C22.93489583 41.18489583 22.96744792 38.09244792 23 35 C26.96 35 30.92 35 35 35 C35 31.37 35 27.74 35 24 C31.37 24 27.74 24 24 24 C24 16.08 24 8.16 24 0 C31.92 0 39.84 0 48 0 C48 3.96 48 7.92 48 12 C44.04 12 40.08 12 36 12 C36 15.96 36 19.92 36 24 C39.96 24 43.92 24 48 24 C48 27.96 48 31.92 48 36 C44.04 36 40.08 36 36 36 C36 39.63 36 43.26 36 47 C39.96 47 43.92 47 48 47 C48 62.84 48 78.68 48 95 C40.08 95 32.16 95 24 95 C24 98.96 24 102.92 24 107 C16.41 107 8.82 107 1 107 C1 103.04 1 99.08 1 95 C-3.29 95 -7.58 95 -12 95 C-12 79.16 -12 63.32 -12 47 C-8.04 47 -4.08 47 0 47 C0 43.37 0 39.74 0 36 C-3.96 36 -7.92 36 -12 36 C-12 27.75 -12 19.5 -12 11 C-8.04 11 -4.08 11 0 11 C0 7.37 0 3.74 0 0 Z " fill="#838383" transform="translate(232,66)"/>
<path d="M0 0 C4.29 0 8.58 0 13 0 C13 3.96 13 7.92 13 12 C16.63 12 20.26 12 24 12 C24 12.33 24 12.66 24 13 C20.37 13 16.74 13 13 13 C13 16.63 13 20.26 13 24 C16.63 24 20.26 24 24 24 C24 32.25 24 40.5 24 49 C20.37 49 16.74 49 13 49 C13 52.63 13 56.26 13 60 C16.63 60 20.26 60 24 60 C24 64.29 24 68.58 24 73 C20.37 73 16.74 73 13 73 C13 76.63 13 80.26 13 84 C16.63 84 20.26 84 24 84 C24 91.92 24 99.84 24 108 C20.04 108 16.08 108 12 108 C12 104.37 12 100.74 12 97 C8.04 97 4.08 97 0 97 C0 100.63 0 104.26 0 108 C-7.92 108 -15.84 108 -24 108 C-24 111.63 -24 115.26 -24 119 C-27.96 119 -31.92 119 -36 119 C-36 123.29 -36 127.58 -36 132 C-43.92 132 -51.84 132 -60 132 C-60 128.37 -60 124.74 -60 121 C-63.63 121 -67.26 121 -71 121 C-71 116.71 -71 112.42 -71 108 C-74.96 108 -78.92 108 -83 108 C-83 104.37 -83 100.74 -83 97 C-75.08 97 -67.16 97 -59 97 C-59 104.59 -59 112.18 -59 120 C-55.37 120 -51.74 120 -48 120 C-48 112.08 -48 104.16 -48 96 C-43.71 96 -39.42 96 -35 96 C-35 92.37 -35 88.74 -35 85 C-31.37 85 -27.74 85 -24 85 C-24 88.63 -24 92.26 -24 96 C-16.08 96 -8.16 96 0 96 C0 88.08 0 80.16 0 72 C3.63 72 7.26 72 11 72 C11 68.37 11 64.74 11 61 C7.37 61 3.74 61 0 61 C0 40.87 0 20.74 0 0 Z " fill="#AFAFAF" transform="translate(351,184)"/>
<path d="M0 0 C27.72 0 55.44 0 84 0 C84 27.72 84 55.44 84 84 C56.28 84 28.56 84 0 84 C0 56.28 0 28.56 0 0 Z M13 12 C13 31.8 13 51.6 13 72 C32.47 72 51.94 72 72 72 C72 52.2 72 32.4 72 12 C52.53 12 33.06 12 13 12 Z " fill="#868686" transform="translate(291,66)"/>
<path d="M0 0 C27.72 0 55.44 0 84 0 C84.020625 13.674375 84.04125 27.34875 84.0625 41.4375 C84.071604 45.76157959 84.08070801 50.08565918 84.09008789 54.54077148 C84.09460449 59.80480957 84.09460449 59.80480957 84.09544373 62.26600647 C84.09698333 63.99179848 84.1005086 65.71758938 84.10557556 67.44337463 C84.1128526 70.05138021 84.11390743 72.65931983 84.11352539 75.26733398 C84.1171235 76.04130996 84.12072161 76.81528593 84.12442875 77.61271572 C84.11402634 82.88597366 84.11402634 82.88597366 83 84 C80.41357081 84.09507964 77.85405064 84.12555068 75.26733398 84.11352539 C74.44450204 84.11364593 73.62167009 84.11376646 72.77390385 84.11389065 C70.09794009 84.11314145 67.42204512 84.10551294 64.74609375 84.09765625 C63.09899936 84.09618685 61.45190452 84.09516613 59.80480957 84.09460449 C53.68236595 84.08935137 47.55993231 84.07539029 41.4375 84.0625 C27.763125 84.041875 14.08875 84.02125 0 84 C0 56.28 0 28.56 0 0 Z M11 12 C11 31.8 11 51.6 11 72 C20.879375 72.020625 30.75875 72.04125 40.9375 72.0625 C44.06081787 72.071604 47.18413574 72.08070801 50.40209961 72.09008789 C52.86051388 72.09300678 55.31892864 72.0955554 57.77734375 72.09765625 C59.0677356 72.10277222 60.35812744 72.10788818 61.68762207 72.11315918 C63.51468689 72.11334045 63.51468689 72.11334045 65.37866211 72.11352539 C66.44233505 72.115746 67.506008 72.11796661 68.60191345 72.12025452 C70.95243414 72.27116763 70.95243414 72.27116763 72 71 C72.09381302 69.15881971 72.11743954 67.31402359 72.11352539 65.47045898 C72.11334412 63.67384827 72.11334412 63.67384827 72.11315918 61.84094238 C72.10804321 60.57214233 72.10292725 59.30334229 72.09765625 57.99609375 C72.09664917 56.83726685 72.09564209 55.67843994 72.09460449 54.48449707 C72.08935327 50.13548805 72.07539216 45.78649308 72.0625 41.4375 C72.041875 31.723125 72.02125 22.00875 72 12 C51.87 12 31.74 12 11 12 Z " fill="#818181" transform="translate(125,66)"/>
<path d="M0 0 C27.72 0 55.44 0 84 0 C84 27.72 84 55.44 84 84 C56.28 84 28.56 84 0 84 C0 56.28 0 28.56 0 0 Z M11 13 C10.90094848 14.83572631 10.87200793 16.67527575 10.87060547 18.51367188 C10.86745331 19.69159302 10.86430115 20.86951416 10.86105347 22.08312988 C10.8630777 23.36538452 10.86510193 24.64763916 10.8671875 25.96875 C10.86623077 27.27453003 10.86527405 28.58031006 10.86428833 29.92565918 C10.86281167 32.69312722 10.86496489 35.46056304 10.86962891 38.22802734 C10.87532619 41.78262649 10.87204702 45.33715014 10.86605644 48.89174652 C10.86158253 52.27158714 10.86471114 55.65140723 10.8671875 59.03125 C10.86516327 60.31350464 10.86313904 61.59575928 10.86105347 62.91687012 C10.86420563 64.09479126 10.86735779 65.2727124 10.87060547 66.48632812 C10.87140106 67.52921997 10.87219666 68.57211182 10.87301636 69.64660645 C10.73494593 71.95760635 10.73494593 71.95760635 12 73 C13.83572631 73.09905152 15.67527575 73.12799207 17.51367188 73.12939453 C19.28055359 73.13412277 19.28055359 73.13412277 21.08312988 73.13894653 C22.36538452 73.1369223 23.64763916 73.13489807 24.96875 73.1328125 C26.27453003 73.13376923 27.58031006 73.13472595 28.92565918 73.13571167 C31.69312722 73.13718833 34.46056304 73.13503511 37.22802734 73.13037109 C40.78262649 73.12467381 44.33715014 73.12795298 47.89174652 73.13394356 C51.27158714 73.13841747 54.65140723 73.13528886 58.03125 73.1328125 C59.31350464 73.13483673 60.59575928 73.13686096 61.91687012 73.13894653 C63.09479126 73.13579437 64.2727124 73.13264221 65.48632812 73.12939453 C66.52921997 73.12859894 67.57211182 73.12780334 68.64660645 73.12698364 C70.95760635 73.26505407 70.95760635 73.26505407 72 72 C72.09905152 70.16427369 72.12799207 68.32472425 72.12939453 66.48632812 C72.13412277 64.71944641 72.13412277 64.71944641 72.13894653 62.91687012 C72.1369223 61.63461548 72.13489807 60.35236084 72.1328125 59.03125 C72.13376923 57.72546997 72.13472595 56.41968994 72.13571167 55.07434082 C72.13718833 52.30687278 72.13503511 49.53943696 72.13037109 46.77197266 C72.12467381 43.21737351 72.12795298 39.66284986 72.13394356 36.10825348 C72.13841747 32.72841286 72.13528886 29.34859277 72.1328125 25.96875 C72.13483673 24.68649536 72.13686096 23.40424072 72.13894653 22.08312988 C72.13579437 20.90520874 72.13264221 19.7272876 72.12939453 18.51367188 C72.12859894 17.47078003 72.12780334 16.42788818 72.12698364 15.35339355 C72.26505407 13.04239365 72.26505407 13.04239365 71 12 C69.16427369 11.90094848 67.32472425 11.87200793 65.48632812 11.87060547 C63.71944641 11.86587723 63.71944641 11.86587723 61.91687012 11.86105347 C60.63461548 11.8630777 59.35236084 11.86510193 58.03125 11.8671875 C56.72546997 11.86623077 55.41968994 11.86527405 54.07434082 11.86428833 C51.30687278 11.86281167 48.53943696 11.86496489 45.77197266 11.86962891 C42.21737351 11.87532619 38.66284986 11.87204702 35.10825348 11.86605644 C31.72841286 11.86158253 28.34859277 11.86471114 24.96875 11.8671875 C23.68649536 11.86516327 22.40424072 11.86313904 21.08312988 11.86105347 C19.90520874 11.86420563 18.7272876 11.86735779 17.51367188 11.87060547 C16.47078003 11.87140106 15.42788818 11.87219666 14.35339355 11.87301636 C12.04239365 11.73494593 12.04239365 11.73494593 11 13 Z " fill="#848484" transform="translate(125,232)"/>
<path d="M0 0 C12.21 0 24.42 0 37 0 C37 3.63 37 7.26 37 11 C40.63 11 44.26 11 48 11 C48 7.7 48 4.4 48 1 C48.33 1 48.66 1 49 1 C49.02687279 2.81242052 49.04633715 4.62495233 49.0625 6.4375 C49.07410156 7.44683594 49.08570313 8.45617187 49.09765625 9.49609375 C49 12 49 12 48 13 C43.99779347 13.14355117 40.00558317 13.04216403 36 13 C36 9.04 36 5.08 36 1 C24.45 1 12.9 1 1 1 C1 8.59 1 16.18 1 24 C12.88 24 24.76 24 37 24 C37 27.96 37 31.92 37 36 C36 37 36 37 32.76538086 37.11352539 C31.33185874 37.11336631 29.89833088 37.10767407 28.46484375 37.09765625 C27.33496788 37.09553383 27.33496788 37.09553383 26.18226624 37.09336853 C23.7673044 37.08775376 21.35243399 37.07519883 18.9375 37.0625 C17.30403779 37.0574869 15.67057414 37.05292366 14.03710938 37.04882812 C10.02470415 37.03777954 6.01236759 37.02050506 2 37 C2 40.3 2 43.6 2 47 C9.59 47 17.18 47 25 47 C25 51.29 25 55.58 25 60 C28.63 60 32.26 60 36 60 C36 63.63 36 67.26 36 71 C20.49 71 4.98 71 -11 71 C-11 74.96 -11 78.92 -11 83 C-18.92 83 -26.84 83 -35 83 C-35 79.04 -35 75.08 -35 71 C-31.37 71 -27.74 71 -24 71 C-24 67.37 -24 63.74 -24 60 C-27.63 60 -31.26 60 -35 60 C-35 55.71 -35 51.42 -35 47 C-31.37 47 -27.74 47 -24 47 C-24 43.37 -24 39.74 -24 36 C-27.63 36 -31.26 36 -35 36 C-35 32.04 -35 28.08 -35 24 C-34.67 24 -34.34 24 -34 24 C-34 27.63 -34 31.26 -34 35 C-30.7 35 -27.4 35 -24 35 C-24 31.37 -24 27.74 -24 24 C-16.08 24 -8.16 24 0 24 C0 16.08 0 8.16 0 0 Z " fill="#FDFDFD" transform="translate(291,161)"/>
<path d="M0 0 C3.63 0 7.26 0 11 0 C11.495 5.445 11.495 5.445 12 11 C19.59 11.33 27.18 11.66 35 12 C35 15.63 35 19.26 35 23 C27.08 23 19.16 23 11 23 C11 26.63 11 30.26 11 34 C7.04 34 3.08 34 -1 34 C-1 38.29 -1 42.58 -1 47 C-8.92 47 -16.84 47 -25 47 C-25 43.37 -25 39.74 -25 36 C-28.63 36 -32.26 36 -36 36 C-36 31.71 -36 27.42 -36 23 C-39.96 23 -43.92 23 -48 23 C-48 19.37 -48 15.74 -48 12 C-40.08 12 -32.16 12 -24 12 C-24 19.59 -24 27.18 -24 35 C-20.37 35 -16.74 35 -13 35 C-13 27.08 -13 19.16 -13 11 C-8.71 11 -4.42 11 0 11 C0 7.37 0 3.74 0 0 Z " fill="#808080" transform="translate(316,269)"/>
<path d="M0 0 C12.21 0 24.42 0 37 0 C37 3.63 37 7.26 37 11 C40.63 11 44.26 11 48 11 C48 7.7 48 4.4 48 1 C48.33 1 48.66 1 49 1 C49.02687279 2.81242052 49.04633715 4.62495233 49.0625 6.4375 C49.07410156 7.44683594 49.08570313 8.45617187 49.09765625 9.49609375 C49 12 49 12 48 13 C43.99779347 13.14355117 40.00558317 13.04216403 36 13 C36 9.04 36 5.08 36 1 C24.45 1 12.9 1 1 1 C1 8.59 1 16.18 1 24 C12.88 24 24.76 24 37 24 C37 27.96 37 31.92 37 36 C36 37 36 37 32.76538086 37.11352539 C31.33185874 37.11336631 29.89833088 37.10767407 28.46484375 37.09765625 C27.33496788 37.09553383 27.33496788 37.09553383 26.18226624 37.09336853 C23.7673044 37.08775376 21.35243399 37.07519883 18.9375 37.0625 C17.30403779 37.0574869 15.67057414 37.05292366 14.03710938 37.04882812 C10.02470415 37.03777954 6.01236759 37.02050506 2 37 C2 40.3 2 43.6 2 47 C9.59 47 17.18 47 25 47 C25 51.29 25 55.58 25 60 C24.67 60 24.34 60 24 60 C24 56.04 24 52.08 24 48 C16.08 48 8.16 48 0 48 C0 44.37 0 40.74 0 37 C-7.26 37 -14.52 37 -22 37 C-22 40.3 -22 43.6 -22 47 C-18.37 47 -14.74 47 -11 47 C-11 51.29 -11 55.58 -11 60 C-14.96 60 -18.92 60 -23 60 C-23 63.96 -23 67.92 -23 72 C-26.96 72 -30.92 72 -35 72 C-35 71.67 -35 71.34 -35 71 C-31.37 71 -27.74 71 -24 71 C-24 67.37 -24 63.74 -24 60 C-27.63 60 -31.26 60 -35 60 C-35 55.71 -35 51.42 -35 47 C-31.37 47 -27.74 47 -24 47 C-24 43.37 -24 39.74 -24 36 C-27.63 36 -31.26 36 -35 36 C-35 32.04 -35 28.08 -35 24 C-34.67 24 -34.34 24 -34 24 C-34 27.63 -34 31.26 -34 35 C-30.7 35 -27.4 35 -24 35 C-24 31.37 -24 27.74 -24 24 C-16.08 24 -8.16 24 0 24 C0 16.08 0 8.16 0 0 Z " fill="#ABABAB" transform="translate(291,161)"/>
<path d="M0 0 C11.88 0 23.76 0 36 0 C36.020625 5.754375 36.04125 11.50875 36.0625 17.4375 C36.071604 19.25564209 36.08070801 21.07378418 36.09008789 22.94702148 C36.09300711 24.38004482 36.09555566 25.81306898 36.09765625 27.24609375 C36.10277222 27.99669067 36.10788818 28.7472876 36.11315918 29.52062988 C36.11346992 31.34747601 36.06231113 33.17421683 36 35 C35 36 35 36 31.67358398 36.11352539 C30.19774445 36.11327435 28.72189903 36.10771514 27.24609375 36.09765625 C26.55906372 36.09664917 25.87203369 36.09564209 25.16418457 36.09460449 C22.58860616 36.08935776 20.01305147 36.07539659 17.4375 36.0625 C11.683125 36.041875 5.92875 36.02125 0 36 C0 24.12 0 12.24 0 0 Z " fill="#808080" transform="translate(149,90)"/>
<path d="M0 0 C11.55 0 23.1 0 35 0 C35 11.55 35 23.1 35 35 C23.45 35 11.9 35 0 35 C0 23.45 0 11.9 0 0 Z " fill="#808080" transform="translate(149,257)"/>
<path d="M0 0 C11.55 0 23.1 0 35 0 C35 11.55 35 23.1 35 35 C23.45 35 11.9 35 0 35 C0 23.45 0 11.9 0 0 Z " fill="#808080" transform="translate(316,90)"/>
<path d="M0 0 C3.63 0 7.26 0 11 0 C12.50640038 3.60161201 14.00534134 7.20601881 15.5 10.8125 C16.14388672 12.34874023 16.14388672 12.34874023 16.80078125 13.91601562 C17.40986328 15.39038086 17.40986328 15.39038086 18.03125 16.89453125 C18.40830078 17.80050049 18.78535156 18.70646973 19.17382812 19.63989258 C20 22 20 22 20 25 C20.66 25 21.32 25 22 25 C22.12689209 24.27530518 22.25378418 23.55061035 22.38452148 22.80395508 C22.98109622 20.08612055 23.80140772 17.71082227 24.84765625 15.13671875 C25.20537109 14.25048828 25.56308594 13.36425781 25.93164062 12.45117188 C26.30482422 11.53916016 26.67800781 10.62714844 27.0625 9.6875 C27.43955078 8.75615234 27.81660156 7.82480469 28.20507812 6.86523438 C29.13281967 4.57523942 30.06588811 2.28740382 31 0 C34.63 0 38.26 0 42 0 C42 12.21 42 24.42 42 37 C39.03 37 36.06 37 33 37 C32.67 30.73 32.34 24.46 32 18 C29.69 24.27 27.38 30.54 25 37 C22.36 37 19.72 37 17 37 C14.69 30.73 12.38 24.46 10 18 C9.67 24.27 9.34 30.54 9 37 C6.03 37 3.06 37 0 37 C0 24.79 0 12.58 0 0 Z " fill="#F3F3F3" transform="translate(295,375)"/>
<path d="M0 0 C7.92 0 15.84 0 24 0 C24 3.96 24 7.92 24 12 C20.04 12 16.08 12 12 12 C12 15.96 12 19.92 12 24 C15.96 24 19.92 24 24 24 C24 27.96 24 31.92 24 36 C20.04 36 16.08 36 12 36 C12 39.63 12 43.26 12 47 C15.96 47 19.92 47 24 47 C24 47.33 24 47.66 24 48 C20.04 48 16.08 48 12 48 C12 51.96 12 55.92 12 60 C8.04 60 4.08 60 0 60 C0 63.63 0 67.26 0 71 C3.96 71 7.92 71 12 71 C12 75.29 12 79.58 12 84 C8.04 84 4.08 84 0 84 C0 80.04 0 76.08 0 72 C-3.96 72 -7.92 72 -12 72 C-12 71.67 -12 71.34 -12 71 C-8.37 71 -4.74 71 -1 71 C-1 67.04 -1 63.08 -1 59 C2.96 59 6.92 59 11 59 C11 55.37 11 51.74 11 48 C8.3084375 48.0309375 8.3084375 48.0309375 5.5625 48.0625 C3.70833878 48.0838122 1.85287502 48.07226502 0 48 C-1 47 -1 47 -1.09765625 44.27734375 C-1.06510417 41.18489583 -1.03255208 38.09244792 -1 35 C2.96 35 6.92 35 11 35 C11 31.37 11 27.74 11 24 C7.37 24 3.74 24 0 24 C0 16.08 0 8.16 0 0 Z " fill="#C6C6C6" transform="translate(256,66)"/>
<path d="M0 0 C9 0 9 0 11.30688477 1.92773438 C12.1159729 3.24741211 12.1159729 3.24741211 12.94140625 4.59375 C13.54404297 5.54121094 14.14667969 6.48867188 14.76757812 7.46484375 C15.35990234 8.46644531 15.95222656 9.46804688 16.5625 10.5 C17.18962891 11.50160156 17.81675781 12.50320313 18.46289062 13.53515625 C20.00404663 16.00571168 21.50593623 18.50068421 23 21 C23.33 14.07 23.66 7.14 24 0 C26.97 0 29.94 0 33 0 C33 12.21 33 24.42 33 37 C24 37 24 37 21.58203125 34.9453125 C20.70611328 33.54925781 20.70611328 33.54925781 19.8125 32.125 C19.16925781 31.13113281 18.52601563 30.13726562 17.86328125 29.11328125 C16.94095703 27.57220703 16.94095703 27.57220703 16 26 C15.09314453 24.53626953 15.09314453 24.53626953 14.16796875 23.04296875 C12.74588366 20.71501213 11.36814966 18.36005816 10 16 C9.67 22.93 9.34 29.86 9 37 C6.03 37 3.06 37 0 37 C0 24.79 0 12.58 0 0 Z " fill="#F6F6F6" transform="translate(245,375)"/>
<path d="M0 0 C3.3 0 6.6 0 10 0 C13.60587515 9.12137057 17.15607485 18.25608303 20.4375 27.5 C20.69611816 28.2230835 20.95473633 28.94616699 21.22119141 29.69116211 C23 34.75387814 23 34.75387814 23 37 C20.03 37 17.06 37 14 37 C13.34 35.02 12.68 33.04 12 31 C7.05 31 2.1 31 -3 31 C-3.33 32.98 -3.66 34.96 -4 37 C-6.97 37 -9.94 37 -13 37 C-12.34251765 31.91653889 -10.87063628 27.410598 -9.125 22.625 C-8.86847656 21.90828125 -8.61195313 21.1915625 -8.34765625 20.453125 C-7.57380924 18.29879714 -6.78925367 16.14872782 -6 14 C-5.73437256 13.27458008 -5.46874512 12.54916016 -5.19506836 11.80175781 C-3.68687394 7.72423809 -2.02177713 3.85100405 0 0 Z " fill="#F4F4F4" transform="translate(218,375)"/>
<path d="M0 0 C3.3 0 6.6 0 10 0 C10 3.96 10 7.92 10 12 C14.29 12 18.58 12 23 12 C23 19.26 23 26.52 23 34 C19.04 34 15.08 34 11 34 C11 37.96 11 41.92 11 46 C7.37 46 3.74 46 0 46 C0 30.82 0 15.64 0 0 Z " fill="#808080" transform="translate(352,198)"/>
<path d="M0 0 C3.51183484 2.47424727 6.42236069 5.30572236 8.75 8.9375 C8.75 9.9275 8.75 10.9175 8.75 11.9375 C5.3861302 12.16860556 2.10710903 12.29870793 -1.25 11.9375 C-3.5 9.9375 -3.5 9.9375 -5.25 7.9375 C-9.24656562 7.1722002 -10.73948071 7.59345439 -14.125 9.875 C-16.61997333 13.47069685 -16.93576604 15.49443797 -16.6640625 19.77734375 C-16.01254389 23.17630404 -14.9505597 24.79090127 -12.25 26.9375 C-8.79271642 27.68761367 -8.79271642 27.68761367 -5.25 26.9375 C-4.46625 26.2775 -3.6825 25.6175 -2.875 24.9375 C0.88480097 22.07288974 4.18182901 22.57921208 8.75 22.9375 C8.2438686 27.36614971 6.90110054 29.78639946 3.75 32.9375 C-1.99221401 36.33595319 -7.65889975 36.92237705 -14.25 35.9375 C-18.92378727 34.25493658 -22.19422559 31.64056078 -24.75 27.375 C-26.99990147 22.08170503 -27.02885203 16.57225599 -26.25 10.9375 C-23.93026575 6.03036985 -20.53223069 3.1263952 -16.25 -0.0625 C-10.88620867 -1.85043044 -5.36227662 -1.75305197 0 0 Z " fill="#F5F5F5" transform="translate(192.25,376.0625)"/>
<path d="M0 0 C3.91075925 1.98968453 5.57689098 3.36533646 8 7 C8 8.32 8 9.64 8 11 C4.7 11 1.4 11 -2 11 C-2 10.01 -2 9.02 -2 8 C-3.98 8 -5.96 8 -8 8 C-7.95711504 10.43633288 -7.95711504 10.43633288 -7 13 C-4.38291226 14.52098217 -4.38291226 14.52098217 -1.1875 15.5 C3.67675422 17.15894175 6.16626455 18.64506689 9 23 C9.67907735 26.98957946 9.17886254 28.66782671 7.25 32.25 C4.42010586 35.7087595 2.63107749 36.80463417 -1.8046875 37.3359375 C-6.60116969 37.39696145 -10.17463271 37.35576176 -14.625 35.4375 C-17.52486881 32.46131885 -18.22332873 30.03869062 -19 26 C-15.7 26 -12.4 26 -9 26 C-8.67 27.32 -8.34 28.64 -8 30 C-6.02 29.67 -4.04 29.34 -2 29 C-2.08512977 26.54319987 -2.08512977 26.54319987 -3 24 C-5.36193265 22.73632351 -5.36193265 22.73632351 -8.25 22.0625 C-13.67898923 20.29754901 -16.15798847 18.99802028 -19 14 C-19.625 10.4375 -19.625 10.4375 -19 7 C-13.39149646 0.17884705 -8.50226374 -1.00812556 0 0 Z " fill="#F3F3F3" transform="translate(153,375)"/>
<path d="M0 0 C3.609375 -0.020625 7.21875 -0.04125 10.9375 -0.0625 C12.07695068 -0.071604 13.21640137 -0.08070801 14.39038086 -0.09008789 C15.28120361 -0.09258545 16.17202637 -0.09508301 17.08984375 -0.09765625 C18.46450806 -0.10551147 18.46450806 -0.10551147 19.86694336 -0.11352539 C22 0 22 0 23 1 C23 3.31 23 5.62 23 8 C18.38 8 13.76 8 9 8 C9 10.31 9 12.62 9 15 C12.96 15 16.92 15 21 15 C21 17.31 21 19.62 21 22 C17.04 22 13.08 22 9 22 C9 24.64 9 27.28 9 30 C13.29 30 17.58 30 22 30 C22 32.31 22 34.62 22 37 C14.74 37 7.48 37 0 37 C0 24.79 0 12.58 0 0 Z " fill="#F5F5F5" transform="translate(343,375)"/>
<path d="M0 0 C3.96 0 7.92 0 12 0 C12 3.96 12 7.92 12 12 C19.92 12 27.84 12 36 12 C36 15.96 36 19.92 36 24 C24.12 24 12.24 24 0 24 C0 16.08 0 8.16 0 0 Z " fill="#858585" transform="translate(220,292)"/>
<path d="M0 0 C3.3 0 6.6 0 10 0 C10 3.63 10 7.26 10 11 C14.29 11 18.58 11 23 11 C23 18.59 23 26.18 23 34 C19.04 34 15.08 34 11 34 C11 30.04 11 26.08 11 22 C7.37 22 3.74 22 0 22 C0 14.74 0 7.48 0 0 Z " fill="#818181" transform="translate(352,258)"/>
<path d="M0 0 C11.88 0 23.76 0 36 0 C36 3.96 36 7.92 36 12 C24.12 12 12.24 12 0 12 C0 8.04 0 4.08 0 0 Z " fill="#F7F7F7" transform="translate(292,185)"/>
<path d="M0 0 C7.92 0 15.84 0 24 0 C24 3.96 24 7.92 24 12 C20.04 12 16.08 12 12 12 C12 15.96 12 19.92 12 24 C8.04 24 4.08 24 0 24 C0 16.08 0 8.16 0 0 Z " fill="#858585" transform="translate(256,66)"/>
<path d="M0 0 C0.66 0 1.32 0 2 0 C2.02526945 6.6752034 2.04283268 13.35039457 2.05493164 20.02563477 C2.05997325 22.29842591 2.06680637 24.5712138 2.07543945 26.84399414 C2.08751261 30.10303551 2.09322987 33.36203417 2.09765625 36.62109375 C2.10281754 37.64400009 2.10797882 38.66690643 2.11329651 39.72080994 C2.11337204 40.66170975 2.11344757 41.60260956 2.11352539 42.57202148 C2.115746 43.40475082 2.11796661 44.23748016 2.12025452 45.09544373 C2 47 2 47 1 48 C-0.84118029 48.09381302 -2.68597641 48.11743954 -4.52954102 48.11352539 C-5.71068985 48.11344986 -6.89183868 48.11337433 -8.10877991 48.11329651 C-9.3941716 48.10813522 -10.67956329 48.10297394 -12.00390625 48.09765625 C-13.9661338 48.09553383 -13.9661338 48.09553383 -15.96800232 48.09336853 C-19.45162859 48.0895441 -22.93521339 48.07971446 -26.41882324 48.06866455 C-29.97126708 48.05844882 -33.52371759 48.05387056 -37.07617188 48.04882812 C-44.05080004 48.03809212 -51.02539376 48.02049593 -58 48 C-58 51.63 -58 55.26 -58 59 C-54.37 59 -50.74 59 -47 59 C-47 62.96 -47 66.92 -47 71 C-50.63 71 -54.26 71 -58 71 C-58 67.37 -58 63.74 -58 60 C-61.96 60 -65.92 60 -70 60 C-70 63.96 -70 67.92 -70 72 C-73.96 72 -77.92 72 -82 72 C-82 71.67 -82 71.34 -82 71 C-78.37 71 -74.74 71 -71 71 C-71 67.04 -71 63.08 -71 59 C-67.04 59 -63.08 59 -59 59 C-59 55.37 -59 51.74 -59 48 C-66.59 48 -74.18 48 -82 48 C-82 47.67 -82 47.34 -82 47 C-63.82546301 46.04000684 -45.69672493 45.87726852 -27.5 45.9375 C-24.81510567 45.94311898 -22.13020973 45.94720687 -19.4453125 45.95117188 C-12.96349892 45.96116234 -6.48181859 45.98075977 0 46 C0 30.82 0 15.64 0 0 Z " fill="#AAAAAA" transform="translate(338,197)"/>
<path d="M0 0 C0.33 0 0.66 0 1 0 C1 3.63 1 7.26 1 11 C4.3 11 7.6 11 11 11 C11 7.37 11 3.74 11 0 C11.33 0 11.66 0 12 0 C12.33 3.63 12.66 7.26 13 11 C20.26 11.33 27.52 11.66 35 12 C35 12.33 35 12.66 35 13 C27.74 13 20.48 13 13 13 C13 16.3 13 19.6 13 23 C16.63 23 20.26 23 24 23 C24 27.29 24 31.58 24 36 C20.04 36 16.08 36 12 36 C12 39.96 12 43.92 12 48 C8.04 48 4.08 48 0 48 C0 47.67 0 47.34 0 47 C3.63 47 7.26 47 11 47 C11 43.37 11 39.74 11 36 C7.37 36 3.74 36 0 36 C0 31.71 0 27.42 0 23 C3.63 23 7.26 23 11 23 C11 19.37 11 15.74 11 12 C7.37 12 3.74 12 0 12 C0 8.04 0 4.08 0 0 Z " fill="#CFCFCF" transform="translate(256,185)"/>
<path d="M0 0 C1.17792114 -0.00315216 2.35584229 -0.00630432 3.56945801 -0.009552 C4.85171265 -0.00752777 6.13396729 -0.00550354 7.45507812 -0.00341797 C8.76085815 -0.00437469 10.06663818 -0.00533142 11.4119873 -0.00631714 C14.17945535 -0.0077938 16.94689116 -0.00564058 19.71435547 -0.00097656 C23.26895462 0.00472073 26.82347827 0.00144155 30.37807465 -0.00454903 C33.75791526 -0.00902294 37.13773536 -0.00589433 40.51757812 -0.00341797 C41.79983276 -0.0054422 43.0820874 -0.00746643 44.40319824 -0.009552 C46.17007996 -0.00482376 46.17007996 -0.00482376 47.97265625 0 C49.0155481 0.00079559 50.05843994 0.00159119 51.13293457 0.00241089 C53.48632812 0.12939453 53.48632812 0.12939453 54.48632812 1.12939453 C54.58537965 2.96512084 54.61432019 4.80467028 54.61572266 6.64306641 C54.61887482 7.82098755 54.62202698 8.99890869 54.62527466 10.21252441 C54.62325043 11.49477905 54.6212262 12.77703369 54.61914062 14.09814453 C54.62009735 15.40392456 54.62105408 16.70970459 54.62203979 18.05505371 C54.62351646 20.82252175 54.62136324 23.58995757 54.61669922 26.35742188 C54.61100193 29.91202102 54.61428111 33.46654468 54.62027168 37.02114105 C54.62474559 40.40098167 54.62161699 43.78080177 54.61914062 47.16064453 C54.62116486 48.44289917 54.62318909 49.72515381 54.62527466 51.04626465 C54.62054642 52.81314636 54.62054642 52.81314636 54.61572266 54.61572266 C54.61492706 55.6586145 54.61413147 56.70150635 54.61331177 57.77600098 C54.48632812 60.12939453 54.48632812 60.12939453 53.48632812 61.12939453 C51.65060182 61.22844605 49.81105237 61.2573866 47.97265625 61.25878906 C46.79473511 61.26194122 45.61681396 61.26509338 44.40319824 61.26834106 C43.1209436 61.26631683 41.83868896 61.2642926 40.51757812 61.26220703 C39.2117981 61.26316376 37.90601807 61.26412048 36.56066895 61.2651062 C33.7932009 61.26658286 31.02576509 61.26442964 28.25830078 61.25976562 C24.70370163 61.25406834 21.14917798 61.25734751 17.5945816 61.26333809 C14.21474099 61.267812 10.83492089 61.26468339 7.45507812 61.26220703 C6.17282349 61.26423126 4.89056885 61.26625549 3.56945801 61.26834106 C1.80257629 61.26361282 1.80257629 61.26361282 0 61.25878906 C-1.04289185 61.25799347 -2.08578369 61.25719788 -3.16027832 61.25637817 C-5.51367188 61.12939453 -5.51367188 61.12939453 -6.51367188 60.12939453 C-6.6127234 58.29366822 -6.64166394 56.45411878 -6.64306641 54.61572266 C-6.64621857 53.43780151 -6.64937073 52.25988037 -6.65261841 51.04626465 C-6.65059418 49.76401001 -6.64856995 48.48175537 -6.64648438 47.16064453 C-6.6474411 45.8548645 -6.64839783 44.54908447 -6.64938354 43.20373535 C-6.65086021 40.43626731 -6.64870699 37.66883149 -6.64404297 34.90136719 C-6.63834568 31.34676804 -6.64162486 27.79224439 -6.64761543 24.23764801 C-6.65208934 20.85780739 -6.64896074 17.4779873 -6.64648438 14.09814453 C-6.64850861 12.81588989 -6.65053284 11.53363525 -6.65261841 10.21252441 C-6.64946625 9.03460327 -6.64631409 7.85668213 -6.64306641 6.64306641 C-6.64227081 5.60017456 -6.64147522 4.55728271 -6.64065552 3.48278809 C-6.3993773 -0.98883203 -3.906547 0.0029802 0 0 Z M-4.51367188 1.12939453 C-4.51367188 20.26939453 -4.51367188 39.40939453 -4.51367188 59.12939453 C14.62632812 59.12939453 33.76632813 59.12939453 53.48632812 59.12939453 C53.48632812 39.98939453 53.48632812 20.84939453 53.48632812 1.12939453 C34.34632813 1.12939453 15.20632812 1.12939453 -4.51367188 1.12939453 Z " fill="#C1C1C1" transform="translate(142.513671875,243.87060546875)"/>
<path d="M0 0 C0.66 0 1.32 0 2 0 C2.02312312 10.80458085 2.04091493 21.60915586 2.05181217 32.41375637 C2.05704107 37.4302247 2.06413883 42.44667615 2.07543945 47.46313477 C2.0862681 52.30009694 2.09227679 57.13704284 2.09487724 61.97401619 C2.09673153 63.82368285 2.10035222 65.67334857 2.10573006 67.52300835 C2.1129402 70.10447014 2.11399095 72.68586382 2.11352539 75.26733398 C2.11712067 76.03985001 2.12071594 76.81236603 2.12442017 77.60829163 C2.11405216 82.88594784 2.11405216 82.88594784 1 84 C-1.58639038 84.09507821 -4.1459856 84.12556376 -6.73266602 84.11352539 C-7.94720459 84.11374443 -7.94720459 84.11374443 -9.1862793 84.1139679 C-11.87551508 84.11326854 -14.56468249 84.1054751 -17.25390625 84.09765625 C-19.11335716 84.09579215 -20.97280856 84.09436821 -22.83226013 84.09336853 C-27.73629096 84.08954271 -32.64029236 84.07971188 -37.54431152 84.06866455 C-42.54451092 84.05845181 -47.54471506 84.05387121 -52.54492188 84.04882812 C-62.36329421 84.03808967 -72.18164466 84.02101248 -82 84 C-82 83.34 -82 82.68 -82 82 C-54.94 82 -27.88 82 0 82 C0 54.94 0 27.88 0 0 Z " fill="#A3A3A3" transform="translate(207,66)"/>
<path d="M0 0 C7.26 0 14.52 0 22 0 C22 3.3 22 6.6 22 10 C14.74 10 7.48 10 0 10 C0 6.7 0 3.4 0 0 Z " fill="#808080" transform="translate(269,186)"/>
<path d="M0 0 C4.29 0 8.58 0 13 0 C13 3.96 13 7.92 13 12 C20.59 12 28.18 12 36 12 C36 12.33 36 12.66 36 13 C28.41 13 20.82 13 13 13 C13 16.63 13 20.26 13 24 C12.67 24 12.34 24 12 24 C12 20.37 12 16.74 12 13 C8.04 13 4.08 13 0 13 C0 8.71 0 4.42 0 0 Z " fill="#F4F4F4" transform="translate(220,161)"/>
<path d="M0 0 C0.33 0 0.66 0 1 0 C1 3.63 1 7.26 1 11 C4.63 11 8.26 11 12 11 C12 11.33 12 11.66 12 12 C8.37 12 4.74 12 1 12 C1 23.55 1 35.1 1 47 C4.63 47 8.26 47 12 47 C12 47.33 12 47.66 12 48 C8.04 48 4.08 48 0 48 C0 36.12 0 24.24 0 12 C-3.3 12 -6.6 12 -10 12 C-10 27.51 -10 43.02 -10 59 C-10.66 59 -11.32 59 -12 59 C-12 43.16 -12 27.32 -12 11 C-8.04 11 -4.08 11 0 11 C0 7.37 0 3.74 0 0 Z " fill="#939393" transform="translate(232,102)"/>
<path d="M0 0 C4.29 0 8.58 0 13 0 C13 3.96 13 7.92 13 12 C8.71 12 4.42 12 0 12 C0 8.04 0 4.08 0 0 Z " fill="#8E8E8E" transform="translate(351,304)"/>
<path d="M0 0 C3.96 0 7.92 0 12 0 C12 3.96 12 7.92 12 12 C3.50390625 12.09765625 3.50390625 12.09765625 1 12 C0 11 0 11 -0.09765625 8.49609375 C-0.06510417 5.6640625 -0.03255208 2.83203125 0 0 Z " fill="#898989" transform="translate(268,209)"/>
<path d="M0 0 C3.96 0 7.92 0 12 0 C12.09765625 8.49609375 12.09765625 8.49609375 12 11 C11 12 11 12 8.49609375 12.09765625 C5.6640625 12.06510417 2.83203125 12.03255208 0 12 C0 8.04 0 4.08 0 0 Z " fill="#F4F4F4" transform="translate(351,185)"/>
<path d="M0 0 C0.66 0 1.32 0 2 0 C2.02465098 4.96622349 2.04283649 9.93241166 2.05493164 14.89868164 C2.0599719 16.58944316 2.06680405 18.28020029 2.07543945 19.97094727 C2.08751857 22.39600707 2.09323123 24.82100944 2.09765625 27.24609375 C2.10281754 28.00651474 2.10797882 28.76693573 2.11329651 29.55039978 C2.11349238 31.3673257 2.06197277 33.18413127 2 35 C1 36 1 36 -2.32641602 36.11352539 C-3.80225556 36.11336629 -5.27810069 36.10767314 -6.75390625 36.09765625 C-7.52935287 36.0962413 -8.3047995 36.09482635 -9.10374451 36.09336853 C-11.59003494 36.08775345 -14.0762366 36.07519846 -16.5625 36.0625 C-18.24413933 36.05748694 -19.92578006 36.0529237 -21.60742188 36.04882812 C-25.73831566 36.03777913 -29.86914276 36.02050445 -34 36 C-34 35.34 -34 34.68 -34 34 C-22.78 34 -11.56 34 0 34 C0 22.78 0 11.56 0 0 Z " fill="#A7A7A7" transform="translate(183,90)"/>
<path d="M0 0 C3.63 0 7.26 0 11 0 C11 3.96 11 7.92 11 12 C7.37 12 3.74 12 0 12 C0 8.04 0 4.08 0 0 Z " fill="#F7F7F7" transform="translate(256,209)"/>
<path d="M0 0 C3.96 0 7.92 0 12 0 C12 3.63 12 7.26 12 11 C8.04 11 4.08 11 0 11 C0 7.37 0 3.74 0 0 Z " fill="#858585" transform="translate(268,90)"/>
<path d="M0 0 C3.63 0 7.26 0 11 0 C11 3.63 11 7.26 11 11 C7.37 11 3.74 11 0 11 C0 7.37 0 3.74 0 0 Z " fill="#818181" transform="translate(328,305)"/>
<path d="M0 0 C3.63 0 7.26 0 11 0 C11 3.63 11 7.26 11 11 C7.37 11 3.74 11 0 11 C0 7.37 0 3.74 0 0 Z " fill="#818181" transform="translate(280,257)"/>
<path d="M0 0 C3.63 0 7.26 0 11 0 C11 3.63 11 7.26 11 11 C7.37 11 3.74 11 0 11 C0 7.37 0 3.74 0 0 Z " fill="#808080" transform="translate(364,245)"/>
<path d="M0 0 C3.63 0 7.26 0 11 0 C11 3.63 11 7.26 11 11 C7.37 11 3.74 11 0 11 C0 7.37 0 3.74 0 0 Z " fill="#F9F9F9" transform="translate(197,174)"/>
<path d="M0 0 C3.63 0 7.26 0 11 0 C11 3.63 11 7.26 11 11 C7.37 11 3.74 11 0 11 C0 7.37 0 3.74 0 0 Z " fill="#FAFAFA" transform="translate(256,138)"/>
<path d="M0 0 C3.63 0 7.26 0 11 0 C11 3.63 11 7.26 11 11 C7.37 11 3.74 11 0 11 C0 7.37 0 3.74 0 0 Z " fill="#838383" transform="translate(256,102)"/>
<path d="M0 0 C7.59 0 15.18 0 23 0 C23 0.33 23 0.66 23 1 C19.7 1 16.4 1 13 1 C13 8.59 13 16.18 13 24 C16.3 24 19.6 24 23 24 C23 24.33 23 24.66 23 25 C19.7 25 16.4 25 13 25 C13 28.63 13 32.26 13 36 C12.67 36 12.34 36 12 36 C12 32.37 12 28.74 12 25 C4.08 25 -3.84 25 -12 25 C-12 24.67 -12 24.34 -12 24 C-4.08 24 3.84 24 12 24 C12 16.41 12 8.82 12 1 C8.37 1 4.74 1 1 1 C1 4.96 1 8.92 1 13 C-3.29 13 -7.58 13 -12 13 C-12 12.67 -12 12.34 -12 12 C-8.04 12 -4.08 12 0 12 C0 8.04 0 4.08 0 0 Z " fill="#C0C0C0" transform="translate(232,256)"/>
<path d="M0 0 C7.92 0 15.84 0 24 0 C24 0.33 24 0.66 24 1 C16.41 1 8.82 1 1 1 C1 4.63 1 8.26 1 12 C4.96 12 8.92 12 13 12 C13 15.96 13 19.92 13 24 C12.67 24 12.34 24 12 24 C12 20.37 12 16.74 12 13 C8.37 13 4.74 13 1 13 C1 16.63 1 20.26 1 24 C0.67 24 0.34 24 0 24 C0 20.37 0 16.74 0 13 C-3.63 13 -7.26 13 -11 13 C-11 16.63 -11 20.26 -11 24 C-11.33 24 -11.66 24 -12 24 C-12 19.71 -12 15.42 -12 11 C-8.04 11 -4.08 11 0 11 C0 7.37 0 3.74 0 0 Z " fill="#C2C2C2" transform="translate(327,292)"/>
<path d="M0 0 C3.96 0 7.92 0 12 0 C12 0.33 12 0.66 12 1 C8.37 1 4.74 1 1 1 C1 8.92 1 16.84 1 25 C-2.96 25 -6.92 25 -11 25 C-11 28.63 -11 32.26 -11 36 C-11.33 36 -11.66 36 -12 36 C-12 32.37 -12 28.74 -12 25 C-15.63 25 -19.26 25 -23 25 C-23 24.34 -23 23.68 -23 23 C-19.37 23 -15.74 23 -12 23 C-12 15.74 -12 8.48 -12 1 C-11.67 1 -11.34 1 -11 1 C-11 8.59 -11 16.18 -11 24 C-7.37 24 -3.74 24 0 24 C0 16.08 0 8.16 0 0 Z " fill="#BDBDBD" transform="translate(303,280)"/>
<path d="M0 0 C0.33 0 0.66 0 1 0 C1 3.96 1 7.92 1 12 C8.59 12 16.18 12 24 12 C24 8.04 24 4.08 24 0 C24.33 0 24.66 0 25 0 C25 3.96 25 7.92 25 12 C28.96 12 32.92 12 37 12 C37 15.96 37 19.92 37 24 C36.67 24 36.34 24 36 24 C36 20.37 36 16.74 36 13 C32.37 13 28.74 13 25 13 C25 16.63 25 20.26 25 24 C24.67 24 24.34 24 24 24 C24 20.37 24 16.74 24 13 C16.08 13 8.16 13 0 13 C0 8.71 0 4.42 0 0 Z " fill="#BDBDBD" transform="translate(172,161)"/>
<path d="M0 0 C0.33 0 0.66 0 1 0 C1 3.63 1 7.26 1 11 C4.63 11 8.26 11 12 11 C12 11.33 12 11.66 12 12 C8.37 12 4.74 12 1 12 C1 23.55 1 35.1 1 47 C4.63 47 8.26 47 12 47 C12 47.33 12 47.66 12 48 C8.04 48 4.08 48 0 48 C0 36.12 0 24.24 0 12 C-3.96 12 -7.92 12 -12 12 C-12 11.67 -12 11.34 -12 11 C-8.04 11 -4.08 11 0 11 C0 7.37 0 3.74 0 0 Z " fill="#C4C4C4" transform="translate(232,102)"/>
<path d="M0 0 C2 1 2 1 2.8515625 2.9609375 C3.10679687 3.75757813 3.36203125 4.55421875 3.625 5.375 C3.88539063 6.16648437 4.14578125 6.95796875 4.4140625 7.7734375 C5 10 5 10 5 13 C2.36 13 -0.28 13 -3 13 C-2.45144652 8.428721 -1.58255197 4.32564205 0 0 Z " fill="#1C1C1C" transform="translate(222,386)"/>
<path d="M0 0 C0.33 0 0.66 0 1 0 C1 3.96 1 7.92 1 12 C8.59 12 16.18 12 24 12 C24 12.33 24 12.66 24 13 C16.41 13 8.82 13 1 13 C1 16.63 1 20.26 1 24 C0.67 24 0.34 24 0 24 C0 20.37 0 16.74 0 13 C-3.96 13 -7.92 13 -12 13 C-12 12.67 -12 12.34 -12 12 C-8.04 12 -4.08 12 0 12 C0 8.04 0 4.08 0 0 Z " fill="#C1C1C1" transform="translate(232,161)"/>
<path d="M0 0 C0.33 0 0.66 0 1 0 C1 3.63 1 7.26 1 11 C4.63 11 8.26 11 12 11 C12 11.33 12 11.66 12 12 C8.37 12 4.74 12 1 12 C1 15.63 1 19.26 1 23 C0.67 23 0.34 23 0 23 C0 19.37 0 15.74 0 12 C-3.96 12 -7.92 12 -12 12 C-12 11.67 -12 11.34 -12 11 C-8.04 11 -4.08 11 0 11 C0 7.37 0 3.74 0 0 Z " fill="#BFBFBF" transform="translate(363,245)"/>
</svg>
