<?xml version="1.0" encoding="UTF-8"?>
<svg version="1.1" xmlns="http://www.w3.org/2000/svg" width="500" height="500">
<path d="M0 0 C165 0 330 0 500 0 C500 165 500 330 500 500 C335 500 170 500 0 500 C0 335 0 170 0 0 Z " fill="#FEFEFE" transform="translate(0,0)"/>
<path d="M0 0 C27.77088734 22.49093413 47.78988333 54.48476517 51.79003906 90.44970703 C52.87144019 107.11215527 52.83671544 124.18075198 48.79003906 140.44970703 C48.63438477 141.09117676 48.47873047 141.73264648 48.31835938 142.39355469 C43.99171677 159.64399103 35.75211861 176.48130466 24.79003906 190.44970703 C24.37141602 190.98499023 23.95279297 191.52027344 23.52148438 192.07177734 C6.82496396 213.1992498 -14.92070736 228.34992191 -40.20996094 237.44970703 C-41.25539063 237.82998047 -42.30082031 238.21025391 -43.37792969 238.60205078 C-77.57457715 250.08761679 -115.05334166 245.51269392 -147.00683594 229.67626953 C-158.90481427 223.53025772 -169.28772607 215.37277978 -179.20996094 206.44970703 C-180.20576172 205.5621875 -180.20576172 205.5621875 -181.22167969 204.65673828 C-199.39026222 187.50457995 -211.23585281 163.4040282 -217.20996094 139.44970703 C-217.52964844 138.27150391 -217.84933594 137.09330078 -218.17871094 135.87939453 C-226.27940483 101.15141979 -218.20389821 64.67115901 -199.83496094 34.76220703 C-178.23122299 2.16109117 -146.67037991 -19.13217846 -108.37402344 -27.14355469 C-70.51827891 -34.13240344 -30.21152626 -23.60749916 0 0 Z " fill="#FDFDFD" transform="translate(325.2099609375,138.55029296875)"/>
<path d="M0 0 C5.81288484 4.82907666 11.16061334 10.01868235 16.49609375 15.36669922 C17.42221466 16.29106781 18.34833557 17.2154364 19.30252075 18.16781616 C21.82548864 20.68625389 24.34531749 23.20781001 26.86442947 25.73010397 C29.51285157 28.38107336 32.16373041 31.02958433 34.81420898 33.67849731 C39.26433181 38.12680502 43.71235184 42.57720719 48.15917969 47.02880859 C53.28383856 52.15890546 58.41208514 57.28539471 63.5422163 62.4100188 C67.96296484 66.82621346 72.38174176 71.24437379 76.79890919 75.66415036 C79.42992229 78.29671417 82.06158649 80.92861757 84.69503784 83.55874252 C87.63421027 86.49446107 90.56923792 89.43429068 93.50390625 92.37451172 C94.3654129 93.23399414 95.22691956 94.09347656 96.11453247 94.97900391 C100.36740079 99.24672774 104.45080877 103.5883285 108.3804493 108.15474129 C110.93118319 111.06095715 113.65197585 113.78358425 116.39428711 116.5078125 C116.9902771 117.10394852 117.58626709 117.70008453 118.20031738 118.31428528 C120.14029466 120.25357457 122.08377258 122.18931315 124.02734375 124.125 C125.38519348 125.48098158 126.74282033 126.8371864 128.10023499 128.19360352 C131.65058599 131.7401606 135.20393117 135.28370261 138.75793457 138.82659912 C142.39319078 142.4515736 146.02557099 146.07942749 149.65820312 149.70703125 C156.76934302 156.80748901 163.8836533 163.90476097 171 171 C152.6922103 189.49005121 124.25802454 201.25720076 98.24607849 201.5561676 C96.03848312 201.5559055 93.83236125 201.53122872 91.625 201.5 C90.47845444 201.49219009 90.47845444 201.49219009 89.30874634 201.48422241 C77.78570241 201.39227643 67.00470704 200.59361418 56 197 C54.79601562 196.63777344 53.59203125 196.27554688 52.3515625 195.90234375 C26.1513436 187.3713674 2.14692436 168.68314504 -12 145 C-12.37463379 144.37818848 -12.74926758 143.75637695 -13.13525391 143.11572266 C-22.53087511 127.22543242 -29.19415179 109.56175968 -30 91 C-30.04237793 90.07703125 -30.08475586 89.1540625 -30.12841797 88.203125 C-31.38750625 55.60266488 -22.73179345 27.33398862 -2 2 C-1.34 1.34 -0.68 0.68 0 0 Z " fill="#FEFEFE" transform="translate(150,166)"/>
<path d="M0 0 C27.77088734 22.49093413 47.78988333 54.48476517 51.79003906 90.44970703 C52.87144019 107.11215527 52.83671544 124.18075198 48.79003906 140.44970703 C48.63438477 141.09117676 48.47873047 141.73264648 48.31835938 142.39355469 C43.99171677 159.64399103 35.75211861 176.48130466 24.79003906 190.44970703 C24.37141602 190.98499023 23.95279297 191.52027344 23.52148438 192.07177734 C6.82496396 213.1992498 -14.92070736 228.34992191 -40.20996094 237.44970703 C-41.25539063 237.82998047 -42.30082031 238.21025391 -43.37792969 238.60205078 C-77.57457715 250.08761679 -115.05334166 245.51269392 -147.00683594 229.67626953 C-158.90481427 223.53025772 -169.28772607 215.37277978 -179.20996094 206.44970703 C-180.20576172 205.5621875 -180.20576172 205.5621875 -181.22167969 204.65673828 C-199.39026222 187.50457995 -211.23585281 163.4040282 -217.20996094 139.44970703 C-217.52964844 138.27150391 -217.84933594 137.09330078 -218.17871094 135.87939453 C-226.27940483 101.15141979 -218.20389821 64.67115901 -199.83496094 34.76220703 C-178.23122299 2.16109117 -146.67037991 -19.13217846 -108.37402344 -27.14355469 C-70.51827891 -34.13240344 -30.21152626 -23.60749916 0 0 Z M-163.20996094 15.44970703 C-161.71845013 20.68431275 -158.39404474 23.67747155 -154.62948608 27.39094543 C-153.60399294 28.42028349 -153.60399294 28.42028349 -152.55778277 29.47041625 C-150.26320431 31.76993939 -147.95806157 34.05857026 -145.65283203 36.34741211 C-144.00659348 37.99280454 -142.36101505 39.63885766 -140.71604919 41.28552246 C-136.24573091 45.75670271 -131.76621254 50.21856254 -127.28501463 54.67883515 C-123.07856738 58.8684467 -118.87902389 63.06495731 -114.67944367 67.26145049 C-106.36181525 75.57251505 -98.03751115 83.87685974 -89.70898438 92.17700195 C-81.61920526 100.23923882 -73.53258688 108.30462442 -65.45019531 116.37426758 C-64.9518925 116.87178222 -64.45358968 117.36929687 -63.94018678 117.88188771 C-61.44033657 120.37782278 -58.94054833 122.8738199 -56.44079089 125.36984789 C-35.70678153 146.07276338 -14.96181208 166.76467558 5.79003906 187.44970703 C8.73683602 186.05063777 10.42915467 185.00883821 12.30566406 182.31689453 C12.74821533 181.68428711 13.1907666 181.05167969 13.64672852 180.39990234 C14.106521 179.71508789 14.56631348 179.03027344 15.04003906 178.32470703 C15.52239014 177.60895508 16.00474121 176.89320313 16.50170898 176.15576172 C30.34064697 155.19421226 37.16898486 132.21779868 37.10253906 107.07470703 C37.11865234 105.86298828 37.13476562 104.65126953 37.15136719 103.40283203 C37.15598706 94.7359463 35.93466805 86.83632467 33.79003906 78.44970703 C33.59659912 77.67739746 33.40315918 76.90508789 33.20385742 76.109375 C27.69886866 55.2851439 16.64184476 37.84995459 1.79003906 22.44970703 C1.13390625 21.73041016 0.47777344 21.01111328 -0.19824219 20.27001953 C-20.34755258 -1.21682539 -50.96334278 -12.51903269 -79.91308594 -13.90185547 C-110.77525395 -14.6962106 -139.59317031 -4.47828506 -163.20996094 15.44970703 Z M-176.55761719 28.74267578 C-188.6111788 42.05925296 -197.93356101 60.01356434 -202.20996094 77.44970703 C-202.50773437 78.59955078 -202.80550781 79.74939453 -203.11230469 80.93408203 C-210.38233467 113.23043642 -203.38362914 146.55149879 -186.20996094 174.44970703 C-168.57029795 201.78938837 -140.74092321 219.8493221 -109.33374023 227.02001953 C-104.03825779 228.09141269 -98.93132854 228.62969494 -93.53027344 228.68798828 C-92.79984833 228.69606003 -92.06942322 228.70413177 -91.31686401 228.71244812 C-89.77213869 228.72622435 -88.22738375 228.73697514 -86.68261719 228.74487305 C-85.13532294 228.75629754 -83.58806504 228.77659487 -82.04101562 228.80639648 C-70.79039027 229.02238339 -60.97919324 227.70603444 -50.20996094 224.44970703 C-49.3567627 224.20341553 -48.50356445 223.95712402 -47.62451172 223.70336914 C-31.19021192 218.77006995 -17.39406639 210.26338256 -4.20996094 199.44970703 C-8.07951349 194.8196747 -12.09320573 190.42763081 -16.37963867 186.18237305 C-16.96423859 185.5992334 -17.5488385 185.01609375 -18.15115356 184.4152832 C-19.40876064 183.16145325 -20.66752057 181.90877873 -21.92733574 180.65716743 C-23.92745335 178.66993297 -25.92432583 176.67948706 -27.92042542 174.68821716 C-32.8772937 169.74464656 -37.83959895 164.80654521 -42.80175781 159.86828613 C-47.00226817 155.68759176 -51.20066674 151.5047977 -55.39634895 147.31925774 C-57.35229558 145.36973685 -59.31125725 143.42328185 -61.27037048 141.47694397 C-62.48402645 140.26692483 -63.69753982 139.05676264 -64.91088867 137.84643555 C-65.44669052 137.31580002 -65.98249237 136.78516449 -66.53453064 136.2384491 C-69.30697831 133.46638151 -71.94689027 130.62979599 -74.50419617 127.65745544 C-78.7177045 122.79448303 -83.24786401 118.27182636 -87.80126953 113.72900391 C-88.74668638 112.78222884 -89.69189106 111.83524188 -90.63690186 110.88806152 C-93.17960804 108.34083537 -95.72541967 105.79673517 -98.27197981 103.25336266 C-100.94223409 100.58565506 -103.61003094 97.91549167 -106.27822876 95.24572754 C-110.74993444 90.77220909 -115.22373047 86.30078928 -119.69873047 81.83056641 C-124.87728372 76.65747739 -130.05219332 71.48076434 -135.22527063 66.30219984 C-139.67281077 61.85013084 -144.12228505 57.40000192 -148.57340109 52.95150805 C-151.22976534 50.29670483 -153.88544432 47.6412256 -156.53937912 44.98399353 C-159.48841061 42.03155301 -162.44148752 39.08319223 -165.39501953 36.13525391 C-166.71963699 34.8076001 -166.71963699 34.8076001 -168.0710144 33.453125 C-169.26954041 32.25882874 -169.26954041 32.25882874 -170.49227905 31.04040527 C-171.19020254 30.34285881 -171.88812603 29.64531235 -172.60719872 28.92662811 C-174.61435121 26.9765685 -174.61435121 26.9765685 -176.55761719 28.74267578 Z " fill="#040404" transform="translate(325.2099609375,138.55029296875)"/>
</svg>
