<?xml version="1.0" encoding="UTF-8"?>
<svg version="1.1" xmlns="http://www.w3.org/2000/svg" width="500" height="500">
<path d="M0 0 C165 0 330 0 500 0 C500 165 500 330 500 500 C335 500 170 500 0 500 C0 335 0 170 0 0 Z " fill="#FEFEFE" transform="translate(0,0)"/>
<path d="M0 0 C1.02460252 -0.00538554 2.04920505 -0.01077108 3.10485613 -0.01631981 C6.53093399 -0.03060325 9.9566257 -0.02349451 13.38272095 -0.01637268 C15.84202891 -0.02207605 18.30133423 -0.02904018 20.76063538 -0.03717041 C26.74318435 -0.05325736 32.72558218 -0.05520151 38.70813797 -0.04995751 C43.572512 -0.04591148 48.43685502 -0.04736449 53.30122757 -0.05270576 C53.99429631 -0.05345419 54.68736504 -0.05420261 55.40143586 -0.05497371 C56.80954055 -0.05650523 58.21764523 -0.05804358 59.6257499 -0.05958868 C72.82313386 -0.07330848 86.0204585 -0.06787987 99.2178411 -0.05640347 C111.28114665 -0.04647334 123.34429877 -0.0594088 135.40758066 -0.08333766 C147.80522773 -0.10774375 160.20280339 -0.11733272 172.600474 -0.11068493 C179.55638123 -0.10719583 186.51217051 -0.10940414 193.46805954 -0.12693596 C200.00984247 -0.14322 206.5513804 -0.13845277 213.09317207 -0.11963081 C215.49210746 -0.11594399 217.89106452 -0.11905607 220.28997993 -0.1295166 C223.56890137 -0.14272118 226.84685245 -0.13118251 230.12573242 -0.11352539 C231.07137003 -0.1231304 232.01700764 -0.1327354 232.99130094 -0.14263147 C240.80461672 -0.05627136 246.44766257 2.26778837 252.93984985 6.51268005 C260.12982365 14.02947085 261.42355501 21.82683895 261.31803894 31.91882324 C261.32513333 33.14608311 261.33222772 34.37334297 261.33953708 35.63779253 C261.35402163 39.01880276 261.34628922 42.39839711 261.32881415 45.77930176 C261.31538453 49.43513001 261.3308971 53.09085535 261.34263611 56.74667358 C261.36097504 63.89794094 261.35252583 71.0489343 261.33454788 78.200193 C261.32049948 84.01368422 261.31663389 89.82710126 261.31999016 95.64060783 C261.3204676 96.4692628 261.32094504 97.29791777 261.32143695 98.15168349 C261.32246332 99.83527659 261.32351868 101.51886967 261.32460272 103.20246273 C261.33316206 118.07553582 261.31651912 132.94847696 261.28677368 147.82151794 C261.25793293 162.24247275 261.25085619 176.66323752 261.26626587 191.08421326 C261.28303843 206.80207156 261.28705189 222.51983973 261.26955551 238.2377004 C261.26771119 239.91465627 261.26587646 241.59161215 261.26405144 243.26856804 C261.26313935 244.09358483 261.26222726 244.91860163 261.26128753 245.76861893 C261.25568909 251.57342322 261.2589828 257.37818341 261.26559639 263.18298531 C261.27333908 270.25947735 261.26654325 277.33578254 261.24142135 284.412237 C261.22894849 288.02051447 261.22275266 291.62850136 261.23396301 295.2367897 C261.24589866 299.15254511 261.22670229 303.067802 261.20451355 306.98352051 C261.2168747 308.68489209 261.2168747 308.68489209 261.22948557 310.42063481 C261.14343726 318.65162092 259.35586044 325.03992452 254.43984985 331.70018005 C249.1141907 336.9048015 242.75835188 339.50166028 235.32124901 339.52469444 C234.44860291 339.52976899 233.57595681 339.53484353 232.67686689 339.54007185 C231.24547012 339.54081848 231.24547012 339.54081848 229.78515625 339.5415802 C228.76790612 339.54596245 227.75065599 339.55034471 226.70258009 339.55485976 C223.28345851 339.56824702 219.86436271 339.57442648 216.44522095 339.58055115 C213.99783207 339.58845216 211.55044435 339.59672112 209.10305786 339.60533142 C201.75126246 339.62928745 194.39947132 339.64447905 187.04765028 339.65739149 C184.97024313 339.66110512 182.89283665 339.66507821 180.81543016 339.66914415 C167.90748988 339.69438224 154.99954848 339.71642939 142.09158897 339.7288723 C139.10302095 339.73180186 136.11445295 339.73476354 133.12588501 339.73777771 C132.38311643 339.73852376 131.64034784 339.73926981 130.87507112 339.74003847 C118.84780296 339.75268696 106.82068279 339.78590465 94.79348378 339.82757954 C82.43775229 339.87004091 70.08209649 339.89357216 57.72629225 339.89879286 C50.79205044 339.90220221 43.85803994 339.91390085 36.92387009 339.9468956 C30.39853727 339.97789464 23.87353381 339.98328942 17.34811401 339.97151184 C14.9560356 339.97129107 12.56393851 339.97959894 10.17192459 339.99716568 C6.89961517 340.01988485 3.62876323 340.01154814 0.35644531 339.99568176 C-0.58443487 340.00956385 -1.52531505 340.02344594 -2.49470675 340.03774869 C-10.02316012 339.94814943 -16.59100745 337.78588959 -22.23137438 332.63224256 C-29.15581971 325.23611298 -29.7499437 317.93059082 -29.70455933 308.18606567 C-29.71065043 306.9579911 -29.71674153 305.72991652 -29.72301722 304.46462756 C-29.73676081 301.06771096 -29.73710619 297.67127906 -29.73164225 294.27437127 C-29.72896765 290.60620997 -29.74351194 286.93811008 -29.7557373 283.26997375 C-29.77677584 276.08795664 -29.78133305 268.90602027 -29.77954942 261.72397598 C-29.77824092 255.88468753 -29.7820504 250.04542424 -29.78947449 244.20614052 C-29.79157373 242.52304183 -29.79367133 240.83994313 -29.79576731 239.15684444 C-29.79681084 238.31906901 -29.79785436 237.48129358 -29.79892951 236.61813102 C-29.81782574 220.7787365 -29.81678367 204.93938831 -29.80996019 189.09998719 C-29.80438596 174.61886256 -29.8252061 160.13791492 -29.85832065 145.65683164 C-29.89207817 130.77880324 -29.90722337 115.90085957 -29.90260363 101.02279216 C-29.90036092 92.67346153 -29.90557291 84.32429444 -29.93049622 75.97499657 C-29.95153607 68.86624824 -29.9550749 61.75775311 -29.93619663 54.64899429 C-29.92705492 51.02433525 -29.92584683 47.40014799 -29.94655228 43.77552605 C-29.96878326 39.8402061 -29.95200524 35.90558711 -29.93161011 31.97024536 C-29.94412796 30.83297318 -29.9566458 29.69570099 -29.96954298 28.52396601 C-29.87946156 20.40431328 -28.165604 13.59093832 -22.55476522 7.47394007 C-15.77171019 1.09233235 -8.9864327 -0.05684551 0 0 Z " fill="#FDFDFD" transform="translate(134.31015014648438,79.61231994628906)"/>
<path d="M0 0 C1.02460252 -0.00538554 2.04920505 -0.01077108 3.10485613 -0.01631981 C6.53093399 -0.03060325 9.9566257 -0.02349451 13.38272095 -0.01637268 C15.84202891 -0.02207605 18.30133423 -0.02904018 20.76063538 -0.03717041 C26.74318435 -0.05325736 32.72558218 -0.05520151 38.70813797 -0.04995751 C43.572512 -0.04591148 48.43685502 -0.04736449 53.30122757 -0.05270576 C53.99429631 -0.05345419 54.68736504 -0.05420261 55.40143586 -0.05497371 C56.80954055 -0.05650523 58.21764523 -0.05804358 59.6257499 -0.05958868 C72.82313386 -0.07330848 86.0204585 -0.06787987 99.2178411 -0.05640347 C111.28114665 -0.04647334 123.34429877 -0.0594088 135.40758066 -0.08333766 C147.80522773 -0.10774375 160.20280339 -0.11733272 172.600474 -0.11068493 C179.55638123 -0.10719583 186.51217051 -0.10940414 193.46805954 -0.12693596 C200.00984247 -0.14322 206.5513804 -0.13845277 213.09317207 -0.11963081 C215.49210746 -0.11594399 217.89106452 -0.11905607 220.28997993 -0.1295166 C223.56890137 -0.14272118 226.84685245 -0.13118251 230.12573242 -0.11352539 C231.07137003 -0.1231304 232.01700764 -0.1327354 232.99130094 -0.14263147 C240.80461672 -0.05627136 246.44766257 2.26778837 252.93984985 6.51268005 C260.12982365 14.02947085 261.42355501 21.82683895 261.31803894 31.91882324 C261.32513333 33.14608311 261.33222772 34.37334297 261.33953708 35.63779253 C261.35402163 39.01880276 261.34628922 42.39839711 261.32881415 45.77930176 C261.31538453 49.43513001 261.3308971 53.09085535 261.34263611 56.74667358 C261.36097504 63.89794094 261.35252583 71.0489343 261.33454788 78.200193 C261.32049948 84.01368422 261.31663389 89.82710126 261.31999016 95.64060783 C261.3204676 96.4692628 261.32094504 97.29791777 261.32143695 98.15168349 C261.32246332 99.83527659 261.32351868 101.51886967 261.32460272 103.20246273 C261.33316206 118.07553582 261.31651912 132.94847696 261.28677368 147.82151794 C261.25793293 162.24247275 261.25085619 176.66323752 261.26626587 191.08421326 C261.28303843 206.80207156 261.28705189 222.51983973 261.26955551 238.2377004 C261.26771119 239.91465627 261.26587646 241.59161215 261.26405144 243.26856804 C261.26313935 244.09358483 261.26222726 244.91860163 261.26128753 245.76861893 C261.25568909 251.57342322 261.2589828 257.37818341 261.26559639 263.18298531 C261.27333908 270.25947735 261.26654325 277.33578254 261.24142135 284.412237 C261.22894849 288.02051447 261.22275266 291.62850136 261.23396301 295.2367897 C261.24589866 299.15254511 261.22670229 303.067802 261.20451355 306.98352051 C261.2168747 308.68489209 261.2168747 308.68489209 261.22948557 310.42063481 C261.14343726 318.65162092 259.35586044 325.03992452 254.43984985 331.70018005 C249.1141907 336.9048015 242.75835188 339.50166028 235.32124901 339.52469444 C234.44860291 339.52976899 233.57595681 339.53484353 232.67686689 339.54007185 C231.24547012 339.54081848 231.24547012 339.54081848 229.78515625 339.5415802 C228.76790612 339.54596245 227.75065599 339.55034471 226.70258009 339.55485976 C223.28345851 339.56824702 219.86436271 339.57442648 216.44522095 339.58055115 C213.99783207 339.58845216 211.55044435 339.59672112 209.10305786 339.60533142 C201.75126246 339.62928745 194.39947132 339.64447905 187.04765028 339.65739149 C184.97024313 339.66110512 182.89283665 339.66507821 180.81543016 339.66914415 C167.90748988 339.69438224 154.99954848 339.71642939 142.09158897 339.7288723 C139.10302095 339.73180186 136.11445295 339.73476354 133.12588501 339.73777771 C132.38311643 339.73852376 131.64034784 339.73926981 130.87507112 339.74003847 C118.84780296 339.75268696 106.82068279 339.78590465 94.79348378 339.82757954 C82.43775229 339.87004091 70.08209649 339.89357216 57.72629225 339.89879286 C50.79205044 339.90220221 43.85803994 339.91390085 36.92387009 339.9468956 C30.39853727 339.97789464 23.87353381 339.98328942 17.34811401 339.97151184 C14.9560356 339.97129107 12.56393851 339.97959894 10.17192459 339.99716568 C6.89961517 340.01988485 3.62876323 340.01154814 0.35644531 339.99568176 C-0.58443487 340.00956385 -1.52531505 340.02344594 -2.49470675 340.03774869 C-10.02316012 339.94814943 -16.59100745 337.78588959 -22.23137438 332.63224256 C-29.15581971 325.23611298 -29.7499437 317.93059082 -29.70455933 308.18606567 C-29.71065043 306.9579911 -29.71674153 305.72991652 -29.72301722 304.46462756 C-29.73676081 301.06771096 -29.73710619 297.67127906 -29.73164225 294.27437127 C-29.72896765 290.60620997 -29.74351194 286.93811008 -29.7557373 283.26997375 C-29.77677584 276.08795664 -29.78133305 268.90602027 -29.77954942 261.72397598 C-29.77824092 255.88468753 -29.7820504 250.04542424 -29.78947449 244.20614052 C-29.79157373 242.52304183 -29.79367133 240.83994313 -29.79576731 239.15684444 C-29.79681084 238.31906901 -29.79785436 237.48129358 -29.79892951 236.61813102 C-29.81782574 220.7787365 -29.81678367 204.93938831 -29.80996019 189.09998719 C-29.80438596 174.61886256 -29.8252061 160.13791492 -29.85832065 145.65683164 C-29.89207817 130.77880324 -29.90722337 115.90085957 -29.90260363 101.02279216 C-29.90036092 92.67346153 -29.90557291 84.32429444 -29.93049622 75.97499657 C-29.95153607 68.86624824 -29.9550749 61.75775311 -29.93619663 54.64899429 C-29.92705492 51.02433525 -29.92584683 47.40014799 -29.94655228 43.77552605 C-29.96878326 39.8402061 -29.95200524 35.90558711 -29.93161011 31.97024536 C-29.94412796 30.83297318 -29.9566458 29.69570099 -29.96954298 28.52396601 C-29.87946156 20.40431328 -28.165604 13.59093832 -22.55476522 7.47394007 C-15.77171019 1.09233235 -8.9864327 -0.05684551 0 0 Z M-9.31015015 22.38768005 C-9.76304605 24.60033864 -9.76304605 24.60033864 -9.68488026 27.21690273 C-9.6920868 28.24315303 -9.69929334 29.26940333 -9.70671827 30.32675213 C-9.69934398 31.46281888 -9.6919697 32.59888564 -9.68437195 33.76937866 C-9.68834635 34.96953521 -9.69232076 36.16969175 -9.6964156 37.40621668 C-9.70440226 40.74815216 -9.69884727 44.08957868 -9.6876651 47.43147314 C-9.67885057 51.03140474 -9.68725865 54.63130051 -9.69352722 58.23123169 C-9.70303367 65.28794433 -9.69639914 72.34455498 -9.68426428 79.40126007 C-9.67066739 87.6130357 -9.67228011 95.82478683 -9.67439761 104.03657085 C-9.67759024 118.68577343 -9.66590448 133.33492743 -9.64633179 147.9841156 C-9.62732994 162.20971659 -9.62024299 176.43526064 -9.62582397 190.66087341 C-9.63187781 206.13761347 -9.63171169 221.61432845 -9.62033814 237.09106642 C-9.61913081 238.74051607 -9.61792482 240.38996571 -9.6167202 242.03941536 C-9.61611666 242.85105167 -9.61551312 243.66268797 -9.61489129 244.49891932 C-9.61100692 250.22728878 -9.61140779 255.95564894 -9.61330605 261.68401909 C-9.61542526 268.66274105 -9.61022487 275.64141306 -9.59569249 282.62012094 C-9.58843418 286.18297251 -9.58438364 289.74575124 -9.58893585 293.30860901 C-9.59374391 297.16545449 -9.5831244 301.02216672 -9.57084656 304.8789978 C-9.57462588 306.01283384 -9.57840521 307.14666987 -9.58229905 308.31486458 C-9.57646686 309.34372262 -9.57063467 310.37258067 -9.56462574 311.43261623 C-9.56375896 312.32349514 -9.56289219 313.21437405 -9.56199914 314.1322493 C-9.45327385 316.6701777 -9.45327385 316.6701777 -7.31015015 319.38768005 C-5.43643263 319.83950387 -5.43643263 319.83950387 -3.24617863 319.76520348 C-2.39061471 319.77302672 -1.53505079 319.78084996 -0.6535607 319.78891027 C0.29184959 319.7822181 1.23725988 319.77552594 2.21131897 319.76863098 C3.21138145 319.77331095 4.21144393 319.77799093 5.24181134 319.78281271 C8.61451577 319.79484037 11.98681968 319.7852751 15.35952759 319.77586365 C17.76871988 319.77992592 20.1779103 319.78526585 22.58709717 319.79179382 C28.46469937 319.80408787 34.34219642 319.80224056 40.21979576 319.7935559 C44.99566692 319.78679037 49.77150587 319.78585772 54.54738045 319.78912735 C55.2262068 319.78958705 55.90503316 319.79004675 56.60443001 319.79052038 C57.98331476 319.79147952 59.3621995 319.79245216 60.74108423 319.79343815 C73.68265412 319.80200062 86.62416034 319.79214485 99.56571979 319.77603705 C110.67654571 319.7626361 121.78727759 319.76495844 132.89810181 319.77879333 C145.79070064 319.79483926 158.6832436 319.80117338 171.57585102 319.79195654 C172.9500685 319.79100087 174.324286 319.79005776 175.69850349 319.78912735 C176.3746984 319.78866452 177.0508933 319.7882017 177.74757896 319.78772485 C182.51866262 319.78513176 187.28971092 319.78951286 192.06078911 319.79656601 C198.48016335 319.80584693 204.89940153 319.79926155 211.31875992 319.78188324 C213.67989493 319.77790424 216.04104484 319.77907643 218.402174 319.78567123 C221.61545326 319.79382105 224.82815502 319.78364451 228.04139709 319.76863098 C228.98457666 319.77532315 229.92775623 319.78201531 230.899517 319.78891027 C231.75768866 319.78108703 232.61586033 319.77326379 233.50003719 319.76520348 C234.24206573 319.76471642 234.98409428 319.76422936 235.74860853 319.76372755 C238.32409506 319.26481727 239.18056765 318.52282984 240.68984985 316.38768005 C241.13962947 314.07767408 241.13962947 314.07767408 241.06737328 311.45102692 C241.07519652 310.42626896 241.08301976 309.40151101 241.09108007 308.34569979 C241.0843879 307.21643682 241.07769574 306.08717385 241.07080078 304.9236908 C241.07782074 303.12829967 241.07782074 303.12829967 241.08498251 301.29663801 C241.09490139 297.96836817 241.09130044 294.64060382 241.08202386 291.31236434 C241.07525349 287.72539612 241.08570456 284.13847301 241.09396362 280.55151367 C241.10732474 273.52234952 241.10441267 266.49328131 241.0957257 259.46411335 C241.08895889 253.75291284 241.08802808 248.04173926 241.09129715 242.33053589 C241.0919867 241.11267358 241.0919867 241.11267358 241.09269018 239.870208 C241.09364932 238.22098878 241.09462196 236.57176958 241.09560795 234.92255038 C241.10416881 219.44677069 241.09431681 203.97104425 241.07820685 188.49527329 C241.06480303 175.20759184 241.06713093 161.919989 241.08096313 148.63230896 C241.09700668 133.21305626 241.10334477 117.79385028 241.09412634 102.3745904 C241.09317067 100.73133501 241.09222755 99.08807962 241.09129715 97.44482422 C241.09083432 96.63624701 241.0903715 95.8276698 241.08989464 94.99459025 C241.08730107 89.28824207 241.09168365 83.58192344 241.09873581 77.87557983 C241.10713741 70.92431402 241.10489901 63.97314988 241.08889358 57.02189577 C241.0809927 53.47317938 241.07794994 49.92463268 241.08784103 46.37591743 C241.09838653 42.53440479 241.08582101 38.69317187 241.07080078 34.85166931 C241.08083903 33.15777486 241.08083903 33.15777486 241.09108007 31.42966032 C241.08325683 30.40490237 241.07543359 29.38014441 241.06737328 28.32433319 C241.06688622 27.43703412 241.06639916 26.54973504 241.06589735 25.63554811 C240.84909512 23.338327 240.84909512 23.338327 239.42696726 21.60255986 C237.2852831 20.10474006 236.11878432 20.01275621 233.51844788 20.01294994 C232.66437631 20.0057434 231.81030474 19.99853686 230.93035221 19.99111193 C229.99174571 19.99848622 229.05313921 20.0058605 228.08609009 20.01345825 C227.08925673 20.00948385 226.09242338 20.00550944 225.06538296 20.0014146 C221.70959345 19.99175437 218.3542216 20.00363238 214.9984436 20.0153656 C212.59895673 20.01293887 210.19947086 20.00922071 207.79998779 20.00430298 C201.94992164 19.99585436 196.09996768 20.00142332 190.24991727 20.01356592 C183.4407306 20.02717386 176.63157342 20.02554913 169.82237661 20.02343259 C157.67498559 20.02024128 145.52765318 20.03191855 133.38027954 20.05149841 C121.58664159 20.07050318 109.79307233 20.07758614 97.99942017 20.07200623 C85.16431766 20.06595155 72.32924538 20.06611978 59.49414539 20.07749206 C58.12612216 20.07869938 56.75809892 20.07990536 55.39007568 20.08111 C54.38037198 20.08201531 54.38037198 20.08201531 53.35027021 20.08293891 C48.60122648 20.086822 43.85219397 20.08642292 39.10314941 20.08452415 C32.71415183 20.08218327 26.32522365 20.09071433 19.93624496 20.10658455 C17.58639772 20.1108396 15.23654151 20.1116698 12.88669205 20.10889435 C9.68889959 20.10568947 6.49137457 20.11471158 3.29360962 20.12698364 C2.35500312 20.12320432 1.41639662 20.119425 0.4493475 20.11553115 C-0.40472407 20.12136334 -1.25879564 20.12719553 -2.13874817 20.13320446 C-2.87719687 20.13407124 -3.61564558 20.13493801 -4.37647152 20.13583106 C-6.63562464 20.28501259 -6.63562464 20.28501259 -9.31015015 22.38768005 Z " fill="#000000" transform="translate(134.31015014648438,79.61231994628906)"/>
<path d="M0 0 C3.3 0 6.6 0 10 0 C10 9.57 10 19.14 10 29 C12.97 29 15.94 29 19 29 C19 25.7 19 22.4 19 19 C25.93359375 18.90234375 25.93359375 18.90234375 28 19 C29 20 29 20 29.09765625 22.06640625 C29.06510417 24.37760417 29.03255208 26.68880208 29 29 C31.97 29 34.94 29 38 29 C38 25.7 38 22.4 38 19 C35.03 19 32.06 19 29 19 C29 16.03 29 13.06 29 10 C31.97 10 34.94 10 38 10 C38 6.7 38 3.4 38 0 C41.3 0 44.6 0 48 0 C48 12.54 48 25.08 48 38 C41.73 38 35.46 38 29 38 C29 41.3 29 44.6 29 48 C22.73 48 16.46 48 10 48 C10 50.97 10 53.94 10 57 C6.7 57 3.4 57 0 57 C0 60.3 0 63.6 0 67 C3.3 67 6.6 67 10 67 C10 69.97 10 72.94 10 76 C12.97 76 15.94 76 19 76 C19 69.73 19 63.46 19 57 C22.3 57 25.6 57 29 57 C29 60.3 29 63.6 29 67 C31.97 67 34.94 67 38 67 C38 63.7 38 60.4 38 57 C44.27 57 50.54 57 57 57 C57 50.73 57 44.46 57 38 C66.57 38 76.14 38 86 38 C86 41.3 86 44.6 86 48 C90.455 47.505 90.455 47.505 95 47 C95.33 44.03 95.66 41.06 96 38 C102.27 38 108.54 38 115 38 C115 41.3 115 44.6 115 48 C117.97 48 120.94 48 124 48 C124 54.27 124 60.54 124 67 C121.03 67 118.06 67 115 67 C115 69.97 115 72.94 115 76 C117.97 76 120.94 76 124 76 C124 82.27 124 88.54 124 95 C119.545 95.495 119.545 95.495 115 96 C114.67 98.97 114.34 101.94 114 105 C111.03 105 108.06 105 105 105 C105 92.46 105 79.92 105 67 C101.7 67 98.4 67 95 67 C95 79.54 95 92.08 95 105 C79.49 105 63.98 105 48 105 C48 107.97 48 110.94 48 114 C50.97 114 53.94 114 57 114 C57 117.3 57 120.6 57 124 C54.03 124 51.06 124 48 124 C48 121.03 48 118.06 48 115 C44.7 115 41.4 115 38 115 C38 117.97 38 120.94 38 124 C35.03 124 32.06 124 29 124 C29 121.03 29 118.06 29 115 C26.03 115 23.06 115 20 115 C20 120.94 20 126.88 20 133 C22.64 133 25.28 133 28 133 C29 134 29 134 29.09765625 136.06640625 C29.06510417 138.37760417 29.03255208 140.68880208 29 143 C25.7 143 22.4 143 19 143 C19 140.03 19 137.06 19 134 C17.71222656 134.01160156 16.42445313 134.02320313 15.09765625 134.03515625 C13.41927228 134.0445327 11.74088674 134.05363305 10.0625 134.0625 C9.21236328 134.07087891 8.36222656 134.07925781 7.48632812 134.08789062 C6.67744141 134.09111328 5.86855469 134.09433594 5.03515625 134.09765625 C4.2862915 134.10289307 3.53742676 134.10812988 2.76586914 134.11352539 C1 134 1 134 0 133 C-0.14193337 129.99668982 -0.04236378 127.00782866 0 124 C2.97 124 5.94 124 9 124 C9 120.7 9 117.4 9 114 C12.3 114 15.6 114 19 114 C19 111.03 19 108.06 19 105 C12.73 105 6.46 105 0 105 C0 98.73 0 92.46 0 86 C-9.57 86 -19.14 86 -29 86 C-29 77 -29 77 -28 76 C-26.58429877 75.91348389 -25.164405 75.89295096 -23.74609375 75.90234375 C-22.46508789 75.90717773 -22.46508789 75.90717773 -21.15820312 75.91210938 C-20.26037109 75.92048828 -19.36253906 75.92886719 -18.4375 75.9375 C-17.53580078 75.94201172 -16.63410156 75.94652344 -15.70507812 75.95117188 C-13.47002411 75.96299756 -11.23500398 75.98093362 -9 76 C-9 73.03 -9 70.06 -9 67 C-18.57 67 -28.14 67 -38 67 C-38 69.97 -38 72.94 -38 76 C-44.27 76 -50.54 76 -57 76 C-57 79.3 -57 82.6 -57 86 C-59.97 86 -62.94 86 -66 86 C-66 79.73 -66 73.46 -66 67 C-69.3 67 -72.6 67 -76 67 C-76 57.43 -76 47.86 -76 38 C-69.73 38 -63.46 38 -57 38 C-57 41.3 -57 44.6 -57 48 C-59.97 48 -62.94 48 -66 48 C-66 50.97 -66 53.94 -66 57 C-59.73 57 -53.46 57 -47 57 C-47 50.73 -47 44.46 -47 38 C-44.03 38 -41.06 38 -38 38 C-38 41.3 -38 44.6 -38 48 C-31.73 48 -25.46 48 -19 48 C-19 44.7 -19 41.4 -19 38 C-12.73 38 -6.46 38 0 38 C0 25.46 0 12.92 0 0 Z " fill="#828282" transform="translate(228,212)"/>
<path d="M0 0 C9.57 0 19.14 0 29 0 C29 3.3 29 6.6 29 10 C33.455 9.505 33.455 9.505 38 9 C38.33 6.03 38.66 3.06 39 0 C45.27 0 51.54 0 58 0 C58 3.3 58 6.6 58 10 C60.97 10 63.94 10 67 10 C67 16.27 67 22.54 67 29 C64.03 29 61.06 29 58 29 C58 31.97 58 34.94 58 38 C60.97 38 63.94 38 67 38 C67 44.27 67 50.54 67 57 C62.545 57.495 62.545 57.495 58 58 C57.67 60.97 57.34 63.94 57 67 C54.03 67 51.06 67 48 67 C48 54.46 48 41.92 48 29 C44.7 29 41.4 29 38 29 C38 41.54 38 54.08 38 67 C16.22 67 -5.56 67 -28 67 C-28 63.7 -28 60.4 -28 57 C-25.03 57 -22.06 57 -19 57 C-19 54.03 -19 51.06 -19 48 C-21.97 48 -24.94 48 -28 48 C-28 44.7 -28 41.4 -28 38 C-25.03 38 -22.06 38 -19 38 C-19 31.73 -19 25.46 -19 19 C-12.73 19 -6.46 19 0 19 C0 12.73 0 6.46 0 0 Z " fill="#838383" transform="translate(285,250)"/>
<path d="M0 0 C22.11 0 44.22 0 67 0 C67 22.11 67 44.22 67 67 C44.89 67 22.78 67 0 67 C0 44.89 0 22.78 0 0 Z " fill="#FAFAFA" transform="translate(152,307)"/>
<path d="M0 0 C22.11 0 44.22 0 67 0 C67 22.11 67 44.22 67 67 C44.89 67 22.78 67 0 67 C0 44.89 0 22.78 0 0 Z " fill="#FAFAFA" transform="translate(285,174)"/>
<path d="M0 0 C22.11 0 44.22 0 67 0 C67 22.11 67 44.22 67 67 C44.89 67 22.78 67 0 67 C0 44.89 0 22.78 0 0 Z " fill="#FAFAFA" transform="translate(152,174)"/>
<path d="M0 0 C22.11 0 44.22 0 67 0 C67 22.11 67 44.22 67 67 C44.89 67 22.78 67 0 67 C0 44.89 0 22.78 0 0 Z M9 10 C9 25.51 9 41.02 9 57 C24.84 57 40.68 57 57 57 C57 41.49 57 25.98 57 10 C41.16 10 25.32 10 9 10 Z " fill="#848484" transform="translate(152,307)"/>
<path d="M0 0 C22.11 0 44.22 0 67 0 C67 22.11 67 44.22 67 67 C44.89 67 22.78 67 0 67 C0 44.89 0 22.78 0 0 Z M10 10 C10 25.51 10 41.02 10 57 C25.84 57 41.68 57 58 57 C58 41.49 58 25.98 58 10 C42.16 10 26.32 10 10 10 Z " fill="#848484" transform="translate(285,174)"/>
<path d="M0 0 C22.11 0 44.22 0 67 0 C67 22.11 67 44.22 67 67 C44.89 67 22.78 67 0 67 C0 44.89 0 22.78 0 0 Z M10 9 C10 24.84 10 40.68 10 57 C25.51 57 41.02 57 57 57 C57 41.16 57 25.32 57 9 C41.49 9 25.98 9 10 9 Z " fill="#848484" transform="translate(152,174)"/>
<path d="M0 0 C3.3 0 6.6 0 10 0 C10 9.57 10 19.14 10 29 C12.97 29 15.94 29 19 29 C19 25.7 19 22.4 19 19 C25.93359375 18.90234375 25.93359375 18.90234375 28 19 C29 20 29 20 29.09765625 22.06640625 C29.06510417 24.37760417 29.03255208 26.68880208 29 29 C31.97 29 34.94 29 38 29 C38 25.7 38 22.4 38 19 C35.03 19 32.06 19 29 19 C29 16.03 29 13.06 29 10 C31.97 10 34.94 10 38 10 C38 6.7 38 3.4 38 0 C41.3 0 44.6 0 48 0 C48 12.54 48 25.08 48 38 C41.73 38 35.46 38 29 38 C29 41.3 29 44.6 29 48 C19.43 48 9.86 48 0 48 C0 45.03 0 42.06 0 39 C-5.94 39 -11.88 39 -18 39 C-18 41.64 -18 44.28 -18 47 C-15.03 47 -12.06 47 -9 47 C-9 50.3 -9 53.6 -9 57 C-12.3 57 -15.6 57 -19 57 C-19 50.73 -19 44.46 -19 38 C-12.73 38 -6.46 38 0 38 C0 25.46 0 12.92 0 0 Z " fill="#848484" transform="translate(228,212)"/>
<path d="M0 0 C5.94 0 11.88 0 18 0 C18 2.97 18 5.94 18 9 C24.6 9 31.2 9 38 9 C38 12.3 38 15.6 38 19 C40.97 19 43.94 19 47 19 C47 21.97 47 24.94 47 28 C34.46 28 21.92 28 9 28 C9 31.3 9 34.6 9 38 C2.73 38 -3.54 38 -10 38 C-10 34.7 -10 31.4 -10 28 C-7.03 28 -4.06 28 -1 28 C-1 25.03 -1 22.06 -1 19 C2.3 19 5.6 19 9 19 C9 15.7 9 12.4 9 9 C6.03 9 3.06 9 0 9 C0 6.03 0 3.06 0 0 Z " fill="#FCFCFC" transform="translate(267,279)"/>
<path d="M0 0 C2.97 0 5.94 0 9 0 C12.39247043 6.53467665 15.37933326 13.11891972 18 20 C21.03380937 13.34799995 24.04082216 6.68554993 27 0 C29.97 0 32.94 0 36 0 C36 10.56 36 21.12 36 32 C33.36 32 30.72 32 28 32 C27.67 27.05 27.34 22.1 27 17 C25.39639698 21.56127862 25.39639698 21.56127862 23.79907227 26.12475586 C22.11111111 30.88888889 22.11111111 30.88888889 21 32 C19.02 32 17.04 32 15 32 C13.02 27.05 11.04 22.1 9 17 C8.67 21.95 8.34 26.9 8 32 C5.36 32 2.72 32 0 32 C0 21.44 0 10.88 0 0 Z " fill="#0A0A0A" transform="translate(289,124)"/>
<path d="M0 0 C9.24 0 18.48 0 28 0 C28 9.24 28 18.48 28 28 C18.76 28 9.52 28 0 28 C0 18.76 0 9.52 0 0 Z " fill="#808080" transform="translate(171,327)"/>
<path d="M0 0 C9.24 0 18.48 0 28 0 C28 9.24 28 18.48 28 28 C18.76 28 9.52 28 0 28 C0 18.76 0 9.52 0 0 Z " fill="#808080" transform="translate(305,193)"/>
<path d="M0 0 C9.24 0 18.48 0 28 0 C28 9.24 28 18.48 28 28 C18.76 28 9.52 28 0 28 C0 18.76 0 9.52 0 0 Z " fill="#808080" transform="translate(171,193)"/>
<path d="M0 0 C2.97 0 5.94 0 9 0 C9 3.3 9 6.6 9 10 C15.27 10 21.54 10 28 10 C28 12.97 28 15.94 28 19 C21.73 19 15.46 19 9 19 C9 21.97 9 24.94 9 28 C6.03 28.33 3.06 28.66 0 29 C-0.33 31.97 -0.66 34.94 -1 38 C-6.94 38 -12.88 38 -19 38 C-19 35.03 -19 32.06 -19 29 C-16.03 29 -13.06 29 -10 29 C-10 22.73 -10 16.46 -10 10 C-5.545 9.505 -5.545 9.505 -1 9 C-0.67 6.03 -0.34 3.06 0 0 Z " fill="#808080" transform="translate(305,336)"/>
<path d="M0 0 C8 0 8 0 9.91796875 1.56054688 C10.33691406 2.27275391 10.75585938 2.98496094 11.1875 3.71875 C11.65800781 4.48574219 12.12851562 5.25273437 12.61328125 6.04296875 C13.07089844 6.85378906 13.52851563 7.66460937 14 8.5 C14.48855469 9.31082031 14.97710937 10.12164062 15.48046875 10.95703125 C16.67978929 12.95589881 17.84347031 14.97607304 19 17 C19.33 11.39 19.66 5.78 20 0 C22.64 0 25.28 0 28 0 C28 10.56 28 21.12 28 32 C20 32 20 32 18.18969727 30.65478516 C17.81901123 30.03909668 17.4483252 29.4234082 17.06640625 28.7890625 C16.64552734 28.12132812 16.22464844 27.45359375 15.79101562 26.765625 C15.38560547 26.05921875 14.98019531 25.3528125 14.5625 24.625 C14.13001953 23.92632812 13.69753906 23.22765625 13.25195312 22.5078125 C11.73933596 20.04596296 10.29232389 17.58464777 9 15 C8.67 20.61 8.34 26.22 8 32 C5.36 32 2.72 32 0 32 C0 21.44 0 10.88 0 0 Z " fill="#0B0B0B" transform="translate(246,124)"/>
<path d="M0 0 C2.97 0 5.94 0 9 0 C15.72414839 17.16924407 15.72414839 17.16924407 18.4375 24.4375 C18.89962891 25.67306641 18.89962891 25.67306641 19.37109375 26.93359375 C20 29 20 29 20 32 C17.36 32 14.72 32 12 32 C11.34 30.35 10.68 28.7 10 27 C6.37 27 2.74 27 -1 27 C-1.99 29.475 -1.99 29.475 -3 32 C-5.64 32 -8.28 32 -11 32 C-9.59477385 24.59553915 -7.19257123 17.91539124 -4.375 10.9375 C-3.95476562 9.88111328 -3.53453125 8.82472656 -3.1015625 7.73632812 C-2.07373243 5.15507306 -1.03978554 2.57645691 0 0 Z " fill="#090909" transform="translate(222,124)"/>
<path d="M0 0 C2.97 0 5.94 0 9 0 C9 12.54 9 25.08 9 38 C6.03 38 3.06 38 0 38 C-0.33 35.03 -0.66 32.06 -1 29 C-3.97 28.67 -6.94 28.34 -10 28 C-10 21.73 -10 15.46 -10 9 C-6.7 9 -3.4 9 0 9 C0 6.03 0 3.06 0 0 Z " fill="#828282" transform="translate(238,174)"/>
<path d="M0 0 C2.97 0 5.94 0 9 0 C9 3.3 9 6.6 9 10 C12.3 10 15.6 10 19 10 C19 15.94 19 21.88 19 28 C16.03 28.33 13.06 28.66 10 29 C9.67 31.97 9.34 34.94 9 38 C6.03 38 3.06 38 0 38 C0 25.46 0 12.92 0 0 Z " fill="#808080" transform="translate(333,279)"/>
<path d="M0 0 C5.2552662 1.81913061 7.82196776 4.60683778 11 9 C11 9.66 11 10.32 11 11 C9.56344146 11.08131463 8.1255517 11.13933559 6.6875 11.1875 C5.88699219 11.22230469 5.08648437 11.25710937 4.26171875 11.29296875 C1.47774982 10.93235101 0.85110564 10.01749716 -1 8 C-4.5572204 7.47020122 -6.31593299 7.56795768 -9.375 9.5 C-11.66553108 13.02389397 -11.67045833 15.91020416 -11 20 C-10.13575439 22.59869315 -10.13575439 22.59869315 -8 24 C-4.5 24.58333333 -4.5 24.58333333 -1 24 C-0.52949219 23.49984375 -0.05898437 22.9996875 0.42578125 22.484375 C2 21 2 21 4.26171875 20.70703125 C5.06222656 20.74183594 5.86273438 20.77664062 6.6875 20.8125 C7.49574219 20.83957031 8.30398437 20.86664063 9.13671875 20.89453125 C9.75160156 20.92933594 10.36648437 20.96414062 11 21 C10.19981357 24.82311295 9.08446366 27.36197611 6.125 29.875 C1.14177086 33.08595099 -4.30179949 32.9587203 -10 32 C-14.10834062 30.29601338 -16.36514482 27.88060557 -18.9375 24.3125 C-20.82549083 18.42641095 -21.10784138 13.21568277 -18.3125 7.625 C-12.60555358 1.14684461 -8.44376448 -0.77020825 0 0 Z " fill="#0A0A0A" transform="translate(197,124)"/>
<path d="M0 0 C2.71677989 2.5130214 3.29803569 3.67714239 3.5 7.3125 C-2.5546875 7.5078125 -2.5546875 7.5078125 -4.5 7.3125 C-5.16 6.6525 -5.82 5.9925 -6.5 5.3125 C-7.82 5.3125 -9.14 5.3125 -10.5 5.3125 C-10.45478029 7.23230725 -10.45478029 7.23230725 -9.5 9.3125 C-6.80545834 11.00931758 -6.80545834 11.00931758 -3.5625 12.375 C2.29693704 15.00790556 2.29693704 15.00790556 4.5 18.3125 C4.35533327 22.29083499 4.10587056 24.56981996 1.5625 27.6875 C-2.79857692 31.1235 -7.1219249 30.79525635 -12.5 30.3125 C-16.18623011 28.69977433 -17.25355 27.682175 -19.5 24.3125 C-19.5 22.9925 -19.5 21.6725 -19.5 20.3125 C-16.86 20.3125 -14.22 20.3125 -11.5 20.3125 C-11.17 21.6325 -10.84 22.9525 -10.5 24.3125 C-8.85 23.9825 -7.2 23.6525 -5.5 23.3125 C-5.5 21.9925 -5.5 20.6725 -5.5 19.3125 C-6.34304687 18.99796875 -7.18609375 18.6834375 -8.0546875 18.359375 C-9.15039062 17.93140625 -10.24609375 17.5034375 -11.375 17.0625 C-12.46554688 16.64484375 -13.55609375 16.2271875 -14.6796875 15.796875 C-17.69877096 14.2078837 -18.48539914 13.49859417 -19.5 10.3125 C-19.9954729 6.4312956 -19.82866159 4.82249212 -17.6875 1.5 C-12.89108738 -3.29641262 -5.76090472 -2.77757906 0 0 Z " fill="#0A0A0A" transform="translate(169.5,125.6875)"/>
<path d="M0 0 C6.6 0 13.2 0 20 0 C20 2.31 20 4.62 20 7 C16.04 7 12.08 7 8 7 C8 8.98 8 10.96 8 13 C11.63 13 15.26 13 19 13 C19 14.98 19 16.96 19 19 C15.37 19 11.74 19 8 19 C8 21.31 8 23.62 8 26 C11.96 26 15.92 26 20 26 C20 27.98 20 29.96 20 32 C13.4 32 6.8 32 0 32 C0 21.44 0 10.88 0 0 Z " fill="#111111" transform="translate(330,124)"/>
<path d="M0 0 C3.3 0 6.6 0 10 0 C10 2.97 10 5.94 10 9 C11.28777344 8.98839844 12.57554687 8.97679687 13.90234375 8.96484375 C15.58072772 8.9554673 17.25911326 8.94636695 18.9375 8.9375 C20.21270508 8.92493164 20.21270508 8.92493164 21.51367188 8.91210938 C22.32255859 8.90888672 23.13144531 8.90566406 23.96484375 8.90234375 C24.7137085 8.89710693 25.46257324 8.89187012 26.23413086 8.88647461 C28 9 28 9 29 10 C29 12.97 29 15.94 29 19 C19.43 19 9.86 19 0 19 C0 12.73 0 6.46 0 0 Z " fill="#868686" transform="translate(228,355)"/>
<path d="M0 0 C2.97 0 5.94 0 9 0 C9 2.97 9 5.94 9 9 C12.3 9 15.6 9 19 9 C19 15.27 19 21.54 19 28 C16.03 28 13.06 28 10 28 C9.67 25.03 9.34 22.06 9 19 C6.03 18.67 3.06 18.34 0 18 C0 12.06 0 6.12 0 0 Z " fill="#808080" transform="translate(333,327)"/>
<path d="M0 0 C1.16781006 0.00523682 2.33562012 0.01047363 3.53881836 0.01586914 C4.79887695 0.0190918 6.05893555 0.02231445 7.35717773 0.02563477 C8.6976732 0.03399136 10.03816799 0.04245632 11.37866211 0.05102539 C12.72306153 0.05603879 14.06746271 0.06060197 15.41186523 0.06469727 C18.71334151 0.07653051 22.01473014 0.09301568 25.31616211 0.11352539 C25.31616211 3.41352539 25.31616211 6.71352539 25.31616211 10.11352539 C15.74616211 10.11352539 6.17616211 10.11352539 -3.68383789 10.11352539 C-3.68383789 0.15582504 -3.68383789 0.15582504 0 0 Z " fill="#F7F7F7" transform="translate(288.683837890625,268.886474609375)"/>
<path d="M0 0 C6.27 0 12.54 0 19 0 C19 6.27 19 12.54 19 19 C16.03 19 13.06 19 10 19 C10 16.03 10 13.06 10 10 C6.7 10 3.4 10 0 10 C0 6.7 0 3.4 0 0 Z " fill="#858585" transform="translate(266,345)"/>
<path d="M0 0 C6.27 0 12.54 0 19 0 C19 3.3 19 6.6 19 10 C15.7 10 12.4 10 9 10 C9 12.97 9 15.94 9 19 C6.03 19 3.06 19 0 19 C0 12.73 0 6.46 0 0 Z " fill="#838383" transform="translate(257,174)"/>
<path d="M0 0 C0.33 0 0.66 0 1 0 C1 2.97 1 5.94 1 9 C3.97 9 6.94 9 10 9 C10 12.3 10 15.6 10 19 C3.73 19 -2.54 19 -9 19 C-9 15.7 -9 12.4 -9 9 C-6.03 9 -3.06 9 0 9 C0 6.03 0 3.06 0 0 Z " fill="#F5F5F5" transform="translate(266,279)"/>
<path d="M0 0 C6.27 0 12.54 0 19 0 C19 0.33 19 0.66 19 1 C16.36 1 13.72 1 11 1 C11 6.94 11 12.88 11 19 C13.64 19 16.28 19 19 19 C20 20 20 20 20.09765625 22.06640625 C20.06510417 24.37760417 20.03255208 26.68880208 20 29 C16.7 29 13.4 29 10 29 C10 26.03 10 23.06 10 20 C4.06 20 -1.88 20 -8 20 C-8 19.67 -8 19.34 -8 19 C-2.06 19 3.88 19 10 19 C10 13.06 10 7.12 10 1 C7.03 1 4.06 1 1 1 C1 3.97 1 6.94 1 10 C0.67 10 0.34 10 0 10 C0 6.7 0 3.4 0 0 Z " fill="#C6C6C6" transform="translate(237,326)"/>
<path d="M0 0 C5.94 0 11.88 0 18 0 C18 2.64 18 5.28 18 8 C12.06 8 6.12 8 0 8 C0 5.36 0 2.72 0 0 Z " fill="#808080" transform="translate(267,270)"/>
<path d="M0 0 C3.3 0 6.6 0 10 0 C10 0.33 10 0.66 10 1 C7.03 1 4.06 1 1 1 C1 3.97 1 6.94 1 10 C3.97 10 6.94 10 10 10 C10 13.3 10 16.6 10 20 C7.03 20 4.06 20 1 20 C0.11744572 13.2705236 -0.08592955 6.78843417 0 0 Z " fill="#F1F1F1" transform="translate(256,221)"/>
<path d="M0 0 C3.46679688 0.04882812 3.46679688 0.04882812 6.93359375 0.09765625 C6.93359375 3.39765625 6.93359375 6.69765625 6.93359375 10.09765625 C3.63359375 10.09765625 0.33359375 10.09765625 -3.06640625 10.09765625 C-3.1640625 3.1640625 -3.1640625 3.1640625 -3.06640625 1.09765625 C-2.06640625 0.09765625 -2.06640625 0.09765625 0 0 Z " fill="#8B8B8B" transform="translate(269.06640625,287.90234375)"/>
<path d="M0 0 C3.46679688 0.04882812 3.46679688 0.04882812 6.93359375 0.09765625 C6.93359375 3.39765625 6.93359375 6.69765625 6.93359375 10.09765625 C3.63359375 10.09765625 0.33359375 10.09765625 -3.06640625 10.09765625 C-3.1640625 3.1640625 -3.1640625 3.1640625 -3.06640625 1.09765625 C-2.06640625 0.09765625 -2.06640625 0.09765625 0 0 Z " fill="#F2F2F2" transform="translate(231.06640625,249.90234375)"/>
<path d="M0 0 C2.97 0 5.94 0 9 0 C9 3.3 9 6.6 9 10 C6.03 10 3.06 10 0 10 C0 6.7 0 3.4 0 0 Z " fill="#F8F8F8" transform="translate(333,269)"/>
<path d="M0 0 C3.3 0 6.6 0 10 0 C10 2.97 10 5.94 10 9 C6.7 9 3.4 9 0 9 C0 6.03 0 3.06 0 0 Z " fill="#F8F8F8" transform="translate(209,260)"/>
<path d="M0 0 C3.3 0 6.6 0 10 0 C10 2.97 10 5.94 10 9 C6.7 9 3.4 9 0 9 C0 6.03 0 3.06 0 0 Z " fill="#868686" transform="translate(266,193)"/>
<path d="M0 0 C2.97 0 5.94 0 9 0 C9 2.97 9 5.94 9 9 C6.03 9 3.06 9 0 9 C0 6.03 0 3.06 0 0 Z " fill="#808080" transform="translate(333,365)"/>
<path d="M0 0 C2.97 0 5.94 0 9 0 C9 2.97 9 5.94 9 9 C6.03 9 3.06 9 0 9 C0 6.03 0 3.06 0 0 Z " fill="#808080" transform="translate(314,365)"/>
<path d="M0 0 C2.97 0 5.94 0 9 0 C9 2.97 9 5.94 9 9 C6.03 9 3.06 9 0 9 C0 6.03 0 3.06 0 0 Z " fill="#838383" transform="translate(248,346)"/>
<path d="M0 0 C2.97 0 5.94 0 9 0 C9 2.97 9 5.94 9 9 C6.03 9 3.06 9 0 9 C0 6.03 0 3.06 0 0 Z " fill="#808080" transform="translate(343,317)"/>
<path d="M0 0 C2.97 0 5.94 0 9 0 C9 2.97 9 5.94 9 9 C6.03 9 3.06 9 0 9 C0 6.03 0 3.06 0 0 Z " fill="#808080" transform="translate(257,203)"/>
<path d="M0 0 C0.33 0 0.66 0 1 0 C1 2.64 1 5.28 1 8 C3.97 8 6.94 8 10 8 C10 8.33 10 8.66 10 9 C7.03 9 4.06 9 1 9 C1 11.97 1 14.94 1 18 C3.97 18 6.94 18 10 18 C10 18.33 10 18.66 10 19 C7.03 19 4.06 19 1 19 C1 21.97 1 24.94 1 28 C0.67 28 0.34 28 0 28 C0 25.03 0 22.06 0 19 C-2.97 19 -5.94 19 -9 19 C-9 18.67 -9 18.34 -9 18 C-6.03 18 -3.06 18 0 18 C0 12.06 0 6.12 0 0 Z " fill="#C4C4C4" transform="translate(342,308)"/>
<path d="M0 0 C2.3129482 2.3129482 2.49580975 3.47904875 3.125 6.625 C3.29257813 7.44226563 3.46015625 8.25953125 3.6328125 9.1015625 C3.81457031 10.04128906 3.81457031 10.04128906 4 11 C1.69 11 -0.62 11 -3 11 C-2.69217504 9.35328588 -2.37860766 7.70764424 -2.0625 6.0625 C-1.88847656 5.14597656 -1.71445313 4.22945312 -1.53515625 3.28515625 C-1 1 -1 1 0 0 Z " fill="#DCDCDC" transform="translate(226,134)"/>
</svg>
