<?xml version="1.0" encoding="UTF-8" standalone="no"?>
<!-- Generator: visioncortex VTracer 0.6.4 -->

<svg
   version="1.1"
   width="481.42316"
   height="257.38483"
   id="svg88"
   sodipodi:docname="pixelQR-logo-horizontal.svg"
   inkscape:export-filename="pixelQR-logo-horizontal"
   inkscape:export-xdpi="96"
   inkscape:export-ydpi="96"
   inkscape:version="1.4.2 (f4327f4, 2025-05-13)"
   xmlns:inkscape="http://www.inkscape.org/namespaces/inkscape"
   xmlns:sodipodi="http://sodipodi.sourceforge.net/DTD/sodipodi-0.dtd"
   xmlns="http://www.w3.org/2000/svg"
   xmlns:svg="http://www.w3.org/2000/svg">
  <sodipodi:namedview
     id="namedview1"
     pagecolor="#ffffff"
     bordercolor="#000000"
     borderopacity="0.25"
     inkscape:showpageshadow="2"
     inkscape:pageopacity="0.0"
     inkscape:pagecheckerboard="0"
     inkscape:deskcolor="#d1d1d1"
     inkscape:zoom="2.5176696"
     inkscape:cx="258.17526"
     inkscape:cy="143.18797"
     inkscape:window-width="1920"
     inkscape:window-height="1009"
     inkscape:window-x="2552"
     inkscape:window-y="157"
     inkscape:window-maximized="1"
     inkscape:current-layer="g1" />
  <defs
     id="defs88">
    <linearGradient
       id="swatch1">
      <stop
         style="stop-color:#000000;stop-opacity:0;"
         offset="0"
         id="stop1" />
    </linearGradient>
  </defs>
  <g
     id="g1">
    <path
       d="M 0,0 H 256.15118 V 257.38482 H 0 Z"
       fill="#00786E"
       id="path1"
       style="fill:#00786e;fill-opacity:0;stroke-width:0.51399" />
    <path
       d="m 21.58365,22.576209 h 23 v 21 h 47 v 21 h 97 v -38 h 42 v 41 l -1,1 h -35 v 98.000001 h 18 l 1,1 v 47 h 21 v 22 h -22 v -21 h -48 v -20 h -97 v 38 h -41 l -1,-1 v -41 h 38 V 92.576209 h -20 l -1,-1 v -46 h -21 z m 73,49 v 24 h -24 v 93.000001 h 92 v -25 h 25 V 71.576209 Z"
       fill="#50c584"
       id="path2"
       style="fill:#80d8a7;fill-opacity:1" />
    <path
       d="m 189.58365,27.576209 h 40 v 40 h -36 V 167.57621 h -4 v 3 h -20 v 21 h -4 v 3 h -99 v 2 h -2 l -1,-4 1,-101.000001 3,-2 20,-1 1,-20 h 3 v -3 h 98 z m -95,44 v 24 h -24 v 93.000001 h 92 v -25 h 25 V 71.576209 Z"
       fill="#80d8a7"
       id="path4" />
    <path
       d="m 26.58365,192.57621 h 12 l 3,5 -4,-1 -1,8 h 2 l 1,15 18,1 v -3 h -2 v -6 l 7,-7 4,1 v 27 h -40 z"
       fill="#83dba9"
       id="path15"
       style="display:inline" />
    <path
       d="m 230.58365,166.57621 h 22 v 23 h -23 v -22 z"
       fill="#4ac47e"
       id="path18" />
    <path
       d="m 3.58365,69.576209 h 22 l 1,1 v 22 h -23 z"
       fill="#49c37e"
       id="path19" />
    <path
       d="m 144.58365,3.576209 h 20 l 1,1 v 19 l -1,1 h -20 z"
       fill="#78d2a3"
       id="path21" />
    <path
       d="m 190.58365,28.576209 h 7 l -2,2 v 15 l 2,-2 v 7 l 1,1 v -4 h 2 v 7 h 2 v 2 h 11 l 3,4 -1,2 13,1 v 3 h -32 l -3,-1 v -2 l -3,1 z"
       fill="#83dcaa"
       id="path22" />
    <path
       d="m 89.58365,235.57621 h 20 v 20 h -20 z"
       fill="#80d8a7"
       id="path23" />
    <path
       d="m 67.58365,68.576209 h 20 v 20 h -20 z"
       fill="#01796e"
       id="path24" />
    <path
       d="m 170.58365,171.57621 h 19 v 20 h -19 z"
       fill="#047b6e"
       id="path25" />
    <path
       d="m 202.58365,39.576209 h 14 v 15 h -14 z"
       fill="#077d70"
       id="path28" />
    <path
       d="m 206.58365,133.57621 h 14 v 14 h -14 z"
       fill="#48c07d"
       id="path29" />
    <path
       d="m 39.58365,205.57621 h 14 v 13 h -14 z"
       fill="#01786e"
       id="path30"
       style="fill:#00786e;fill-opacity:1" />
    <path
       d="m 36.58365,111.57621 h 13 v 14 h -13 z"
       fill="#4ac37e"
       id="path31" />
    <path
       d="m 194.58365,166.57621 h 18 l 1,1 v 47 h -1 l -1,-23 v -23 h -15 z"
       fill="#3bae7b"
       id="path37"
       style="fill:#80d8a7;fill-opacity:1" />
    <path
       d="m 201.58365,38.576209 h 17 v 2 l 2,1 h -2 v 14 h -16 l -1,-1 z m 1,1 v 15 h 14 v -15 z"
       fill="#69C499"
       id="path39"
       style="fill:#80d8a7;fill-opacity:1" />
    <path
       d="M 133.20985,131.62727 H 121.3661 v -6.21875 h 11.84375 q 3.09375,0 5,-1 1.90625,-1 2.78125,-2.75 0.90625,-1.78125 0.90625,-4.0625 0,-2.15625 -0.90625,-4.03125 -0.875,-1.90625 -2.78125,-3.0625 -1.90625,-1.15625 -5,-1.15625 h -9.4375 v 39.25 h -7.84375 v -45.5 h 17.28125 q 5.28125,0 8.96875,1.875 3.71875,1.84375 5.65625,5.125 1.9375,3.25 1.9375,7.4375 0,4.40625 -1.9375,7.5625 -1.9375,3.15625 -5.65625,4.84375 -3.6875,1.6875 -8.96875,1.6875 z"
       id="text89"
       style="font-weight:500;font-size:64px;font-family:Roboto;-inkscape-font-specification:'Roboto Medium';stroke:#000000;stroke-miterlimit:10;paint-order:fill markers stroke;fill:#00786e;fill-opacity:1"
       aria-label="P" />
    <path
       style="font-weight:600;font-size:64px;font-family:Roboto;-inkscape-font-specification:'Roboto Semi-Bold';text-align:center;text-anchor:middle;white-space:pre;stroke:#000000;stroke-miterlimit:10;paint-order:fill markers stroke;fill:#00786e;fill-opacity:1"
       d="m 276.11156,131.64623 h -11.71875 v -6.75 h 11.71875 q 2.875,0 4.65625,-0.9375 1.8125,-0.96875 2.65625,-2.625 0.84375,-1.6875 0.84375,-3.84375 0,-2.09375 -0.84375,-3.90625 -0.84375,-1.8125 -2.65625,-2.9375 -1.78125,-1.125 -4.65625,-1.125 h -8.90625 v 38.71875 h -8.59375 v -45.5 h 17.5 q 5.3125,0 9.0625,1.90625 3.78125,1.875 5.75,5.21875 2,3.3125 2,7.5625 0,4.40625 -2,7.59375 -1.96875,3.1875 -5.75,4.90625 -3.75,1.71875 -9.0625,1.71875 z m 31.6875,-17.21875 v 33.8125 h -8.28125 v -33.8125 z m -8.84375,-8.84375 q 0,-1.84375 1.25,-3.0625 1.28125,-1.21875 3.4375,-1.21875 2.15625,0 3.40625,1.21875 1.28125,1.21875 1.28125,3.0625 0,1.8125 -1.28125,3.03125 -1.25,1.21875 -3.40625,1.21875 -2.15625,0 -3.4375,-1.21875 -1.25,-1.21875 -1.25,-3.03125 z m 23.1875,8.84375 6.03125,10.75 6.125,-10.75 h 8.96875 l -9.9375,16.5625 10.34375,17.25 h -8.96875 l -6.46875,-11.28125 -6.5,11.28125 h -8.96875 l 10.3125,-17.25 -9.875,-16.5625 z m 40.46875,34.4375 q -3.84375,0 -6.90625,-1.25 -3.0625,-1.25 -5.21875,-3.46875 -2.125,-2.25 -3.28125,-5.21875 -1.125,-3 -1.125,-6.4375 v -1.25 q 0,-3.90625 1.125,-7.09375 1.125,-3.21875 3.1875,-5.53125 2.0625,-2.3125 4.9375,-3.5625 2.875,-1.25 6.34375,-1.25 3.59375,0 6.34375,1.21875 2.75,1.1875 4.59375,3.375 1.84375,2.1875 2.78125,5.25 0.9375,3.03125 0.9375,6.71875 v 3.46875 h -26.5 v -5.6875 h 18.375 v -0.625 q -0.0625,-1.96875 -0.75,-3.59375 -0.6875,-1.65625 -2.125,-2.625 -1.4375,-1 -3.71875,-1 -1.84375,0 -3.21875,0.8125 -1.34375,0.78125 -2.25,2.25 -0.875,1.4375 -1.3125,3.4375 -0.4375,2 -0.4375,4.4375 v 1.25 q 0,2.125 0.5625,3.9375 0.59375,1.8125 1.71875,3.15625 1.15625,1.3125 2.75,2.0625 1.625,0.71875 3.6875,0.71875 2.59375,0 4.6875,-1 2.125,-1.03125 3.6875,-3.03125 l 4.15625,4.3125 q -1.0625,1.5625 -2.875,3 -1.78125,1.4375 -4.3125,2.34375 -2.53125,0.875 -5.84375,0.875 z m 28,-48.625 v 48 h -8.28125 v -48 z m 32.90625,41.59375 12.125,9.625 -5.5,4.78125 -11.9375,-9.5625 z m 12.34375,-17.5 v 2.34375 q 0,5.15625 -1.375,9.28125 -1.375,4.09375 -3.9375,6.96875 -2.53125,2.875 -6.03125,4.40625 -3.5,1.53125 -7.75,1.53125 -4.21875,0 -7.75,-1.53125 -3.5,-1.53125 -6.0625,-4.40625 -2.5625,-2.875 -3.96875,-6.96875 -1.40625,-4.125 -1.40625,-9.28125 v -2.34375 q 0,-5.1875 1.375,-9.28125 1.40625,-4.09375 3.9375,-6.96875 2.5625,-2.90625 6.0625,-4.4375 3.53125,-1.53125 7.75,-1.53125 4.25,0 7.75,1.53125 3.53125,1.53125 6.0625,4.4375 2.5625,2.875 3.9375,6.96875 1.40625,4.09375 1.40625,9.28125 z m -8.6875,2.34375 v -2.40625 q 0,-3.71875 -0.6875,-6.53125 -0.6875,-2.84375 -2.0625,-4.78125 -1.34375,-1.9375 -3.28125,-2.90625 -1.9375,-1 -4.4375,-1 -2.46875,0 -4.40625,1 -1.9375,0.96875 -3.28125,2.90625 -1.34375,1.9375 -2.0625,4.78125 -0.6875,2.8125 -0.6875,6.53125 v 2.40625 q 0,3.6875 0.6875,6.53125 0.71875,2.84375 2.0625,4.8125 1.375,1.9375 3.3125,2.9375 1.96875,1 4.4375,1 2.5,0 4.4375,-1 1.9375,-1 3.25,-2.9375 1.34375,-1.96875 2.03125,-4.8125 0.6875,-2.84375 0.6875,-6.53125 z m 16.0625,-23.9375 h 16.53125 q 5.1875,0 8.90625,1.5625 3.71875,1.5625 5.71875,4.625 2,3.0625 2,7.53125 0,3.53125 -1.25,6.125 -1.25,2.59375 -3.53125,4.34375 -2.25,1.75 -5.3125,2.75 l -2.6875,1.375 h -14.59375 l -0.0625,-6.78125 h 10.90625 q 2.65625,0 4.40625,-0.9375 1.75,-0.9375 2.625,-2.59375 0.90625,-1.65625 0.90625,-3.78125 0,-2.28125 -0.875,-3.9375 -0.875,-1.6875 -2.65625,-2.59375 -1.78125,-0.90625 -4.5,-0.90625 h -7.9375 v 38.71875 h -8.59375 z m 25.6875,45.5 -10.53125,-20.375 9.09375,-0.0312 10.65625,19.96875 v 0.4375 z"
       id="text1"
       aria-label="PixelQR" />
  </g>
</svg>
