<?xml version="1.0" encoding="UTF-8"?>
<!DOCTYPE svg PUBLIC "-//W3C//DTD SVG 1.1//EN" "http://www.w3.org/Graphics/SVG/1.1/DTD/svg11.dtd">
<svg xmlns="http://www.w3.org/2000/svg" version="1.1" width="185px" height="193px" style="shape-rendering:geometricPrecision; text-rendering:geometricPrecision; image-rendering:optimizeQuality; fill-rule:evenodd; clip-rule:evenodd" xmlns:xlink="http://www.w3.org/1999/xlink">
<g><path style="opacity:1" fill="#fefefe" d="M -0.5,-0.5 C 61.1667,-0.5 122.833,-0.5 184.5,-0.5C 184.5,63.8333 184.5,128.167 184.5,192.5C 122.833,192.5 61.1667,192.5 -0.5,192.5C -0.5,128.167 -0.5,63.8333 -0.5,-0.5 Z"/></g>
<g><path style="opacity:1" fill="#606060" d="M 3.5,5.5 C 62.331,4.50095 121.331,4.16762 180.5,4.5C 180.5,63.8333 180.5,123.167 180.5,182.5C 121.167,182.5 61.8333,182.5 2.5,182.5C 2.16762,123.331 2.50095,64.331 3.5,5.5 Z"/></g>
<g><path style="opacity:1" fill="#030303" d="M 3.5,5.5 C 62.1667,5.5 120.833,5.5 179.5,5.5C 179.5,64.1667 179.5,122.833 179.5,181.5C 120.833,181.5 62.1667,181.5 3.5,181.5C 3.5,122.833 3.5,64.1667 3.5,5.5 Z"/></g>
<g><path style="opacity:1" fill="#fefefe" d="M 28.5,30.5 C 70.5,30.5 112.5,30.5 154.5,30.5C 154.5,72.5 154.5,114.5 154.5,156.5C 112.5,156.5 70.5,156.5 28.5,156.5C 28.5,114.5 28.5,72.5 28.5,30.5 Z"/></g>
<g><path style="opacity:1" fill="#000000" d="M 129.5,56.5 C 129.5,81.5 129.5,106.5 129.5,131.5C 104.5,131.5 79.5,131.5 54.5,131.5C 54.5,106.5 54.5,81.5 54.5,56.5C 79.5,56.5 104.5,56.5 129.5,56.5 Z"/></g>
<g><path style="opacity:1" fill="#1a1a1a" d="M 129.5,56.5 C 104.5,56.5 79.5,56.5 54.5,56.5C 54.5,81.5 54.5,106.5 54.5,131.5C 53.5023,106.339 53.1689,81.0055 53.5,55.5C 79.0055,55.1689 104.339,55.5023 129.5,56.5 Z"/></g>
</svg>
