<?xml version="1.0" encoding="UTF-8"?>
<!DOCTYPE svg PUBLIC "-//W3C//DTD SVG 1.1//EN" "http://www.w3.org/Graphics/SVG/1.1/DTD/svg11.dtd">
<svg xmlns="http://www.w3.org/2000/svg" version="1.1" width="182px" height="189px" style="shape-rendering:geometricPrecision; text-rendering:geometricPrecision; image-rendering:optimizeQuality; fill-rule:evenodd; clip-rule:evenodd" xmlns:xlink="http://www.w3.org/1999/xlink">
<g><path style="opacity:1" fill="#fefefe" d="M -0.5,-0.5 C 60.1667,-0.5 120.833,-0.5 181.5,-0.5C 181.5,62.5 181.5,125.5 181.5,188.5C 120.833,188.5 60.1667,188.5 -0.5,188.5C -0.5,125.5 -0.5,62.5 -0.5,-0.5 Z"/></g>
<g><path style="opacity:1" fill="#606060" d="M 1.5,6.5 C 60.331,5.50095 119.331,5.16762 178.5,5.5C 178.5,64.8333 178.5,124.167 178.5,183.5C 119.167,183.5 59.8333,183.5 0.5,183.5C 0.16762,124.331 0.500954,65.331 1.5,6.5 Z"/></g>
<g><path style="opacity:1" fill="#030303" d="M 1.5,6.5 C 60.1667,6.5 118.833,6.5 177.5,6.5C 177.5,65.1667 177.5,123.833 177.5,182.5C 118.833,182.5 60.1667,182.5 1.5,182.5C 1.5,123.833 1.5,65.1667 1.5,6.5 Z"/></g>
<g><path style="opacity:1" fill="#fefefe" d="M 26.5,31.5 C 68.5,31.5 110.5,31.5 152.5,31.5C 152.5,73.5 152.5,115.5 152.5,157.5C 110.5,157.5 68.5,157.5 26.5,157.5C 26.5,115.5 26.5,73.5 26.5,31.5 Z"/></g>
<g><path style="opacity:1" fill="#030303" d="M 94.5,57.5 C 118.193,62.5183 129.026,77.185 127,101.5C 119.739,124.632 104.072,134.632 80,131.5C 59.2489,123.674 49.9155,108.674 52,86.5C 55.9238,72.4122 64.7571,63.0788 78.5,58.5C 83.7968,57.7255 89.1301,57.3921 94.5,57.5 Z"/></g>
<g><path style="opacity:1" fill="#404041" d="M 94.5,57.5 C 89.1301,57.3921 83.7968,57.7255 78.5,58.5C 81.356,56.9942 84.5226,56.3275 88,56.5C 90.3608,56.5039 92.5274,56.8373 94.5,57.5 Z"/></g>
</svg>
